<mxfile host="app.diagrams.net" modified="2022-05-19T15:27:27.891Z" agent="5.0 (Windows NT 10.0; Win64; x64) AppleWebKit/537.36 (KHTML, like Gecko) Chrome/101.0.4951.67 Safari/537.36" etag="5hZMEUy-p581JFA46cUV" version="18.0.7" type="github">
  <diagram id="Iw6LB0RNJv16VxsMqx0Y" name="Page-1">
    <mxGraphModel dx="477" dy="259" grid="1" gridSize="10" guides="1" tooltips="1" connect="1" arrows="1" fold="1" page="1" pageScale="1" pageWidth="827" pageHeight="1169" math="0" shadow="0">
      <root>
        <mxCell id="0" />
        <mxCell id="1" parent="0" />
        <mxCell id="xMvSz2WPHTkyer5Rlssf-2" value="" style="shape=image;verticalLabelPosition=bottom;labelBackgroundColor=default;verticalAlign=top;aspect=fixed;imageAspect=0;image=data:image/png,iVBORw0KGgoAAAANSUhEUgAAAOMAAADKCAYAAABXLfeyAAAAAXNSR0IArs4c6QAAAARnQU1BAACxjwv8YQUAAAAJcEhZcwAAFxEAABcRAcom8z8AAP+lSURBVHhevP11vyXltbYN9we4t8VDAhEIBIIEhwba3d0N6MYJGiAQgkRIcKe9Vy93d3eXVkL23u/7VcZzHqPmWKt60p1k7+d+3z/Gr6quklmz6jrqHOPSWWXFeVaUf8LyTx61gtxjVlJ40kgrLcq14oIcT2Mfx5BWXpLvFsdwPEZaVXmR1VWXWV1VqVWVFVhFca5VleZbtdZrygt9WVmS50Y6RnptRZEb67FdX1VijTVl1lBd6sZ6c32ltTXXWFtrrbW21Vlbe721dzRYZ1eTdXQ2elpjU5XVN1RYQ2OlNbfUWEvmWI7r6m627p4WN87hfPa7tdVae7uO6dAxbS3W0dJo7c0N1tZU78Z6Z2uTdbfr/IyxzXFYV1uz9XS0Wm9nm/V1tVt/d8fXrafT+vu6bKC/2wb7u7Tdbj2dnNekc5pssLdF1mwDvU3W263f1v03NlRZQ0O1NTU1WFNLix08csw2bN5hS1dvsjWbd8v2yvbZ+u0HbN32B23Jmq22fN1227Blj23atts+/vQL6+sfsNGxERsdHbChoW79fpuNDHbY6GC7Dfe3uo0MtGu7U+ndNqR7G+jjXjv9XgcGunUNbQ/onmU9ve16fi16pjz3Zuvt039TOsewHscO6FrDI302Nj7oNjTc6zYy2u/bg0M9mXP1m8McN2RTp8bcJiZHdNyAjun1/Vif7quru02/y3vUM86ksU4625wzOsZv9fl2r/4D+zo69U5lrHM8xnZbe5Pef8NFrbmlXvmpVvmp2mrrKqeN7YbGWmtsrNe7abD6+nqrq6uzqqoqKykpsYKCAsvNzbWTJ0+6sY7l5ORYXl6e72d54sQJO3r0qB05csRtFiAV5h136AAOyCpKC3z5P4ExzquuKLYaWQXHCcaKktwZ+MoSMANOoKurLLb66hKHj3XfzoDYXFdhTbXlbqy3KmMCY0sWZIAVcDU186AqfZkNLBD29rW5sQ7A7HfrqLfOzibr6RJQHW0OVxo21kkLYxtAWxvr3AJIYBwQdIO9XTbUp0wmY92N9YEeGxrsteHBHm13Wl93q0Bs0TktgqJNx7Ou++jUfbfWWHNTjUDUx6JFmaatzQ4fO2Gbtu6y5Wu32Lqte2X321rZhh0HtHzAFq++FIyjgnHQhof1uwIPGEcG2vSb/G7L34WxX9sBGRYwAiLLgBH4AtgAMuDD2I9FGvu7e/T/dX2gAyQgxABzeKTf09kf1tPb4SABWoAasLGPNEAc0PMFRI7t1DsNCxhZAnWA19rGxzwxAMVYZ19Tc50DeKHVKJ/VTcNYW1trlZWVF8AIfFgaSPYVFRX5kvTjx4/bsWPH3GYBGcBhwAdo/wyMaSCxgBF1rBJoFQIQGMsFY3nxyQRKYET9KgWhgGsQcEDXWCfg6iusvqZU6QmcjQKwpaFSGb3KLdazYQQoFO9iMAIh+2P5P4ER5QvoskGMdBSzqa5ail3jYJKOKgLecH+PMrgymIx1N0E4MqyMiSnTDJMJdS+DytzDfQJEQABjf4/utUMfEv6n/m+zMkNra7O1trfbkeM5tnnbLluxLoERELH12/fbGi3//wlj2D8LI0qIsT46NuDHA0bACHyoGgaYAWMoHMaxbAMcxnaABWyxP8Bl38VgZB3gUD8sG0auF0YaQDY0AmBNCkipZkYVa2pqrKKi4pIwooT5+fkOYnFxsS/ZZh8Kic0K2C4GY4CahpF9f8+mYSwVnIAoKxOMLIHRQRRsDbVlyshSPlmzQGsRaEDJPqAEztam6sQtlbEe28DYKhiBCBB7ennIzb4dbirLNIxYHBvHkwbQoaAOrL6wAWO2pWFECYEREFv0UgJG3FHUMEC8JIyoI5m1X8fLRjABgZva260PQ7v+dwbGFmWWNv1+W0eHHT1x0rZs320r12+1dVv22ZqMrdv2oK3WctGqLVLNbRkY99hHn36ujJmCESBwT6dd1H8MY5+D0DFtAWOXVB0DPMACtGwo0zCyHm7r+MSQb6dBDBczYAS2NIzZ4F4MRo5Lw5gGEeNYDCUN1QsYQw2xS8FYV1+VMm0LRFSxurraYSwtLbXCwkIHDQAxwGSbdGDlGJZssx8gsVl5OUcMSwMHiLieaRgjLqwsK5w2wMMtxRIIFfdVlsjYBk6p40VgdBAFGxBiARnrdQIxYCStvUUZXeZASu2SzKl0wdMpeACrr58YAP8/gbGuvtzVMQ1jwIaCAmKo4jSMbYlCduqFXAxE4sGwgDFiyogn2ZcN4zSIfwfG4RSMA6hip/5zq7wA/c+2VlSRj0mrtXd22tGcXMG412FcmwXjKsWO2TB+KBh7evuUeYelisrAihnTMA4qPsWG+gBTygxYysR9yvi9ZP5egajtbBi7e1CYNl8HOkAErlC/bBgBEBBRxInJYZucIiZM1HJEH4mA8J+BERc0rYyhdOn9cc6lYAQyILwYjNluK/sDxHTsWFNb5YoIiLioASPKB2hpC0VMwxjqCKwOY+6Jw4YBJOABIAoZcSTGerihaRABr7aq9CIGkMA5AyRLtmvlhqKAASIW0LEOiGkYO5QZsUQl5BISC0oVO1A6gfX3YGQ7QMQAMIDMhjGsXS8iXNNwTwNG4kGM7Yvtj4IbYsaIF7E0jMNDfXJRsUvD2NWBKkrZFTN2tAtEZZLOznbr6OqyYyfzbOuOvbZqw7YkXtxyv2C8/9IwfvK5ng2ADApCwSL1G5B7OqT41AuLehrcWHeXWbB5wVKX/qesp1tQZsEYQGKsp2EMIElDIQNAlDAUkvU0jOwPAFG8UL2wiP9QOpYBXBpU9qXTWbIdKhgWUKZhxAJAlhj7Yn+AWFNb4QaIdXWAWOUgUnATMJaXl1tZWdk0cGEBYtoidrwojChgQMh6AJouoEm7owEjJaj1NeVurCdpKCbQ4vbmTasibuj/LRjThTJpGKM09X8FY4vUNFNog3W2JEqZhjHUkXS2+wQKIGaXogaUl4YRl/AiythRa51t1YKyXkDI/erUV7+r07oE1fHcfNu2c5+t3qi4cPsDtn7rg15w849hpABFoAwkMA5KCSko6u9ucGN9QB+2AQHWpwzcrd/s8t/Vf74EjCwjNrwUjAEfBpjsIy1KV0M9gS4gCqDSMIbrmQ1j7MPYDiP9YjCG/TMwUpKaDSLGNjFjbV31NIxVVahjAiWWDeU/gpHY8mvKmAYx0sJ1TRfeoI5pGBt0k1gACXTAV11RYNVSxBqBiSpmu6hYuKmkZ8P4dTdVJjAjZgQq3M6IAanOAMgmXLw0jFqyHjAGkLE/DSNuZ9pQwIupY6jhpexrMMpt9ZJUwTjqpvXBLkHYaaOyiBn7uuqlTPVyFVvkJkqBUKoeuWO9vXYir8C275IabtxhG3c8KCD3yw54aSoKuWTNNrmw2rdtr23a/o9h7OtqcOvvFoz6vX65nr1SDmLnLlnACHS9+mCkgQwQAzygAriAEuhwSU+dHnMlJC2OC1XkGkBzMQMwoAoL6C4GHpYNIhYuLPDhhkbhDMs0jKwHiGkYE+hwSWdABNBEMWulkLWKGWum3dUEzCpXyYAREC9mAWMU4swCPAzoQhWBMADFbU1DGIY6ejWGgPw6jKVKZ5/Us6rIIUwXzDQJwLRReNMiIBszMAJsKGabQGwFPtYxQQiMKCTgOUAZyFiynS5pJa5k2ZEBEANclJRlGkri0PZWgZupW2xtEqCyABI1BMAeKUaYw0mG9fUw6hqp4iB+7BKEScnqkICkagMYx0bkuuHCKYYDxlDGiOP6ieXkfuNWJgUoPdbT12c5+YW2Y/cDtnbTTtu0c7/sgOxh27z7EVfHZet22OpNu23LjgdsixSU0lQgHhgeSDLs/wJG4sYolEngSSAkLdKzgQwQT58Zt3Pnp3xJevq4Qf33RGUvbdlKmG2hnqxzDKCG2xoGjBH7YawDY0AXMGZbAtyFhTZss49zm5qpZ6yz+vq6FJTVblVVqGOZFHAmfiwuLhKAF8aSBQWUqOZ4FYeXpgIcrigKyBIoQxlZB76IFYHwH8FYKxirBGIlqih3tbZWaifXtAEQqXbIMsBqkpqxv554T25ms7ZbHUTBJwixdgADOMHmMGasLZOOARTbkQaMbpeAkbgzG8Z2Pew2PehWfRmxNr0U0jr1Erv1Ve1RJk0bmfcCGMnAF8AodeSLLqXsow5SQF4AI66qV21Q1dCqY1tsaIAlxwoAh7F7WhkTN3WHIHwwA+NDtmXPo7Zx10O2cuNuxZL7bPvuA7Z9z4P2yeeHlCGVWUeoZEeZkwKcQf3OxdzUS8E46Bl9BkaAQtmyYQx3FfCA8ey5Sfvyr6ftzNmJC2AE1tGxpO4xDU4YihaFLWyHGma7s2EAmw0hRhrXAB6UDmM9CmsCutiHBZyRDoBhpHH+hTCikDWXgLFI0OULujyBSB1jgW+HkZ7AeNRmAVu6SoNldv1igBelpmwD5iVhlOtaIde0rDzPYQzAGoEPFzLLpmEk1sscRxrQYV6vKAMW4GE5rY6y2JeG0d1YLSN9GsqMBYgY236eYlNg7NCDBj5AbNELCCBJ79JLBMiwaRhTRsyFURAyoIxMCeWgDEjJ3LTCGR1W3DQsxZSbOtzbZkOypJqhVWm0kAHODlcyMlW3IO7s7vYCnC1yP1euV1y4/X7Zg3JXD9jWvY/Z5j2PePXGRsWSu/Y9Yjv3HbDPDh6Re9lvQ6NUJfR51cbQkD4SqKMX4DS6RQFOxIzUt3bLKMDhfoccgBnwAjqWbIdapreJCwNGlJF9KCH7I24EUIDBAC7bvcSAif1AFzCmj8WSZ5S0rMECxLgW8ARQgBYuK0CGAkb9IesBZQCZ3uZazQpnGhtRRCAEwCpfhlVXU6Dzz8GYm5uBEdii/jBgS9cxAib7AjpACzAjZgRAQGyUb82ypqrEysvy5TMnMDpgTZcAMQMVAKaBBTAHkVYoLTOFNt24loIH0AJIlgFegHgxUNOWBpPtuF6bYEQBQxlbGnWNDJChjl3tYbSUmYExDWG2UVVAU7uO9mbrlWJSmIMqUoAz0C1F6gKMZgcyYBymQEf7yUxdXR1etXH4eI5t3LLTlq9JKv3Xb3vAK/yBcdu+x71J3JZdB2zPA4/JHrYvDh1Txh2w4bFhZXyqVaRaw51etZG09gHGpCneUKo0tRcggUD3Sl0j4F0KxlBL0jmGKg/qIdk3dWrUgWTJfvZxLDBSqENJaiheVGcAHTBFrEeBC88g1DGUkGMCwlDRMNI5hnPYD4AB28VgjNjQS0oz7mg2kLGeqKZUUYqYlKhWurEeULKsrCxXzEhsmABYXEwVx4UwYtMwooxpNxUQw10lHRhJQwkBNSAMEAE0DSNWV1Pmylhenj8NYwAWkKRhifU0pFg6LYALmNLghaVBRI1ranSPcpE5n+MDPtbDIo3zmppxjSnB1bX10FubpMgOIw0OksKkzjaARCETIFmPbW9nSltNZcS+biwg1VLmkLfqPLmy/bh+qEEPdZdSW123u71O7m291EmASKnYRwEOmamzq91b4Bw8etw2bt1lq1wZH5Aq7reNclOBcatg3OBx5H7bseehRBm/OKLzlXkHpUBkTsHtbqrHjKGM0S6W0lR9TICQDM1SMOImAxIQZRfeAB/raQsYWQ8FBDqO51zOieoOlq7Y+lBQvcESiAAKCAGS/x9KB1wY65cCMRSV82MbNUsrHBBiibs5AyMghjqmLUBO76NJXMAIeFVVEqIsGFHG/Pxcy8s76SrIEviwSGP/yZOpFjhRggqcAWZAGetYKCggpi1cVVfHugqrrpLKUngjGP4ejBggBFxxDAqZNtLT0HF8QEkaChrHcD6/W6GYFWOddFxSLH4LuwBG7lHmBUUySnkvBWO3AOpq14dB55FO9QvbWHcHYGJNghE4E0Bxc1vl3rS1CT6PLZXRaGzdov9DibK8h87WKqXV6Nw6Px8YyXjASNtUGorjpq7bstu27nnYtux+RMtHbfv9T9g22SbFjcBIAQ4x48efHfKWO53dHYnC6CPRL0Xs66bwJnFRA8aIGVH3NIxemkupbsrSFf5Alw0r+yId+FDJUFNcUyAcGx+YVsOAkXUA414xgEsrIc8i7FIwcl6AxjJUMHEvZwps2E7DmAYxtrFQTEpTYz0Bd8YlvRSMqCGgnThxzJc5Ocd9PbYBEXUESldGgAwLJUzHkNjFYEQd0y7rdOwoGOvqyqyuVtsC0duKKpNjacAC0LRCOVwZKMPSAAZILEMlHcbUsSxRxsrKQldnFBJAO3UsMHZkrpG+Dut+DUERTe/SBpwBYwDHMoFzJi3bACrWUdumRt2fXJwOAYmaugrr+i31FdZcX6b1cqVVeHO4Hp3T35cF49FjXum/fuse27b3EZlAlCLufPBXblu1vWW3lHLXftv9wEP26ReH5epRR6lr6APQI7W9EEZa30QjdapW5KbKogXOpWBMqyMGaGk3Nm0BY4CYNuDDosIf8AJGFA3gIj5Mw8fyYiBinId7Gy4uxnq4pKhj2lUFSOAL4NIW4LFeLQ+wSnm8Unkfq6oudxCBMGB0l7WGNApwaBqHGwqEgk9LAAxDGQNGbBbw4Y6GBXDhlrLEAkyWUeEPhKyHkYbL6u5qQwY6AJQBJJXxtI7BvP2o0oAEIEK1LijZzLKAL0ACqg6BkC5xZZ3qjyapDBCiznVSRkpnOb5LcAAlJbN+XsAu8zSuQ1VLxgLEi8GYNqDLttjn0Mpam5UJmgS9MoQ3LqDkVmmturdWqngayq21sUxpArKtWurZkNQzKhN2dLRZc2urlPF4AmNGGQESGHftf8p2H3hacaPcVaVv3/uw7TvwmH1+6IieKXWUievXKzd0oB8FpB0tikicmnShosCIVkHuPgOkm1RIy1C8sLTqpZUvttPp2RBGrJkY+5J2qUAJeGnoWE+rIenAxr5LwRigYnEtYATAUD7WA1ggJQ3QKpSHMdaBLw0k20BYrnyPcVxlVZnyWAKiWzWm4zKFNwUFuKg0Fj9uuXkAmLinQJivfexHFV0Z/1kYw0gLJbwkjPVSPWVkYjB6T0SrGCCslWJi0ZibAhwHC9AE4qVg9Ir7jAU83joH+IAwY9RLtmsfDQQa9XvUXVK3ieKlXcl2rUfdJvs53lv66BoXg/HirujXAUxbGkasTRnA3VR9iWl2B4zxHzr0Gx0t+mC0VCqtStDX6Jx6uYpJxmtra7HG5mbBddQ2b9vt9Yybdx1IVFBuKqqYDeMDDz/uMFLw4zB24XpKFb1nCPFioopUqYx6/8ZUQ3FBCIgB46VUMRu+tKVBJHbE0jDGMYCIRSlpgAdIYWyjjiyzgcu29DkYaUCHKoYrmg0jaYBWpnwMaKz/czBmFLIG5UzU048po2If95MeG1LCXGA87uv5+TlWUCgIMe3Pz5i7qVGIgxEjhgICH8tQw4Aw4sQAMgw3tVF/tpkvjzIXIGbDGIZSRqV9tIBJA5e26Q7AYQAsA5BQrbCABkuDFPtJR91YAlu0+KGRAWkcmw1jXJPzArCIBS8G36W2u4gP2ylRlTrLkkIgga0YtEfLno4665Z72iXrbFeM265t/QZuFv0Z6xsbvaqC/oyrNyTN4SjA2bz7YdvxwJOujuGm7tj3sB147Ff2xeGjXvDT3QOMNHHTvUgRgTGtihfCKEj65GJmDBiJESNOTMP49ywNIzEiBpABI8ewTgFPGkZcVSxdUMMy0iMtG74w9ge4bKOkuKMBI8Z6tpsaypgAVnZRVxVjXyhnABsWMJaKnSKFewXiKU9cAeJJhYEOpLbzJYIY62EXtMABRpQyXbIaBpAAB4SoHxZVHRjrTfqTrfqTrfrqpGEMIAEQC0UEQFQQ4LyKQxatZ9JGWlwDS8d1AVlAF9CQyQMeoGEduAJIjHVApHVQwIilr80143pxraSklCoN6hoBjn1pSyDEgDDA7ZXKUc9IaSrVHMDpvfx1DFUbuI3eFK5TIHZkYOwUjDq2uVlf7xSMlKau35bUM27elcCIOm7Z84jDSD3jI08+KxiPeaxJzIgyAiPuLzAmPTWwNgdyWG4qVS24qUkXKikfXaikjt3uAhLD/X0YSQ8L5QNGgItS1QCS/eyjqRydiQPGtNsKVADHMtI5DtDSbmkAGBBmg4j6hZuKRdyIBaQBVMAX4GJxXhTuZFvACoyAWl5ZbCViplAcAV3AmCPWsJO5GHFkAijmMKYLbwDxn4UxgHRF1M1QH9eBC6Y/3qJM3Cg3NSALA6pYBzRAZBlp/zdhBASqBzDSohMzxwZ4bEfzu0hr029hHa1SqDagAGqu1ygIqXLAzQNIlDFg5Ji0JWCyv1exMNZDH0CB2Nne4srYKWXslvUKWoBk6I3eTgHYkagj51Pi2knpYKvcrJZmO5SJGdds2pGp8N/vJapRgAOMWwUj9YxPPvuiHTp6wmHETe3u7hCQ+oDQ/C2jimlLKv0z9aTKyAGjdy7uSdQRyAAsLICLdSzAJA3oonrjn4UR4MYnhn3JdsAWJa4cRxouJl4DQLKfYzEgZL+79xkQQwGjAIdlGsaAKqo/gC4bxjiP63DNdElsgBwGlKhsAJlWxxM5R+z4icO+BMxQy+l6RkDMBjBKUrMLbgLAbBipGO/QTXYoc7UqU1NZH3Blu5wBXqwDW4Aa50yDqDQgDGVtznIjs2HEgBE18ro6qRjH0VY2unAFkKQDItdKVJDz2Rcgci0AQbEadK3ExRvoTYB0yAQc+zgmjs8+j2O6UDm5qe1tTR4z0tqnU9bNveqZ9XINuaedbcSM1QmMun/cy/b2Vrmbbd65mLap67fu9phx866HPE4ERNQRlxUY7z/wpD334m/9eGDs6ZN7h8Lpg5CGkZgxbEAfl5nGC1IjHT8No7t/SR0hAAFU2uUM8NiXvZ1UYyQwck4cA7AcMzE5Og0jbmjACHhsA1coI2kAB4SABBCoH/vDtQ0QgTXACXDTKpm2UMqAjG0gy4aRfXEtlrTECRjDZQ1VZT2ADHcVGAHx2PFDbgmMidvqY+CE8qULathOW0DJPhQyHTsCI1UaKKNnMn3tgdELWgQghTLRIDuABLpQuoAsXNgAM6yBYxRzUl2BNeu4lgbBKGttFIxA2AJEFN4kcR9KmLiGUiGt44qWFvHBydH9F0oRBWRGXYGRawJop4OcbbVZMNKOk3q5pCCEtN4uFDKBMWBOQw3kKOE0jHqJ7dyzrEv3l8SMgMk5VbIERgpwUEaHsaPdjp/Ms11793vVRjQU37Y3gXH7/Y97PSOQAuMLL7/mMDa3yL0UjH1SOmDs6qRHSFJ4Q9wYy36HMWlR5EBmWt+gkFG98c/ASHrEiGlFxNIgJnD3CMYZZcQuBWNUgwAbUKBeKBNgBIwsATGqNzgOAEnjOiwDyjCOw2Kdc0Lx/hGMbLMv3NOaWspEyNcJzKSXi5eIH1FBFBEQgTI3T15pYY6r56wADLjCUMBsIAE2lDOADCgxgPSYUTfRqq+9w6gMSEwYjbNZBoxAl13VkQYyDSj73C4Bo8OXURmqCoCMNOrpiNsYO4eOzUX64xhj8zDODgNccT7j6/gYOzoPGNMql4CUGNsBZMAYQKZhbJdH0CYX/UKT29vW8DVlpEQ1G0ZUERg79axQUzoX+xg4gvFEboHt3nfAqzYowMFVxU2l0p/Cmw20yNnxoO3b/4S99Ns37Ojxk3qecqf7FPsJqi7B1qnf6ZE60gIn6eXPUv/FXe9QxgRGL8DR0gt/tC/UDKhYpt1S1kkDPhqJY9GXMQ0ix+HuAjfnAWK4nwEj2yghShfxYCgfoAFLVFGwTTr7OTZgBBiUjmVcA5ADVNJZB1KM9VBNrg9Q2UZ6AJ6oaBKHJjBSAiuBkjKSVq/8VV2j+LGiaBrG/ALU8ei0i8p2YdHJr8OIygWMaTXEADFU9GIwRiwJkIxo5hXoythpZQRMAA1VDBgDtovBOA0idgkYqRpwGPUQ2/XbDqiWlFLiAgJjrVzUcu5fXyFGqmvUx8NHm0NZM0YrmAAurXLAhbEe+2dc1UQZSWMf0P4jGDsYtkMvMprScY9RmtpDwY1iRqo2XE31zNp07DSMeYLx/ofcTaWhOL39aSi+RepIvLhecNJQHBhf/t3vp2Gk1wfu5jSM/IduGognMFKYk1T6Z9rSZmD0Sn8ytzLu/69gBDosYAwFZB2AAClgwgIaoAAo0jg2XFT2Y7HOkvMDOEDEWCeN8zgfiANClkDJb2CsY+zjI8ASELEG5Z1ahT7AmFhS2lpZVWJl5YVyU/MFYwIilpdPgc0xX+KeJsooNzVc1ACLZRq+bLsUjFgSR1b4WJ9NuH+CLtQx7aI2KWMGjAEhaRwfxnbaOD4sYAyYOnH1gBH49bvsa9OXiTQKSLq0nzFXfThI3XODvl4t2u6QinLutKGKutdQuWmwmuTCytoFVaeAZF/EjmkXlX0dGXC/DqP2BYyyC6o2HEYBIhADRq/e0O8z7AYwUs/Y3tVpJwuKbO+Dj9iGbXsugJG2qdMwSh0feOhX9uqbb9nxnHw9P6neoDK4MhyV/l26X4aCpOR2MNUCh0p/b7iuDBotcCj9pfcGbU2BB5jCDQ2AgAsLVzUbRrZnYsXkeGDETQVG0pL0pOoi1kMVQ7kCynA1WXIMShqFPel9cTxtch1EpaFooWwc06dzAJ/z2UbRcDOBkWMCbODlAwCEERc2K8+06p02KR/Vy7NCBQEQJSwtK7DikjxBSH0i1RgU4AjAAgAUlIUJmLEPMGelXU+sQhQHiBTqRKOAKGn9xzCWW4MyeqPUiOZuASQghioGXGkljEKbiCcx1sMizdN17a/BKFePJTACK2qYuJxUHTQ7lO0U9KCCOgY1DeVkX7KU6aPhhS0ZGAGptVnXkzEuDXEpCgiAAWKoYofDS2HShSAmykrhFjBS13hhPSPnUnCDixr1jGkYcVOJGTu7uyy3sFiq96jUb6+ge8B7bdBQnB4bALnRC3UO2P5HnrY3/vS25eYXSVXblOGUYXH7+hX7uZIrpu6sk2vaKBBnRofzPpRAMg0j1TEyz9yCVbABYsSBoXYBItvsC0WM40YF48hooqZxfGLRRzHprREGWChegJgGMtY5Bnc2HV8CDjCihuyP67BNOiACGmAFzPw+HxbOrcPFxLvDyxKAnBcKy8BgqGJSx1imfEsexaWl4TguKSWoxQ4irmdaBWeUMAEwcU1P+jrpuK6zirUzbSXaWc6gw5JXjLFrKPQgvVQnM9JbGYMTC9pqfQEYfIqe/VgDAw5nWt8AY7Q/TYMVQKVVj3RAZD2tlhxHekAa5q1tyPTK4BTYUEBDczOWbEfrnC6pXA+lnV3NnumjcIcWOsRjXhnPfsGKAWK7wOD8pHlcYh2AJsO969Ix3Sihm4AC3FSau5U6t0UQTnee5mPDhyADYycvWb+XVHkkKtWDGrZVJdaOuywYKVnFzaexgDJDe2e7Hc/NkzI+LDd1l9Rxn8NInEhfxm33Sx330ngcZXzC/vCXd62wtEyZEIhQsW7r6aEfp55LKGNvo0BsEYgxbitVG5m4kQyvzM8SV7VHqjrIMCGjAEkpqRRlBJikikofHJILq98YG6OX/1BiE6jkoE36tta1PT4+kLIEXOLGmQKhUEkUd6YOc1rpMpaAlHwAOIc0FNxhzLjA9Dih8ImYl2efeBm0g5bSK50PDks+NlTJNUv5GKfWh8dEQZXmLjEuKqpJqSkwKr/jmhJm0eySdth1dRVaL7VyyifETIFUEMvPP2aFUsIScVUir7OkOLFiCVuhBC6fao/cY5Sm0vKGITcYjOqogDzuAFL6SP0b1QHp4RYTGE8KxjzfF8NpxLKBHv0e32ViPGVGdy1TQIYFmA6YgAPCav0xjPVLwTjdnlTp6Tar0VaVtCQTC9AOABFkOnYGMsCSCgrSHuoKsQxYXJf2st7KR8dxjS72yehL2dPDS6T3Q9I5mcbtLCOddX6fa/Ax4llEG1yGgwQsd/lk1FP2dcstpm5RAHa20mtDlqna6FDcyL228x/4Mksdj57IEYwP2botOwUiMDKAsdRRarh136MO46ad9+uYR+2Pb79vJeUV1tEttdPXv1+qh4vaSY8Qumr1NAi+pgyMtMRhyI+4L8XDyshDQNEPxIJRkA7QflXwjYzIXZWxPiQIGR4kbFSwTkwMTNukIJyaGrq4nWKMnFHv7wiU4c4CWVioqMMl9zaM7XCRWceNZpRzzOtEpeTxIWHUAmAEOJZsk47qO6QCj8YqDmBmnTbEwAmEDVLLeqlmrdSvRjDWEBtWFVtlJV0F6bdbpPwOkHJVKxliQ+pXeFzqB5DHrFhwVlAwKm+yXJ5laQkmV7ZIQBZIIfM9ZiQWTIDEWL8YjDHuKRbDLnJMYrisuK4yHV+TGWqDNqh1ZMYMjAFWWMAYxvFVXOt/CaO3YeV430epbnJMmxQRJW2Ru+iQKR1wGUEcqNJgcbz/ro6Ja7MP+9/AGN5BAjf3CYz6TapddGyvoKCSn65TMzAGkMCo/8B9CN6Acd9+lDEpwFlP3AiQOx60TbsPCEoGqNpru+5/WMr4nhWXlevc//cwEmtiwAaAYYCYDSPpY1JNbHy83y0N5gVw/hMwzkDZfQGQaRjZpoCJ+T8w1nv7pI76D6hfwOjtglFGvBOBmE7/n8BYTWxYLoUrET8lYkZQ1teXOpB0TiC9qEhcyYCxSFwBY5VgZFlellgAWVSYa7MAK4DEWAe4GEQK6HBTQw3DAkbUkGPZdmN4Rt0M5uPfCLCICclU3ghcFoU5GJkft/QfwRjr2SBG96uLQRn9HIEjLFQvQHKwZF7iq3Pj+nHtADaAS8MY50cax3MuvzENIiWy3KtiRJq2+TmYl9pSbZJpIN5ScWkYlWlaO1rt2MmT9uDDj9mmHXtlVG0wvP8+WyNbp+11wLllt+3c95C7qQmMHYJR8aJcvm7Fi90CkY9Af3fipiYxYzKyODAmLYykgoq1gHGQ2KtfLiuDHAu8bBDTFvtCOVHJWGIBZjaMSSucZBiOgI/1tCVAJgoZIIZqXgzGnhSMwAeEQBYWKhnwXcwAsonS0wyQuKm1ihfprwtwgFZQcMQqKvIcxoYGulUV+ygXqCMw5ucflfIdE3j5roplpYXTMLKOy+owAh6qlw1jKB37cF1jXxhAoprAiLHuppuMrkuVshopZBpGSlWxABK4Akb3v3U8S85hXxreOD4bxoAm4MAiPcD4RzAGTJwT1419vb36yqaMtIsZx6dhjN9qJ9bkWlI3mqP5OqrsBT+JKqZhjLjxa8rY2aqYMXcGxp3AuG8axjVyW9dsZVaqnd7LP2DslDIOjQzYgJSlF+Xrpekdo8LNqONwfzLkhzcA6EuaxgHhsGKxZEqARP0CtmwYA8CAL9sCRtQyG8YpwUjJKwU9AVwaSNQyjO0AMI5Lw9imDx5GKNAtGHFVgRHogMtjwoylgUuns016qGTsB0pXSIVg5HFgy8s75FZWdlIuaok+wBVaJh3bQx2BMS/3iNzRHKmgWFOsiCJiHjuGMgaMadBQuGwYsWjBkoYx1DFc1gZcUxlfh38EIxYwckyUrlKQQzrHRcudNLzAGEbGvxhYYWk40nYpGAMoLNL/tzDG73hVAtfJxF10Y6JQ6WIwAiKFOTQWpwCnQ+fz/7t0bpsX4OTa/Qeo2sBNZSq4vwfje1ZSIcC7BYxgdDevH8XDFU3DiDr+HRiHiQ2/rnppINMwhouKBZwXg/H06RE7LfcUFzUbxrA0jOxnmT7m78KoGDJKhFHBNFRYwBfKF2nZMKaBdYVsoDc/46EyfMaFMDY1UVZSdlEY8/MUQ1I7QU2FAAwIp2NGYMTS7ue0yslIC1WMYyJ+DBjDgJI+hBRaAKSXMmVULtzMgBGw0jBGyWq4pp4ByeTKxCwDRq5DJk+rXDZcZPw+SgUpxtd6KGRYQJwNI5aGywHKAvGfhTGM36YEk/vxITSIvQQkzfSoQvESU1zSTLxIQU5vV62D0t0pRdX5DJVBSWFHd4cdP5nrBThrN++wdVv3KF7c6zHjuu24qA/YWm0HjBTglFbq2j3A2O/K2N/fZgOKDfsE4f8MxgTENGwBWoAZ0KVjRNbj2IvCiIvqzeESFzUKYyIWDHVMQwl8sT+Op9oFAKn3w6IQxxsspFzUgCobRBSPZaQHkOlzpo/NwFhayoQ2giz/cEoZyz3vU4iDqwqQFOTk5+GqnnAYEyBzLwDRYYxYD7hYRqyIRSwIgAEeaaGapLEdxn6UMUoQ3QRiQBbqGAoX66THfqCL5nOAmIaR/VwPCInF0u1V+S2gxMUEiACSJdukhwFJejsNcdoAzyHKGNukZ0MYaQFj9rU5jw9DP6V7uE4Csg8g+Z9U8rdRkppUa6CKfd11rlw0WSO27NG5AwM93g2KmHH3/ftt1fqttlrQrRWQlKZSgIOtQym37LJd9z9kf3rnAyur0rUFI/V4xH10LB5UfNivWNFh1O8QN+KqDgnIIRqPMwQH8aHixWwYAyaMgpg0lNmwsT8NJBagsu8ULqqMgptQRcCKwhks1C+gjGPSBoiAR6wYrWIibvRCmo6ZklQs2/0MGAPIsAAz9lOAk5jiRsFYIQZKSig1PeYw1tYy+FqZ7yNMizGYgJbS1JJilgmEaRjDppXxYjACW4DqqlenjK8lx6RBZD1gZbBiwAjVArK0ubJlzF1OWezLVsQAkTT2ATUFO4AYMPLHMb5GaSADLiC5GIxY2tWNGDFAxADQIcpYQBnXDRBjO2DkWmGkcw5VAgGjq+O0Ms64qShjwMi0cL2CsRdV1bnUo3X3MW7qSdu170FbuW6Lrdq4Q+D9AxiljBTg0NKEesIeGrkLRmZHTgYvTmCcATKB0fs2okwCkrpDXFGAA6bpeE8WsAWQGGmAdjEYs6HEADFUERADRrbDHQ0o08eEZcOIMnr1kdKixPRiFmp5ceAUMmUAZT0puCnPmIATB1RtUK1RXHxCy1zlQ6o3St0jRBkxoKTUtUyCVlZKnEgdI+7pjIs6DWMU3BALooCheCyBEJcUAzqqOgLSNIwBL/up5A63EQO6NIxpCyhZB7Q0jKhjxIuoJ8cAIiWurAMRQE67w1kwhtoFHGkQOdc/FCh25qMRQKYB+9/AmLbYn4bxQjdVmaYt00sjA2O4qb0A+T+G8QHFjHtszSbc1ATG0opKa2O+yV7cOO6xUf+FdrX/92HMVs+AMA1qGGlh0TLnH8HINpZWxTCARAlxT1lyDaY/9yFDBCSxYzRiwFgH1HBhUUmABLoAr8brExOrripNmbzD6iioxB096TDW1IgJqSP7ojaBY1iiohfCmOuuaT7dp2TupkZlP3WMABkqGYU6AWuAGpCimK6EGcWMmaWYmIaMPZ35ZUB2MSgDRkDE/UzDyBLXNGJFjqcBATEoMHFtIAJA3FRUErD47UuB6Pej/ZzPsaGwASPHB2RYuKlpGMNVDWM7Oy29L84HRo8Z9bW+AMYsZQRGCm96uuo8ZnQ3lWsoY3X3dtuJPFrgKGbctF2x4S6HkQKctYobsdXaXp0FYyvTolO838lHoiGBUeAFhNNGqapPKyAXlQ+AMjlxI8uhwaSQJkALC9jYF4U5adhYD0gvbuyXG6qPzSCw6bcSo1WPIMwYaf0ZwDhuxmb2x/AgtLoBbubBpHoGEAEw+S/6DaVFlUe6rhEg00p4cRAxCZLyPQJAZT8wlpbmCMAC3wZEVBOPjbzJcWwDIyCGq5qGEXMYC3KZ4CaBMQpoAJAS1ICVbdJjPzACIj3lvT9gxtIwesZPWcCXNiADxIAx4sVsGDmWfo2oI+sBYwCVBjFUKhvE6Xvid7NgZB/nxLlYGqi0ZcOGBZRpIz1AdpizYZRKJTHjhQU4aRi7KHHlw6DM09XbZScLCmz/I4/7DFMbd9BQfK8AxBIgA0bc1Lfe/dALcC6EsVEZV3Ej8SFKeIElMWMaRjIuGZ2qDUpUAQwA0xBiQBiV/qyTBogB6Ax82ZbASGzqKpwxAPO0TDr3gZqxDKjcOFbxNPfIfoz0MfpEjg36ucDp/yNzLsuA0Zv5ZQyFpJAmgJyp4J8BkZY3WK28QEADPkBMKv4ZtBvXVKIlNQxvDaGga1UaxnTLm7BZAVyoX8SIqGLsi5Y5QBhA4qZOqyHtULWOm0pzuIgZ3R2UpYEMCxhRRaozLgVjLEMdvepDS64ffzTtngJRABXwBYixne2mksbxARnrsR1Qpe0fwch2GkIHkeMEY2JadyD1G5mmcF63KEvDCKhez0g9pTJLR0+H5RUV2aO/etp27DtgW/ccsA0CcNWm3bZq8+6vwfjn9z7yAhyqRHBTqeMkZhwaAjZKTv8HMDpQieqF2gEZiu8uuP4jyzSQWBrOi9vFYfSCI5nPYynjPgI2IApjO9zOSOPY0ZH+aRj9P6TsYiBiKGQU7ASUF7qrUrnacoE609wTGAGxqOiYu6rV1aijQj25p+yPDz7wJhX+Sf1iuuVN2KzsukNAZBkuatQxsh3uKa5qxIhhqCTm04BzE8rkAVwAGC5rGsa0MrINfAAZAIY6Ypzn19U58SfTypZ2M4Ep4Asg2c8yDSPrpAdcnMt2NowBVRzDfpYBYAAa58R5aUtUMQEXGPsUD9ISxuGjblHWq/W+brpokc4HRM9L90wLHBqK5+Tn2yNPPGXb9tKpeL+UcZ+t3LhLMMpd3faAw4j7uvuBh71qo7w6KU3tQVmlxpSmDg8z+BTj3qTVMTO6eG/ST3NA9zuAW0gGBkogo0eHlmno4rlEWgAYkKaPjf0Xwim4MzCmFS+gZD1gS8MYAAWQLHE5MdY5FyCzYeRaYXEdILxY/BgKyTKMdPIgXQRxQ2kGF8rIEiAp1ImR7BEK8igFmxXltLgpkCWtcLB0xf+sUDoMKAEvlDBgZBsYATFdYBMFPSyn4RSIrlTK5MCUBjBtaUgBMuBNAxjnp43jcT/TigcYAQFLYOKYOA5jnX0cC4ABMucDFftYxnlxTSAiQ0WmIy2uG78d54eRFhbAOsgCkWE0OKYXQxmlgD6Uv1QQEGmilsy10eTj1BAzttHQXRmlpb3FjuWc9Ep/em1Qz7haiogqenO47UkBzrpte2zv/kft9T/+2WHs6e9NCnB0L161MdiqTE69YrM3g8MoyHGVZrhIKTH3hopPwygQeRZ+75n/kw1ZqCbbHBuQsowPUqQFjPT6GBM0wBjQ8ZsBIbBEO9LYFyAFiAFXAMWS40boGpVR1TiG9QCdc+P6xIzRNC5dkINCRn2j1zXSeb1V+Vd5Fle0rAz4xFCF+BGMRd4wXN5kkTxNAYmr6lVwghFlBLwAMprDhcvqMEaBDfDlnzzsBoCASFrAyHHAF6WoUaoKiLipuKvebUiZHGjSUAV4YaTFfrYBMg0jCpmOG9NpZHKAAIY0OAFTGkCOYR1AyUQcC4zxxQoYsTTEcc10hgrQ4jfi9y8GI9cKhQ2geyNmRBnJ0IItKt/pudEnMKO9KHV+zKEItO2K9YCxua3Zjhw/YXseOGBrNm53d3T1pl0CElW83zbsfFAg7vOG4owm/uqbf7Ryuam9gpGOte26H9zUPikh9Yz08k8q+xn/Rh+WdjpA05cSN7lR95jAmBTkCIC+xCvgP8Z/SgMJXMSSF4OR/+z/O3NeAiIFPYo/Fd8FHACW/Ga3b0cVBMCwHcoZxwaQWKgcaVyP6wJkGl7W4xpsxzmhjhE3oohAyTb7ooCH/o51yutAljQUT9QQGFFHGgHk5h72NqvUL1K9kVR1yJ0tTtzRpEkcUCbqSJoX4KCGgAhswHcxGFnGcWkggdBH45Zk05eQPoQMo3gxGLMtDRfbwBjnRNyIsR4WaWkgwgK6cEHDdU3DSCZiyb5sGOOaacBCASIzZR8TwEUGjQzHOmnZGddLA/uUobT08Un722xQcRruIUNgAEQaRqoYgJYqCbpQtbS12JETF4Fxk2CUKtKNil4cG3fscxh/+8YfvACnu69Hz5mmYtwzHxq5wDKqNqIklQ/BDIzUcwpY7tUzbqKM2TCmYcOAMJQx0tiPcXz6HGAcHRUwFAb9D2HkWKACpLAAi+WQjhnXNScZ7lEwBqjZxwaArAegbEfcyDL2cw+4qbiaJeIA0MrKFM5llJESVeJGGo17l6liIFXIJ3VkSf/GfDoY5x5z8FBCgMRNnYYR2AAxYIzS0wAxYkpAjHgxYCRGpACHDrveeVdLnwpcRoZ3OLIsAAXCgAwY026qq59e+sUsIGGZDSQgBowsAxj2sQ5MgESsCIgcF5ByPdbjnAAxMhbHkB4WmZJrxj1FBiTTBZjp61AUT93d8JBUwY0RvJNJUpNBoWaqGICRORQHdG634kt6m1NfiJtK1YbDuHGn4kVsl61xZdzvMNJmdc+Dj9jLr71pxeUVHjO2d7ToOfAR4VnUWjexaUaJsd5OPQsfCOtCGAGD2JHWO/wX/mv89/h/rGP8b/5nGlDWs+FkO9xaYAQcCmoYOJnhPgZxJQUG29QRuusJjBnQ4lhmygpjH2O9ks7+CWDMFOAAX7YBItdlCaxeWJRRUdIBEdc0XFfUkkIcLxFFvAQiVRhJPSIV/FI6r+KgzpFSVXmPihlZsk0n45M5hy3n+GEtjzp8uKdRkDNd6R8wAh3bASFpQBgghhqGe8o27inKGGOQ1usGanWDKA9qFwZoAVsoYxpGCnCy1THbHEa9dF4qLz7gyoYxQCSDkHE4JtSMJRBirHNMXI9jA67IWGQaMhCZjn1YZDwMMEmL4yMzxn4sMqGDOEwlt+IkuWfjUobxkU4bG2L8mVTpZj/1fS02Osw5KJIykDIJLWloKE5/xtWbtnml/4oNmBRSMaO3wPEOx3u9AOelV1+3wpJSuaidclGBERec5/CPYQw3lYw603JoBsaweCYY2xxzsf/OMoxtfx56tlSPjCtmHKF6AphkzPWRzPeh5y4YY5ZoRh8gnSnZGfU8RrHjOLZj34gAHAUuoFUa/yFtwIjipWEE2ijwQQkDQFxVXFaqNZJOwVK6MkpMafpG+QjtsGeApK4RCIkTMWAF3DwJ3PFjB+3okc99mXuSPo6COuOqopLTMEYhTlhAGAZ8UWrKOnBike7xohSRGZ+4ASrnoxdG9MQI9QO4UECM7TSMAWu2igJjj142LzTgCNCyjYwRxwWEsQRW4OWYyBRAxLGAxjLS+XoHkOlMFtuXgjF9fGTAS8Io6EYGGJ1tBkaqHsaG9ZUf7jI6BVPp3yWFO5Gbl4Jxu61YLxOMSWnq/baGRgDen/GAvfDK76zAYezymLEjU8/o/RkFYLS+YdnbkQWj/pcXNum8iHPpfpWGkP8ezxWLZ8EzDOO8eAbxPuK58EzcXRU0QBQwApZPMQA4KRhZj/0sGaeHJRAGgAGqj+EDrNofFgU4LNkGyHBDA8iAEVUEQtQwQIyCl6pK6hBpaELsSLM4XFFcV1zTZLZuYkqgxE2lMCcn55AdO/qFHT36dRgrK5jpuyipZ0QFIxYMi0KdUEy2QxHT+yM96hwbveQo6UZF07UwKuuBMlQyFBDQgC8NabaF29rLS81kcrbJAECVnSEwMkIAQQaJfSw5nnX2ARoZAojILKSxDLCSQgYBpGUcF8DxG1yP63Me6QF2/HY6M+LueWsWuaijw3LRRrodxNEhxp9JqhrcKOkcbBWo1JcpkwrIIR1PC5ycvHyHcdXGrbZywzZbvk62foet3JSUqFK6Cozb9+y3X7/8qhUUlzjEXYx9St1mLy4mQ00mBTjAD5CU5Hp3rrbMgM1Alcms9MNM4JpRxHiW4ZXEOyA9jsE4L/5/wBj7WPePFAVEGYACsICNadoDRtZRwvRxnAeAgOhqKJhI51imeef+0+5pQBlAAl6oZPLhSToiA2OoIkAyXEbUEVaUJ5X6iYtKC5xcxYjHPWYESABkP4U3xJbEkLknj8g9PWI5DOsvVzUvV8enYKwoL2bm4iPulgJV2g1lGxDZF/FjwJeGERVlO9xVWuBQokpd4z8DI4oXChlKeDEYUUTquhj8iPXsjEAmSFvAGNAADOmxJDOQSbLhmQZH26QnBQ1JtyAsCig4LiBPw8jxoaRktiQTZ+IrKQyuH/EX7ueoYkYH0Ye8SKoY3AZlcl2BcUzqOcSHYIRpwHu9BQ4wrly/VSButWVrZeukjgGjQAwYn3vpFcsvKnKIe/qSMWKo2rgUjAz/QdUGzfTSMHYJRv4jowTwX3h2PEOee3gZ/1sY/VnLDQYulG96NPOMAVXa0jBiAWMA+TUYtfT/wHbGQgkBEvhIwy3FKKiJeJFCnKhzpPIfIGlbWoxIyfUEOuoZk54bVGckMEbBDcdEFypiRvox0qcRVczLPTENY/T6n5V74qAX2ABeuJ3ABWRASKlqtMJJKyTgssTSVRtMw028+D+BMVzQABIA2R9K+TUY9YJ5+QEjmSBefGQWlgEULzy9LywyCcvIJBwT2wEYAEZbTMAkjWP53X8WRv9tFEauH43FKZihpYtXvn8NxlaPIycyMA5fCkZAdLs0jLTYAcbe/m7dIx8c7qnBq1SSKcQZzJiYMYGRukYfhpLhNzLKAYzJeEEXwsiz/2dg5BnzbDCeU+wLGAEMCAEoG0g+CH8PRiyUNNzV6XiT83VOwBZwsU5aqCVKSDoxYtrieNZDISlNLVPMCHBJzwypZalEa7rSP8/T2McxAWQpoZ/XM+Zl2qQmfRqJFcNmnTj6meXJn03XJQIi4KVBDGUE1GiTigFhuKi+LQj/kZuahgwLdUyDyHFxLOnA2qcXB5C8YF58ZABeLC+ZFxtwYQEjy/Q+MkFYZC6AwiIDhXE8gFHqFzByPY7l98l8HEcaxwWM/NbFYExcPmVCXdf7DXrD7BkYGRhqbLhdLmyHTYzqa+8gYv3/QxgftGdeeNlyCwq/BmM3fSUFIENvACIFObT+SZri0ZeyWYqDYmWUQ/ccHx3/H9qfDWMaxOn/m1nnHfBBw3hO8bx5PjQNxAVFxbAe3EVZL7BkwLwAxq4LYezL7Oc4tlFIgMQolUUVsxuBo3QBZLio7GdfVPbHcRjrWNJ9KmkSR8yIm1pRke8QJiDKcxSI0Vi8XPuAEVeV4RurKokNqeSf6ToFkCy9auPooY8tG0gsVBEDzDSIAV8AyDIKcOoV0HKTBK8A6Qagl4AREIGNNKwF0wsOGL2KJHMsJanEjahkvNB4qQFbAIfF15gMkG0BJddJXysyUhjHARcZCRCBjd/g2ACRbdIjw10KxqRAhLSLwwiI4wJxYrRT1mXjgnEEuLnu6ID1DfSlYNwiCLfY0jUyxY0rNu4SiHtt1WYaAey0rbvut6d//ZKdVIxJ1Qajavf5oFIZGLuScVMB0VXR28cKRrmpX4NRmbWtfaaulueVhpGPUryHMI6LtIvBGNfiWXTgHlKN0CJAqGSXdQug3g69b0DLWI9v69l1694UA2MOo9KxPu0b6tVvDehdDcqD0X/2e8+oImBFszbcUGDEgBX1A7SZBuHKtxkwZwBMAG1tUR5VviSfo4q4p+GiAiMg0mUKCCm8IWakOqSyAnf0QhhRSeJHqjtmHTn4kR099NE0kMVUWMrSIKarNaItKhaqCIgMX8+S5nCAGEC6pYCkRNUh44uqlxhqyHaYg8kytc1xABkvODIFxnoAGPswh1Mv35eygDMATVdipzNR2gJqAEurXuyP6wasASxpnJu+lpdK8jXHTVVmvxDGcE07bHKs221Mbuqwfg/XfETKGDBSz7hi3WZbJhCXrJat3WbLN+z0QpzlGyhd3Wabtu+1Xz33gpe+Mm5qrxSDUtmBAdzEgDEBEVVMBsBi5qtaqQwT+xBXJfFUO0NZ6D2gfvFf0jBGejxnnmP6Y8Wz5vnwXNhPOoN0MVwl5pMlNQrqJgEvILGuVp3bLoXMQIaxHWkDAnJQMPZ36V2k07U91KtnphiZukcmGAI8RgMPlxNjciYUMQprUD6Ui7gQcxgzipgopcSkocqbxHFuAqNiSMFIvIgBIz02amuTPoxl8jALxRAtcgolbmWlUkrqFTNqGIpIDJlz4ggwfmDYscMf28njn1tB7iG5prTAoWAnGdAYNYxqjSjgQSVDKYHQR/VmAOGWWmvyMULKpgckdjAzQHrLlwyQrpC8UFmA6K6nXhYvGAPCsGwY44VjAWY6jWMCMsAgUwRYWCgkGYT12OY8LPZxTrZFxmOdTAaE3ppEdjEYuYeoRPcSVRlD6Q8LDixgnJQqnhrvsSlZAmNy/YAx9xIwLl233W0Jarl2s63fsssef/o5O3Yy12Gkpz8DUg0N8R8V4xI3ZlzUpCSVd8hI5oKzk/lGACVp/dLSrHejj+2lYGSd/xfPkHXSOJ73wXPgP2Csk865XR0oYKM8K+WHermOArKjWfkoA2N3W6KOaRhJx/rlrqKCAMkxaSDZh5Li9rYJwDbBBnShhAEhxv8DTtQwqbpI3MkGQQi8nJsU5ihfU49en6nuEAdRYuqdi8tylV7k9Y60QmuUt1ijY/AyCyVuwFhcJI9TIBYJQsyVUTDmCcaTCYzvC8QP7fixjyzn+CeWe+IzAfmF1PGIKD5hlfKDa/SDDFSMsV6lwBSrlRw3CrJ0czjmsABOhiVwEHFXZVSA0uoF5aRwx1+iXkY0umUkcF6Qj6AN1EBJ8y0gzJgP4S/zkdX0kqeH1u/US6NHQgY82nMyAluk9esrj1s4qIwyDASDggGocNukUOxDqTBiKr8G52UgBawAODJVbEdauGGscx4ZNj4QKDDXcQAVy4wO93lF95jgGNaxw9o/Khgn5KJOjXTa5DANAbgffel1b9RPDg726Z56La+gyB586DFbvWGLx4xL1mxzW7Rqqy1YuckWrtpoi1ZvtNUbt9vDTzxlh4+f8C5UlKaijMDI6HC0Te13ICmwEYwdjGBepXeY1DUyKl0bCqAM6bOK6QPK4M+8jxiFnXfg70fvinfJNsY0CmRIjuf98B78Wcp41jwbpjMHRqbEa+H6PgeKYAQc4jlMipxYuK7JEiOu7JfLn7ipulbqGLa7SROMXqKqY3uJNZn8Vc9hQMsebbcL6maBCHh1ckUraOpGSCYFY2iNRoEHhG1McKOPEa3LGIq0oozqDTEgFhiwu075HA+xibDNQ7dKiRfHMu5woa6Xp+sKwHwBWUgNRa4V5+VYbo4U8dghOykrkKs66+jh9+3EManiiU8Eo+JHreed/EwnHdaPHpcRL56QCgIfakgBD/Fjvn6wRA8xmWQ0bcSQKCgtcYgZvVEAL5Pmcrpp0hnlm5fEkhfXzYsRaBzTqgfQqiX7XHEDRNZlHIslk8Yoc+jF4lbRBy9RG4EGZLiDMtbDhqROtAtN5q5P0nxuCQyAlVHSMIbyBWzhimIBXxhgAh0AxgeEda7j1xiS2glEmmmdGh8SfHJpKQXUb44qk04JQmxMYFLSmTRLI+bq1TV6lIl7rKCoxB5+9Fe2dqPiRMWKFN4sXr3NFqzYZHOXrrN5y9fbwpXrbYViyv2PPmEHjx1POhdTusj/HcR0/Yw6MrxHTwpGJvdpbaazNi5Z4tI1CxQ+uBjzlDAnCc+sX8+IZ8874wMcx4QXxTrvCZX1CYj0fP19AKXOZx+eFOdH3vE5UjLvNTwt5tyM9AQ0nk0qDzDmTSZvYKSxj/lTeH7EmP0M5Cz3dUQftRGeZ3eH7q/OGmrkggpEXOU6AYg3WKb4jtAMz4//EveG8CBC6So9ugzyP/l4tOMGC+xaKWtVebFVMReN1rGKknwrlAKWSg3LivOtSPAdP/K5Hf5cIeLhzyV+OTbr2JH3BSIAfurLE8c/8vXiwkMOY2V5jm7umC6OQkrC6aslP5llnWSZGYCjICdtjfoTlKxibLe5+ukrq2MZQY6Hy8sBMl4GL4t1Hj5fIdwi1v3hKlPHy8F40Fj64fPCHUhBNpyBjW0fGTsDZZhDmYJxgPo/QETFWCqT4U65mmUp38WATK+HexouMyqA+pKewNgvEIftzMSITY4M2Aj1ZIrNxnQ/p0a6ZV02Nqh77FGm03+jKH8oBWNhUak98thTtkax4TJc1JVbbeGKzQJxg81ZkgXjY08mypiBkTau1DMy7Eb/pWBsrdKzp3uZ3qkgzIaRTBnPm2cGCIDohXgyjvH3r48u79gnF+LdZt5bAMl74ToOm+zvwUjeifO5Fsv0MdlGepJHKJ2VhyL3tbtNXhLxZB/eSI/D2NZUr3yq/yqAOgRTm6CvR0BSoRgwMk8mLZLwGNhfKZe0SuFbrWLLRoEMhLjIKLrDWCEYy3S+lJZ1h5NYUS5pmVSxXDAWCMxjhz6zg59+YMe1LKGn//Gj70suP7b83E99mSMYc3M+EYwHHcaqCvxhLSm21U0AYnkJw3OcdDi58YglY90LdXg58ZK0jAfNy2JfvNR4cB6jaMkx8WKyYYyHnzzoBEaOjxfIi8qGz7/gWWnZMGIc426ult7SJ6WKaeULOIEvYkQsPfgSx3A+UIbKsk4j52wYR+W6jvZ32oRc59OjPbJuKaY+KIKmT/+R+rLhIebJ6LUeuanA+KhgXC1VXCK3dNHSjTZfIM5dst7mLlsnV3W9XNaNtkrK+ZDc1KM5J32uDfozAiNdqKhn7MVF7aFZXBaMMmBszoaRd5KBMQ0M74h3HO85wGLJ+wA+lvGeeG+kOciZ8+Oc7GvzfmN/vHeuFfvS7z9t7Pc8Ihe1s1Vuc7NAE3hdbfqACEgUEhg7WohXa5QnUV55Mowsp//ogiEIyc/8Jwq0GAGB+tem+rIMBxInwdZQLVVVrEuci5vdSOlrBsaqMoV0pYWuihXFeVZeJBOIpQKyIOeIIPzUlfG4lBGlnHXi2IeuhAV5n/syYCzMP5goomBEHXFXiSFLi2g+J/dVMOKqEkPyBYm2qpS68mWMhxhf0zCHUX8wFJSHB4gXgxGLFxEviGM4Nl4Kx3NMvIT4YqfhCwDT5gqacWkDTGJGjyEzcWJAh/0jGNNAopAcEyoJjCgkVQWjcpMmR4cdyAnFjX8XRv3HgHFQMBIzTsOoeHHx8g22QBDOWywQtZy/QtsrFTNmYHz4iaftWG6uVJF6RuYopJSTwi25ml3yTFIw9nTp49ghGJhSgMI1CtkybipxE3Eg5QHxTnjeWGTe+ODGuwroeB9scxzG/jSkbHO9eN/xHrHYx3nZ+YB1LO4jbexPwwiIrY3aJ/h6OnBbO9yAE1c1YGSJkGDAGC4qc49Q8k3BVj0lqMr/uLO4qsxL2lirj1F9orDMUeozf9OgXAAyp2mRFJFlleBkbtNiqWDuiUNSxk/t6EGFh0cPKmY89nUYcVWBke3S4iMOoqtj6QmpJWPlUN0xA2N1RQIhN0bJK18TXk48KB4kf4iXRXq8PADmHNaz4eL4eHnxguJFpF8y66TzouJlxYtOK+DFLEAMGMN8aIkMcEAFXIAXgKVhJC1tAW7s41hcXYB0dxWw5CKNSx0nRwe9+dawAB1RHDuu350a7vKYcZwxapgTYxpGhqTolXL3WlFxmT32+NOCcZtg3GgLlgrCJRts3jKtC8SFq6SWwLghgZH5HOnP2D8oN1fPBBg7qOBPwZgYsSCtcJSZKURTbEh9mhflt/DsE9cwMnw88+z3xPOPD2IAx3G8fyyOSe9PQxXvGYvz+GhH3uEY9nFc+ry0RT4BRoBDGYGRJXD2dlLa2ubrpPvU91TuK2YkL+OihofHPaCIWKu8BcKz4gI4OO6xI3ABJNPoY4AYM38TBwJZnlSwSOtMLsx+Jh8+efyQx4xY7onDl4YRy8+VH1t0eAZGqWJyEzQMoC3r12Fkma7q4AXxEGPp7mvm4VJ/SbtYlJQHx0uJl52GEeOBxEtKwxjnxIvB4kX/b2Gkkp1JQAPCWKbXA76AM62YAXHsRx3DZaXea6BHv9mv31AcyHJI8WLEjJNDnbIOGxvQvffKW9B/GUzD2NdnJaXl9vgTz9gaqjFWbLKFy6SGgLicklSBuDqBkRY6Dz3+1DSMTD5KM7xsGMN6e1BIQJE7SEl2qjSVSnOPv1LPm/fEewljm3fDe0nDSBr7s2GM0IFlXDdt/Ab5gLwSYRD5h7TYH/eRbeznd7nnbsWMoY4Y6gigWBIzKsajkp9CltKkcBIYUUV+m3tm9unmhnKlS+0UomFJ+QmDtyVqhzEdPzN7Y66Igg7I8k/CzclpWEkHQIBkyX6HEbcUCAvzv3AAUcWAMSlRPTGtjChiAiI3nJSuJlUdCYwR8MZDZ8kDBKhsGGleRyMDzuGhxgPmxXE8x4XxArheHMfLC0se+oyRRibgJYdLGq5q2mJf2hjSfkywMRI2LmeAFyCSFulpEAEOS0MZQMZ+V0jBiHtEzAKIw306PgXjxCDWLreVliQU3dPbv8tGhvpsaLBf1xiwsvJKe/JXz9naDTts6crNtkjquBAQV2y2hatlAnLhyg22fO1m2//okx4zdvdSsATM7eZTiFO32F0vpW6Ytr5eVFLGlAIeoyvjSg0BsYMqgwyMPON4V/FO0u8lYAzjeI6LDyvrHJeO4+O4eH8Y1yMvkG/+tzD6jNQpGFHBABJrbaj10lQUCzWrLCtQ/k06zJPvWCbuKsoHcHQnzNH9FDuglMK6S5qCEEVMGxCikBwTLiwwopZAyHpAewGMoY7hpgIjcSNAVkgJoxSVG+OGkptM5t7ARU3DyIPn4cU2fwwIeZhsI/G0e+UrlH6QF4OR7fj6xoufeeAXukUBYhjb7M/OKNnHDwKFVHJyYsBOnR5x6AIm4ALG9MC9AV4oYGzH8QFj7Kd3v/dOEIyoIy1EcFGHlTYqG1PcOC5gx6WKo/0tHjMOC56x4V4bx6UdGdJ1hq2yqsaefuYFW79ppy3NKOPCZRkYV8nkqi5Yvs6WrdloDzz8uJem0p+R/pBJnSruMgVDNBJPGoq7eQMAuk4BFSbolJm9chx3LwMLloYh0ni+sY7Fcw6w4v2yTlr6+WPZ74VjuH46H0X+Sf9+XDfyRtwT518MxnBXw3VFGWvowuSwlE7nK/Ibv5d0iKBcJKlJwBtsaazQMQ3K01UOMucGeGGACeAY+zkuYAz3FQjjPNZnoYIBYwCJFRUcdDcVGDHc0lBDQGysw6dmeMaZLlcBI+DNfFVm4MR4aDxQ/iSKynHpl8VDYH8ayGwY2R/b8eLTLzYNY7zUuH72C+N4V8p/ACNqeDEYOS7SQkkdviwgXU2pvPemWto3oHhUruOY0iZkk4J1QgqKMlK1MabluNKmxodsanLUJsZH9RvjVlPbYM8+95Jt2LRLbupGm79YMePiDTY/46ZeCONjdvjYMevoajdGCmBArP4+PZc+YtEExujp349aMkqd3NSAsZuh8mmxIhgpaeT58a7SMMxk/ATGSIt3kQYyMnq2sT8NI++Dd8c2vxl5h/fO9dO/H+813m38RnJNQS0Yu9paptWwu5005QsZ6x2tjcpjNcqnjOVEfJh8CPi9GUUmT1OwQ1xIA5iksQv7gQvwACxUjnUAA7REcWfiStZJTx8zDSMqiEsaAAaEGAU4ASOlqQEjN4MqYsAYYAEjN8gXBcj4omGsx8MEItYD2HjBAReWBjKMtHj4kcY6D56XlgYwjJfKg01fM36H34xMwLGJmyo3cazfJqeGHK6AEQugArqAFBCZcyJc2zgvgMSmz6PApl9wKv4bk+s5gUn5pmSnRlgCpdQRowHASJ+dPTVqp0+PC8hx/dak1dU32XPP/0bKuMtLU+ctWitbb/OWZgpwVkgpBePytZvswUekjIKxvaPNGEPHh773yVKptAdEuafEjg4ihTdJf0Y6F/Pl9069F4ExDQHbPEOeZexjPQ0jlobvYsY5WLwLjHX2cc00aPE72Rb74732dQvoTuUB/X/gYz08E4x1WuZ0tkk5FRvzHzmXa5E3ARExaWumFJh8KxVVrEiohruKW4vqAVNh3nExlBjrAWWpQHVlFIxYZQbekpSS0iqHAp5ZASKqSEV/WclRgUfLm+OKExMQS4uVppiRusaQ6lBImsiFqxqlUAEjSwwgQ+EiHSjiwfHnAYWXGw+VJdukx75IT8PI+fE1zTZeKPviWizDuFa8tACX4xkoigKctMpFTBhxYayzP2AMIEMlA2TOZ9tBHdZ1BzHFniOCXjY1JiWWnR7tE5A9Xpo6gdEAQB+Gc6fH7MyZCTs1NaHrT1l9Q7M9/+uXbf3mFIxetSF1xGUVjItWrLeV6zbbgUefsCPHjltbe6t1kumAolvPHJfUQVSMGA3F22KKATIeriDPCLWTOipeTOrhZt4B7w9jO6ALcFgGhPGMWYax/1LGtdIwcjy/gaWPi7S0kR6/x3X69fFJwNM7y3gkUemPsc7+nk49H8XFyQcnEQsgBEbyKs+iV+47cSJxY/7JgzJ4EWxSvug0nLZkFDiBCZA6hrn8afPK0sfSQU2BWPvdUMZwTzGUMKnozxHF1C/qC1B63GEspVV6po4xSlP5StRUJjACIsu0mwqALAEUIPljAS6A8cB4gGng4oHGAyctLEDiYXE86zx4XloaqLAR2qBK7UiPDBMZg+vHdpw/yPk6PiACKAzwKBGNyvtoEMA+oAW0APFiME7vHx2Q4iU2IZvS9qnxQTstOyPwLgbj2VOCMaOMwNjQ2GK/fuEV2yAYlyzHTV3nVRte6b9kncO4ZNVGW71hqz38+K8cxlbB2CF3rV3Ps5OqC8HnnYgBMTO1QEcLLUmwShkFcHgiZHye14XKlg1jPD+eZUCRfs4Y6xczjmN/nJcNI2nx/uOYOD7bSOeaCYjkB12nVx/Q3gRAPBIABEwgRCm9VJVmbPWEREme4r+Tb8nL5FvqXVFGYkXEKBgoK2F0twTG9ESorOeePOrGOh2K6QkCjDRIjyE8ClMQc9zXYARAQKypSir7A0YajlO1cWH1RtLHMWCML0koF8afCrnHouSVdF4ED5l1jmU9Xki8TB5y+mVgAW4axrQaYkA4isrJAkrSA8ywyEjJuhSW8wVawMiSklBA7KIhdLe+urSmEWgBKsuIHYHOXVJByrkY21OTQ3KBZ2CcHBkUbIA4ZGcuCqPcVKnl6ckROz01JmUUkFMJjC+8+FuHkXrG+VT6O4zrbM6StYoX19vilRtszcZt9tivnrGjJ3ISZdTXv6ONZ4mbzpweTCUgKOk6JUVsb5Y71oTJa5E71kEGlBqGOgY8vJ8kwybvhLQ0PHFMWDYo8b7SFsexTL8Tjo33HfDz26TFMn1u/EZcYwbGC5UwIKQQp6WBJm5UW5B3q3R+8oHmv5Evk/yMV8c6aon3V2yNWqchePTeTwYmlvuZWQfKgCwbRpZAzDEBLcd6zBhxI24qrilAhpvqqiij9Q2lqQCIsZ40GE9a3WDZMKKMbMcXBuMYjuWP8kCxUFAeeryQgJHtOI5tLDICaRd7uRiZAwjDskHkmIB3Oh0YpXoBEQZsASINv1mmYQyVBL60q8oyDeapqWGHcWxILqqr4pBAHLFzk8N2FhvHVSVunIFxYpiuVIJWMJ45PaXY8bQ1Nbfay6+87jAuXCo1lJs6Z5FAlEIC49zFawTnGlfGp59/0TsXd3Si6vofXTRB07NrEYwCkhHheundD5AtQFiewCh1DBhxT1n6O3DXNYErjOfGM+Rjh/Fc453F++I4tknnWfOBHNN/43jOJ51jOJb3mX73pMf7DiBjnSXHxHHxmzPvVR+Ibt1bnzwYhQeA6IU2mbpGls31FNSQL+l9pOfhv93s1yI/Jh8CjPxMXqacJCnArK8td7CADbgAE6P3B+neC0T7UMHoJwmMpAesgHji+CE3r/RPV/ITM7KkOVxBHgU6xJEAyoSpSZyIewqM5SVU/F/YPhXgACsAA8a0kRb7eaA8RP5wNowYDyYeNBYvyjOGjDQefhyfPo9MERkkMkmcH/sjE7GMc+lmFfEiwAFbuhdGGkZgZT/G8cAXCsnMvcxZz7XYz3J0WKZM4TCOSREnBONUxiZQRynhaLdA7ZJydnlpKrElpannzp62M2fPWHNLm/321Te9NHX+YoG4cI3dt2CNA4k63rtgpWyFT6b6wm9+a/mFxdbVrRh3QCrex0BN+h8Bo9SxT0BiPW36ODZXWIeDSPwoFQLGZrmkTZnmasqUABDPPf0c08+Sd8b74XkGnPGuOWZSXsCUPj58JLPfCecEiGGxzTW5DvdC/mHJNdP7AkaMLlaMDIAi8hEExqjmoEAnqfhPelrQAoeYkeulf4f/S0Nx3NQAMmoSkj6LZQ5cQAhwpDGaAJ2SIx3zvpLaD7junubOwHjk8GczpalReIOryjaA0r8RKKnwr6qgHR4xIq0OqNCkOVCOAE2GaQzVi/gwoMuGkYcYDzL5ozMFNawHXLyceAk8ICxeGsdhpMXxaYsXGyCSQfzlKC0svp7p/Z5GqxzFa6GKgOT97wQhFm4q+2I/xvERK2KhiJxLh2r6atIDg7jl4jAOSR0VI473SjF75ML2uDKO0+VqYljKOGlTpxI39ZXfvuH1jJeC8T7BuHrdVnvxN69aATB2JTBSz9lL/WEb7qkgbK+dhrFbrmpXC0YMqW2poLftbGmYgTHzzngnPGOedTzHeH4823hn7GebdxTvi2PSyhjvgvVoDcV2+n1yDMu4DveRDWPkofhdrDdTz0iMyEeQZbioSSkrBTeUpHJNAEyuEV5diAalqYCIeV9PGWpJm90ALu2GMkxHNowsA1qWEWNGfOnKGDBGlQaxIyAeP/qh929EGb1JXHniohLAsoyYkdJU4MMVDVc1DWPa4gHy1QkQ08ZD5YEHiNnGS0m/7HSmmH4B2k5nlMgg6WPiOrE/bcCI6gEasSKg4aamjTT2xX6Mc4CPJQaQXAMIK/iI6TlRIAKME4oXA8azGRjPy1U9J0U9NyEgJ/u1T3HmCKNt99nYKK7vqI2Nj1ltXaP95uXXbJ1gXIBbukggLkxcVUpW75u/0uYIxrXrt/lxhUWCsVP32h+NDvRsqM7oqLV+N6CsnoaxuxW3tU4urN5FFoy8N95TvAt/XgIx/bGLd8cyjuGZp99hNngsUcl0fE969vW5Tho8lvFb5Ae2s2FEGVHEdAEO2/TewHoEpTeZ07sBRjo5k1cRjijnQAWb6mmZQwsgmnoiHHKVFYMzJk4A6OPl+Fg5Uk+lM2xHOSDKSimwEXzFArFIMWVBAXM6nnQwCwsVO9ICJ9xUoKTyH0tUkZY5n7mLWlNFXUnSHA4AUcdqKWXSayMpuKEgh8IZtoER8CJ2DIsHyAvloWEBYsCVtuyXykvC/EFngIt9LCM927hO+noXO440f/lAllE8FDAsDWDaLgYjKsk6MDKKAUP1lZXl6f/X+Rd6UvHiqTG6USVG3Hh+ckg2YF9OyU5r/RSFOwMOI702RoYHde0hq6qusxdfevXrMMrmopLzV9i8hStt/cYdrqBFhSXW2aH7pARRMA6h6lT4d9UnMKKQDLehmBE3tVtf/T6pYj/Pi/rFjJsaHXx5jjwrAIn3EfDEc51+lhmQMN5P2tLvM64FiECaPj72RVr8BvfBknTsYml+DR+8KoExCs+AMmDs1z4a4zPCHINiETcCY3h6Sb6m3XXiGRIzthJX47LTl1PvtI6e/YK4UVbfUOXGdq2gLCsvdCspzbe8/ONWxExUsgIBWExpbFmBL9nnMB4/+oEdPfye0dEYCFFKFLKk6IiXpqKMXpqaf8RjRL4QGCVLVYwNyTgfeclkOdw8X5WAL1QwbZeCMXsbeNIvhBcVLyvSwi4GJC8nrhkvCku/UIzfmc5AGchQQFzMbDUEtrSLGrCSjmsKiKjiuFxOgGQsGMZKqa0t1W81e+wyJRCTPo2Y3FMZMSPKCIx/BUbZGQFKzOjx3gCTsvRZRUX1PwXjBsH421cFY5FgbFemU9zoPUB0z97crrvRBjvrbSADZChjj2KjfsXG/XomaRg7pBo0Hud58awu9k4888sCNNICynhHnMvz5vlHevY58R7jnaTTWabXo8Q8nQbUicICYVK3CID+ERwf8XfgMEoVAZWmiQz1mIYRRURYaLaZDNLG2MLJiBeUmzQrdmxXjMlAV42cQw8XGRBeEkbU8BIw5uZJGVFBQDx88B03YIxqjqj0p41q7onPrSjvsLul4TfzlaAQhynkjh+RqmYafqfd0cjsLIEi7aJmAxjpsY8XFg+YFxLGyw+3BovMwIvjeIwXyW/+j2AEKkEGdIBIfIh59ydlYgAENgz4SGMfMJIWAAJllKqyr5lYQxmcqeBwUckQlKSeFpBRtUFpKjHjebmoX0oVgfHslGAc7dd96bf66HVxIYzTMWMGxjmKHe+bt8LmL1xlG7X/1d8BY6lg1HPpEgzdUh89J9q/jvW12EhPk6BssCGpZB9VHVLIPrmoA/qADPCs6L0OjJnWKZSmxnPkeWPxLlim3xEW7yLeH++HZx3vl31x3D8DI+vxu3Eu739c7nzkAZbEo9joIAU30dBCbr9/BBMYiRl7FTMOump26z8B44ybCozVFUVGh4YCRndT3i8pPGpV8nBqaQ5XX2Z0MaMhfZO8hrb2RmvRMwLMUMdsGANAYMzPgHkBjIAHgAB55NC7F8BIgQ4xo4+Nc/RjvyG+CpQsYayXMqnHsc+NIR9PHv/CXdW0SxoPlCUvABhjH9sBDOlYwEg658SLimukX0I89MgIvAyWsR7ATcOWuU68TNLSv8EYOgEjEHZ1KeNQ4KEl6hgwRiEN22kYozQ1DSPX6upucnjHaW0DhIr/zsgSIOWOjvV7CxyqNs6M9Uop+wSiYscpGgr0C0TFOHQQTsE4XYCzYLVgzKgjMM5dbvMXrLJN2v+7136vmKTMujr07HDJutocxsnBGRuXSo4yzL+AHOiokypqqec1qGfXLxi7FDP6IFFyyXiW2c8z/S6AAmObffHx4/nGM+fdxoeafZwfQAfUHBvvKvbHOyWN3+YeuF6cy/70/bjR7neE6qSB6fAAIFmPNqqoIs0U8RqAEfcUoyASYQHGwrwjxmiJFFjWUWDZUCYAK30wNfp6oogdik8BEhhxW7E0jECXhg8YCxUzXuCmUopKczhiRkBkmbRTPeSWn/u5nTgGaJ+4VFN6SgVo9O+iXyLKyLirLKPxN+oIcOkXAXQRP/49GNnmRQUo8fAjI/DQeQnx0ONlxYuJdH6Xc+M6bHNcvDjSMNbZx/kU4KB42TACHWABXagf64BIOttnzoxO1y0CImACLMdMSPlOUYEPiJMZm8iGkZ7+svEe7ReQAJ0FY1VVrRfM/D0Y5y1Y6TC+/vofrLQEGPkwESMp8+pegHBqsMOmhjq03uZAopC4re6i6jkDZF9bk8PY6Z2LL4SR95PO/BO6f6orTsndBkj2cRzG80/ngYCRfTzzNMjxceX8uD7bkcY1uAfySRrmuD7HxPEjA/oADuvjmIExYkbc1mkYpYqEAoxEjvoHjBEz0kClrDiGmSn0fO+DdrUqH+s/+NTixNMMa9nR5DACYcBYzsDFGUMd0yoZMMa2w4hRmgqEUYgDhFRrAGQsw2cmVmSZ1DUmM1XxBcGAEYknbuShx5eRJS8AUC8FY6TFy8Z4kfHw2R8vIf2iWAZMvEwyBgaYHBcwxsvk2FjH2M92DLsBPP8IxlDAiBWpVzx/fsKXbIfLyjn/exiHHMZkGjMaGAxYTU19UrWxOVPPmAXjvQ7jCtu0UTC+9gd5N+XTMDKW6KD+x1h/q433yVgOtEzD2M+Yqa1YnVzWeusBRLmp/yyMgBgwBhzpDyHGeVwLI513xPHxzrJhxOJ9ca10fuBafw/GYYUFo4M0ymf+x143CnKIE3vlLdBQnJHifNjM4T79L4bhuLBDAwo501ODkeCoD5cYyZokOA0N1Q4gyngxGCsqi62yqsQNINkO+FDKUE7U0d3U6KXBOiAm1R1Jf8YowKGnf9JSPWl9k7RTpVVO0qk4mrmxpIqDP4E6xksEJECMwh0eZrxYjgkYSeMhY+xjm/3si2NIjxccIPISWOfF8oXGstXxUha/57+ZiREDxrA0jKF8GOu0vDl3bty++uqUqyMgBqxR0DOpTHp6Sq6pwzgm0DCtK2Y8nWkong3jOVr0aF8ydXa/wB9WLNKsWPD3tmHLbpu3iAKbVUk948J1DuY9c5bZ3PnLbePGHYLxj3p/9L2jflHxbYcA0n9MYsVGG5GN9TbbaF/ipvbpa9/dpHcm61am6haIHU0JjN24qZnhEf8ZGElnfwDCdrwr0uL9cW4aRrY5Pt5HHJt+T5FnSOOal4KRYTmTof71Yc5UawBg9NwAzFHFlAEjLXa4bvw//it5FTVsacTIu5WKFxmYu8gYG5jqDAprgBFLw0jcWFVTZjW15VatZYCJGqKKABiAAuQsFBFldBjzvnAQE1f1i+lqjfoaOlcmQzRiKCQuKzACX7S+iUlzAshQR/5Q1Nsg/6TFn+YPAxhpaRhjH9DOWAI2+3jw8YLjpbN+KRjjmhczrsn9+G+wlBqGIkYBDjFjWhkBEZcUQw0DRlrdBKhYFPQ4jNPKOANj0hRuSLFiv8eLbhOySWLGYYeRCTyp2hgdG7OmplZ77fU/2sa/A+OceTMwVpRXWU8XpYVyvdvlMuq/DnU1eHw4KAPIkV5KVqWGcr+6GiutUx/NLmWwLkBk3Jh/AkaeOy1rMNSNURPYH8Z7CHDSlg4rMI7hffE7GL+Tfn+xzTrXjfO5VvxWXDtgRBkBkkp/j50FIyCSzmh9AEncSAslrh33yrXIF1T6A2G0T62QIBXSPlsKR2sboEvDCIhe1ZGlklXVDOxd5gACIlACJ+mkzYouUsAXAxlTtUEBDsNt1FZTlwhkiTpGxT9QJnWOM/WMuKtYAEl6gMpxGECS6XmoGH82+fok7iv7EjgAEUAwXkymIEBfL/qp8aB4YFh8OUnjxZAhyBzpryXLeKFhcQ+scx8+qrnctJg/AhCjWgPLhhFD/UIdUcVIYwmoHM+5FN5MjVOahzqOC8JxO4dJLc8JOlzSs5MDbuemBu3cKV2P9qyjAzaMqzUqMCcnraW1w9548y3bvHWv3FS5pfMSGOdmYJwtGHFVqWd8440/WWVltfV2K7YFRp6j/mO/IKT1DTHiSG+Tu6mo5QCV/S011qMPY48A7GtTxldchaLGx4olQxfG8w7ARvXRSYBK2gEzeQ7HJc8aqPiAktE550KPBmM93hfvJA1j7GdfWEDDbybwJ/DEPfm1exS6KCak4IZSbJQxYExaQSmkEIzTU8gppk7yWbjGSdM+PDKAbG5Ieh0xB03OiS+sSK4mrW7q66v08U5gJH4EziaB6FUdWqf+kWUNDdKlpJU0FC8tcACBs1owujJWVtDa/KgATGA8mUOvf5rG4Z6e1I8lbmmxvgSMDleu9WQYAvpo5Vs1kOkGqyoKdI5iR6klS+CsZnwcpQNmlbbpbhUDGDNEPwMGo0Q+aLFcWh/iXX+mU4E0Faqd/iXWi1GsQ1MyHhiTY/ocfTx4fcm8iZfg7FEADaTULY0OKe7QF9M7lyo9GVk8gdgHKfbe3GQWrWvbpwuQv8/vMb1AmzIds2MxQxLjxiSmmEUWJapjKIBsRBkBwy2dovCGuEc2KbimBFPiqhJXCk69/MnRUWUCbEwu6pjAE5CnBKQU9awDOKhlYqcmhnQtfgO3l8KhKWtt67Q3f/8X27J13wyM86WMC2h9s0YwrlDaSlu3cZcU9C0rr1Tc3tOj/96RKFu7IPOCmnobVJw40tesGFIwyl0dZIo49uv/90lFB2i90p3Emt7ixCu65b0wF0e34KKEGbAGMH0YMT5cSmdAaIbw4FiMNrF9PQJLseog0x3onQAUsDGae9LDAlB0rt5NfCwZYNqVTu819vMeAcZjQr1r+qDGPo5H4QCxPwUjhquKe4oBI2moIsP9k6cY7LizlQ9Acj+epnyRVHkk9Y+1UjLq0xlMraxEQiXAgNEnWZUxtCWtb1gCJuvNWgInLm2trKpK8JURKzJ1HL04ir2Z3KwKwVhUdNTycg9aviAsKpZSMj6q23GfHrlYgOWePGQ5OQe1/4RVV4loWaVAqyRe1LpPg1WeL/nm+BzdJC3UC41ZXStwW6WQMc8GQ8czNwPzYdBxNWaLbWmq9bkPGK/ThwdUJvD5EbwAQ0G3Hi5p3cokTITJrE4+DbTSknTA0j4dx76YtZZ1hklMjEIEfQH1wv0cwHRIuVZrJk0vWy80KcXU11HHdACrPgz8HtOBM2Lb6AgtY3rdRhV3jI8pXhJ0E3I7Twkw+iGe1pL0MdmEYBwfGbXRgWFlDG0Pj7jLev70hH15Vm6r3N1TUsapKWWUCYb9oBuWrs015d7S07+5pd3efPMvtnXbA7ZgsQCcu0rw4a6u1XKtzQZOua9rN+2xV177k5VWVPvgx5TG8p+7cVGlhsxajA0LxmGBOMS24BzIlKb26f/261kwHyLuLfXKrS0U58slk4JynT6dOzigzC9jdiumm+tjIC3GfBVwvXJ/e3owXUvHcsxgP89PECqtKzOiAErnMxD3SVV9mjft75Dy6kMwonh5nGctd5OqGZ/ghvamOo405mHkvH69FybHGdCSfcCIoYaoIuBF6xtmqWLpsaS8jkGdj2LSi4NG5OQPQKbTcbTMQSiwumrFf1K0Rrmd5NcW7aMQh2E7GgUl1sQ2vUHqiC+rHEZKXR1GwUuP/3IpIw3GvUeHoKRt6yxgKVD8l5d3KPGDaXtaWeCTQDILK/OVlykWLBJgzDNXLNXz6ZNlMTNrqR+jYDSzzcw89fKtq6upQznhx9MCJWY0biAQljqSuTtoqCsQMZ/tR0arBubM6+WheusTvQg91F590bpo4MvXGreCB6aH36WHFrMKdfB183V9zbUMuDje4dI5XdrnI5/pI8DvsL9H6QE7lkwznfwGAzNxHEvATubm19eYjMBQGrIAckxu5YQU7ZTcT2A8c4aOwSMCkpJRLYdHbaR/SJmEcVMF34QgFIznzurYUyNSvwEbn1AMM6b/LZdvWECO63oTgnZiYkJf2zbB+Gfbtv0BW7h4vWBcLbdUsaKAnA2MVG8sXmdrNu+x3yhmLAHG/n7r6++V282HSeANtuj3UR2BQCmqLJmrUYqJgkmV+ngGZHCZdymSW9veXq0PJw0YBCPn9gtGpiKQDcj6gExQ+/QBWvfZrvQ7TCkwMCCAOG4Ab0MfBf1mF9cRkMDo8Z0+uswsFTNODXi9qLwKAQNwANot5epRnhnUffnoenqnQNsPQLIhvS9gHNQSQFFBwCM+nIZReQljPbYDRqzfYU76PRJrM06Oz2Yla6yrEniMiKD7IJ8pX6CCdMNqFHwoKJDSN7KuhnKSChcY0phgB0BrFWcCIMNv0OM/xsmZVSAAgTE//4hUMMchY365tPmUbgw8VU2fLLmjgJeBr1RwooZ+fgmKWCJJ1ldCwNVUS4oFKjBybkMDrdl1g1o2Kz4Evtbm+qSuRjfMNgD5nOt6IP162IkqyvRl7+9NoCQt1NKVS5lsBsYEMAzFdYj0EhMlTWBzFdaD5QGxzoSa/CbG8W0UVshFQrl9XntcLv0Gv0XcOCS3aYAYRcYMUYz8llgCJe7rpAM5IoUEMPoyErckMI4OjigTDNvosNxWKd5pevOfGdMyA+OYrjOqjDasOIz4UzBPnJqwiamA8S3BeL8tyoLxboDMgrGsstZ6pcIDUoFkQCpl8CFcOUHD0Iw+bTgl1DQOVywpGPsFHwpDWJDEU/pQdcvFFawYapeA2CrlJo7WcVxTytjfjwpqv4MYipjA2C8jrVfnJ3NEEn/qWD3rQX3kfFIi/Vaffr9H77FX6kz6iD5+pLMd6QN6H+xj2S8lZckxo3o3HO8w6t0BGQU3wwFev+JL5aHBi8DIfBxJQwC9S6qSlAdJ73L3Fe+gyTsjN9XLXRe07tbqwwCATIM4M00A848IUIHIUJAAzDQCdNNCNYGWwakYG8eBLEoGrppVKBCLBCSxXjmdhVE1AdhQJ7dSVkf/Rfox+ja9mxkJLs/jRdIrpZ7Ek7knDxrX4nza7TXJ6muTc3FXHUZavysIbhSMjVoy1B3zOPBHGiT7xI64UrgIg/L1vRmYMkSfvnx93Z1KJ2PwYPUwySSC0d1O3F2+3npJCYwoa4NgTJa4wnzdubY37iW4VozKb/O1Iy7tc1cW1QRiucgU4FD44FCSgeQCAaLiP4fRY9bWZMwcGcuAckxq5gNbUapLQc44LipF/rhKNMfCKDwQpLTCEWyo4unTglMwjmVgHGb2Yp0/JVd3SjBOCkb6M775e2DcJxjX2RzcVNk9AvJuLe+er225qWs27bKXgbGq1vpoZD5CayBl0sEOn6J8GEBcGevcXBlRKcExqOfJEJK4gBT5j+iDw/R0/ageJqAGdT4Ajupa2LDWh7imIGXAKx/0iuO07emy6cl2MBSZa8ld7etMgKQR+5DiTZS5h4IiucvUizJkpadTCKQP4yCxqmxA+ziPNBozjMuTmKJwjRZSfCz5gErdaAw+CIQCj+WgQMPY9jRgZELZLgmA8tjwAP+ZZohy7Zk0qF0fZEZLEKwtcmObGe5RMHYGjE3Jh50p5jxNH3TSgBF1rA8gBSjWJBeWKegqy4sFY34ySoBsVpEAmh5CQ2BhUclZB2xKp36RAhta37CvltbrgpRKULbZX5DHEOWHjCE5KG1lX4sDR9OiYm/PR1vWFlQRIOXGUs1BwQ1gUMrKOqWnXujClw1XUUviFlqP0B0Gf574wrsD8RXNFAIADmN7etUEAGbM15WebCcNB/w3FYyzpNUF14hSQSDzwgMAjBJBvuBa97armYIKjkMJxmkULhujlNVLFOVWaX2CTDFKA4RMIwRKeOUmjQtAgJwYIX4UfIojT9NgXPHiGcFIvDgmFxUYx8a7BeGQnT4j9TwzoX3A2JpRRmBcIxhXSB1XCkaBqOXd81YIxlWCcYdg/IOVVdfawPCQFFZA6kPC5KvjYzSOkOIMKBP3NyojN8q9A0Iyf5OgYL5IWq/06f50z/p/wxTSyPV0A0QZCpuGEUADRsZmHeT6comHpaDsI80nac3s5xqDUs7eTlxkbet3ga6fZ4+7zIehV7+jOBPYhmhPq/UxJpDVclAud7/eD1CO0qKIaiF9zE6N9+kYXF55MtQpCqohATZE9YaWg/2ZJSDKBmj32y03WCDSuGJYIA4PDeg+u+Wt6QMvCGlS2K5lazOTx8ptxaUVeIRZLfLuWhiLVeseHik9gbFSnmKFxKhMnqVUUhA2SiFZAqmXqpYUSAxz3WZFmztgw4CPwaZYUooKXEBGvSLbwNcoqKhvAa7obAzQtF3NOUYLni8cZtqvEvjTF4ztpPvJTH1N1Dk6IFJH4KDVPKVXVGcA3kzcwhiXNA4g6JdaCRiKnYEs6r9i29O03gNI1BdqO6mnTBqqU4XCb1E6SMkdJYAo2/gIxeS0kaSUDjj5qgK6flOGe4VCMAkKJYLDioEmlQEw5t/nfGwGQlqXAGfSyiSJW6SSQKj4kQlw6Nd4Wi7t2dNDihsZHUD7J3B1dS0tTwnQM8STZ2ndM6GX3mJvvvEnwbhHMK4SjMsdyHsA0WFcbvcuXGlrNm4XjL+38uoaqeKQwB5UBtN/G2rXh0FAjrZLIVsVjzXbmKAZkWpRiMNI5sP6yIzowzQqeMeZxg7lV2Yf0f8dBUCZgzgstzBjAOdwCUbmfmRJGsdhro5KT+/jOsCNq9ynDx6w8dsAmgyw3KTtFv2+7lWu8Lh+Z1zgM4wlMz1TAEW8y3KUd6F3cFrPbEofswRYvUOvox3QB0MfJJl3RaMBhQwgBxRLA2APypiBMdK7OtutrpaSUeUbQBSYM0bJe7PiaIHXIm9L1iZlBFCgbJJSJiWnig8rS7Vkan2m2K+0OqkkcJJGFQcgFgIjsxSXFR+3GmCUokV9IoD6/BqCNe8E04sf9ONQRWCsF1wcH+BigM0syDQqr60qEExAQUkU6igYpZA0JcKAkbkdOwRHj8BhoCSmHAMS/G16CngltdQQVaSIGZeyRT63d+cRwMnYJIzVwrH81owBIfVa1HehiBTNdwlGfifOI31A7ifwjenrD0C8yFNAIGMcGubbZ1hDptfuJtMok/gXWi+fDMJ035P0yhd4E8oMzMWfpAEmCkSluFxDqkMUUyaT3iS9B+hGxaSppycF4pkh+/LcsICkJJbR5BhTp9/Onh21c+cn7Oy5yQyMzfbGG3+0bdt226JFKwXiMm+Peq8UcTY2X9sLl9uaDVvt5d+9YRVV1YrpKM2lvpL/I3eODD3KUso+1GLjUq9RAAFIN31wUClXIxRU/0MgAwH/KWxMNgMjVRA03E4sAVf/nf+v/UNKAzz2jQquuEbyfHkPDfod3Qfwoqa6nyHZiKAdH9EHZLRTz7RTSz1LHTOsD0jiZuvc3nodLyCHOJb3QjcqPgDcG1VN8kLGKERTeKB1gET5km5pPa6AaRgx1ttam62iXEIiIAHQFVFpASYwtimPNksZm5Q3mymAJF4UmPVSwKpquaIVNIMrtgoZSgiA1ZSo4qZqnSqO4qI8K8RN9Qbg+YetUhBWleVYRclxmdzWzHa5ACwpOGxlRXQfkTJW5gncPE/nvNLCI35OdTnqqNhR18s78ZlgLfSvHS5Iq2BscBgLBVwyHGBLg9xSuaxd9J9zt0QKRl1Ws+I4YNSXpUsuZATstAChgysK2qZYrxU3U+djHS3VgjEpmesBRBnXGxRoxBMMwoT1+H6pHMfKwjUa1VeULynG19WbogmIM1O09Jdrp0zRQ8kfHXG76nQO/RLbta9Dpkyll882mXVyrEuAAXUGRqWTKccFI0X0E4IxBqPCztACRy7q+bMj9tfziZ07OyiF1O+fGbDz50dlk3bOYRzXC28UjL+3bVt3CcYVNnfuUpnUUSDeI1WcPX+pYFxmqzdstt+8+ppVVFYKRlxf1AAoUBqBIkUcHWgUhA2JyVUdlsIkaqOPoJ4NzxB3ETdwnBmy8AL0wQpjOMkx/WcMNzGM58g+jPPYPwIY2jchT2FqXB87Gc8aaAYF0jAKLZDGgU3L0WHcW1xh/ba2ec7AyL6hAd2jAOzrqZN7WSvTe9GS7f5ejHhU718qS/XTPwtjAIl1K35EEYuLqDmQcGgdGAGxM+OyooqtgrFRIDZQYINJLLDqukp9CGlZo7gQo/QUA0xBWUmJKjAqrbgkP4Ex78SnDlsl49wIviomutESuGorcwUes7Tm+LKuCvU86QAW5ys+1HnlAjA5D3CPeTr766sLBFeVW0tDqYNIGutttPMTjIxEBoy88AQQKvxluKmon+ADvHZcVxnbWDsKSuwpdQ0YgYzrBGwsBwQiGSsgJIMlmQxY+aqS+RIVYBluES8+AXJAS9SMOivOo7CDrzAwKuMo7hrVl9u/4gKUcyekOsmAUgmIuFOc7xlYGWNqRDGN4jf6MdIU7vwpwSb1+6ugQxmx8+e0T0Cikl9+OSab8OZ21F3yFX799Tds69YdtnjRMps3d7HNmycgpYj3CsTZ8xbbfQuW2Or1G+3lV1/V17hcMCathBxG3euogBxWhh3uqU1MGXhEMNIAIKny4LnNPCu2x/yDIvXPQBagBYAjuPqYoOPDM6Xfc3jxOHQsgHI88Rxdw2hpxL4R3RNu7BjqN8aI7jouA+SIlA4YUTzUjmPY7u8DNrwUvXOfzo6CP3k6HdUymv/V6BhiVl3Dq5wGHcBsCxgDwDSQLJubGi6AEVUEREBl2ab4sFmuab3yZJ1EorZeMaIgBMQqKZ/DKPDKMEFYKvBKAJNKfhqOy1gvlquaX0zMmCf3U6o3AyMgnnT4UEEAwhpri3yJChblfSEQD/k5AFonl5TzuE5ci3Ob64ukiqValkzD2Fhb7NutjWWukJ2KKTEGzmXpyiY17JLr2ao/2ER71poya65jKEG5ipSQ0mKHwqEMjJyXBi2tfFiAmj4mYEwyXgJsVxtQ13qGnJLCoY5npY6nxikGB1biGCkIGZqYR4ZbN+0uaUkaQAJgAiqq0u5KcHqiXyACY2I0g/vq7Jh9JeC++hIoh2SDAlIQngdKwekwjgvOMbmtI4pF6uy1114XjNsF41LBuMjmzV9scwXgffOXKHZcJCgXC8b19sqrr+jrW24j+giMC4JhQeP3rv8ypIw80FVrg1KUISkKMeMIbmTGcFUHMf9IkYa7yn9KYkmWIxRmUdKZcWkp9eQYBtJiyJDTAo7l5CgfNH2gtDwzSVO/ZHhKpjYAZAqUJse1X895Qs99XB9DB08fO9SRetGkIIiYVKrts2ZlLAMkc0sy83JHW6VgAUZ9HPWbVDdNF9xkCmYCxoH+Pl0DGLsz6giEXcl6TwJjWSmNV5TXtN4hANnP8d2CtVUwNgnGOsFYq7xarTxaSZwoqwRGGodLActRQAEJiMXlxdNAlpEuIEvkqubTawN4KhiKMQNjdXkCYyzrqvIEUKE11VG6mu/HAiIK2lRX7LCx5PiyoiMOY3I9XFc6Y3J+kV+joYZS2EKHkQFzO1oYPDdxWQELIGmuBZBdtBGlTpL2rbphgJyGUfFea2OFg8gS8JJMQ8lcAmMC9oxa/iMYUej2ZsYMrdDxjFXT5hCijCxRwiSeQj0vhDGZr0JukruwFCboi06GzxwPjInSDnlmJIM6jKdG7G/nx+0/v5oQjFRv9Lmdl3v65XmBmQXj5OSINTTU2u9+96pt2bL1EjAuFIwLp2GsUmYYpTR3YkCuHxBJhfhIKCMP6gMypA/IsFy6ken/lMRc2CguqBSNoTp8tPVenddHPV6XTOnUC1I/6JX2QCmFFKC443QNo6E7g22dnhiUCioGHpXrTXys/32WulMUW1BPEmNPSEG1HBOMY4JxlHiUUlpiP93XoED06hHdZ59c6ag+wbzesqtesNCmuFYgNdiQvBJc82GFBUA3MA0jIFKQM6T0fusVjD0OI4U4QNat3xCkfb2KC1sEIoUtjARHQwVATeANGBscxjrBWOOKWIkqYvVVidVVWYXgLFP8WCIggbFIVoxSAmN1qZVoO596RsApZ4iN4hmIAC3WcVUBCauvRgXz3ICT4eCBinXA4xplRcSRh+SuHnRouQ7ntjSUCLhiXwfGjhZc1CpXyEQtcVsTpcRdBUZ3RwUkqtgiFwAXlTgSZQTCNhkAAxZfZL7euJoXgzHW0xYwYgCYfByAu0YZq9khohDHCwyUCYinhoittO6FDcokASnKSF0dgz2xnzSUkm2ug8v7V8WF50+TORMYWf+vrybtv/9zymPFRB26PFbFVZ2GUcDSKGBiYtjq62vs1Vd/Kxi3TMM4XxDOcxgXC8YFdu+8BbZ6XQZGfaHHqO/0ITykUIrZGCTZC2y4V93n9P/Rf6FwhYKZcUqCvWCKahtaulAhjzvaLWXtkclbEJS0D8U8nb6BFFINyUUd1f87pXunddHUqP7voNLCPdeHZ0IxnI5jFq5JqfYE1RFU6cilxUb5XRnrlAIP6aMwKJe2X++YVkTdencYTe3o9tbdpQ+qPrSdfHApByAskPqOKT4fEoCDg/SgoeH+sCAfcWO+y54MjEDZ3aVYUTAy8Nfg4KDAVtzY1KQPYIO1tbXpuv36/X4/vluubFtnmzUpbmxo1TEtDVbXVG+1CiOwegpxMlYjb6ayvlrgVQjCEisERlxXqjcEa7mWADqrtPCw3M6D7noCEOoGVBgwAh7uJsBhoWjABGDAxTHAWMkI5H69Lyw/51M3tjkG6BJwi/08XEKMGBIYARGwiP9QPpSK0k/vuiMDwrAklqQgh/uodpgiduHr3YuyZmJRCiEAEUADygATGBMXixJbWlTwm4mr6u02My6bj6YmsHBRWQdUDBi9oEawJfDFfmLRRgeU88aHOxzGvxEXKj6kKuOUVMJh/NuUw4iLmsRK7TYllTir7XPnBO/5Me1jRPELYdy8eYstWiQIp2EUiPMW2uw58x3GtdMwVtgYv6d4k0YIE4rjKDFGAb1dqlcnaEmdoOLbYWI4YBWMwDGh2I9qGYawGB2gAErXUAzGcBaUDIdNMrYPdabj+qjomEntP39qQh8g/TcByT6OmRrRveiYKQpU6MI0RB3soH5vwGNbuot5u189H9rzUiXDPpoaDsmt7dcHgBZXHbS2ktFbopMmjF2M+p4saQzC+TSWmJwY0/qoQzg8zKDSo9PmMPb06ByUrsfh6+wEeuBNYGxtbbXGxkZf9vb2WpdgbW1rtZY2qWJLo4NX3Vhr1ZSeyoAOY5t00ioEXElVmeWXFlpOYa4dz8/xJdtFgrOgrMhyi6WMFLgU5n5hBSc/cwMkgEQdQwFRMoBKXEzAIVYrdaWsqSC+TNxa4OVcrpF3glLVT3wdd5dzWxh7UpaoT5Lxm+pK3DqY/Uhq1ikQqe6gZJUqD5pGJe0O5aLQXlLbANkp18CVUsf5DL+KWQCxjxYz7Yny4VrhPrE/gRJIARMYk5JUiuxxlfxcPwaIuSbwJaWLASBgUiCTAEo66pkU1AS4KExyTOLCkoa6nmXUN5SRCnzB4S6b1IoG4l+eG9X6gL7iciPlmuGynTkDjKOCkpY5cuvOUuk/ag36yr762u9s48bNNk/w3XfffJs7b7HdK0W84545dvd98+SyLrL1Gzbab15+2coqSnVNQSCV8oYHuIsCjP+NJ4FNV+Zzz4JxmNLPUbnmAte7igGFgBsDOEqBJ6R0yuQJVNSV0nCBrmD0QJlM0qVIZwXj+dNT+u8TRuOGCbmGXrcqVeSYSeo/ZQAzPj6m3xxJ4rkRervQL5Rp8Ca0b1zbo8l+HY/K4UaiUImqJcpG+1tcT86fnJyw02fpX3pKz21q+jphY2NjDihAAhmKCHwoIOtACYS1tbVWVlZmJSVSMi0LCgrs2PHjdujoYfvk4Kf2/qcf2jsfvWd/fv9t+9O7f7bf/+WP9uaf/2BvvPV7e/1Pb9qrv3/NXnnjVXvpdy/b8y+/YM++9Lw98+Jz0xbbT7/wbAJjSaZ01NXsxKce91HY0upzL5QLxCIvkAGqpJCH+JLqjyTOnIbR3dvjroaFuZ/59QpzP58urfVrSiFxAxO3sErXBsZS62QaMtSwtc5hQw3TMNLWEDcp2i5S3RHm2zQCyCgoS9otUkBACSaVv/20M22XG9OS1DcCLe0YgYJ4huZTtOZI1DRxOSlRBDhUhCJ5iuIBa2QAd5jYk2MSKIFuVBkZFfT6OLl2cU4U3jDaG30UiaGmcB3DtG9Kbho9NSYZvFhg0jTu3DkKbWgkLnf1r2fs3PlT1iSX6I3fv2kbBON9UsHZ98y1OVLH2ffOs1vunG13K22+3NeNm7bY87/+tRUU5tvgkNxigTImtaJpG1AyIzLdzLwTrlx8GjKwpIUOI6qP0pCBpnyK+SZxKen1IEBOC6yzAMbcH1qfEkSTMm/wntl3WiCcAtjJcf1XAQVIQCa1GRWQ46gk1Q2CYURqNTIiMGSDAyOKyQatt0/GUtYj6+4esK7OXsECJD3W2dFjba2d1tzcJmCkUA3N1tjQIpeyzVpaOqy9vVtqh4oxVGaXQ9be3u7qRuzXnLIArqKiwoErKipy4HJycuzIkSP22Wef2XvvvWd/+tOf7LXXXrNf65k+8eQTduDhA7br/j22ZedWW7t5vS1fu9IWrVhi85cutDmL5tndc++xO+69y269+3a7+c5b7abbb7Ybb/vl9PIXN99gP7/xOrv6+p+7XXPDtXJTBR7D91O3CDRAWS6gaqvyrcEhZCpk4sekesNHFte610NqncYClKbWeSdkOhWf9BECipl41V3fQw43oNbXFDjc3QTZUh+GSwdE4kVc03S1Bn0auwCyHUCkil0AQEECjXdpGieVRC1xS7rbBAXuKaoIoFJKHUdzLmIYQOZ4Otf6JC6yHkFMH7gxb2ECjF26flIvCWBe2CPAgZiMSl0kgHkzK6ltn45xV1dQU3jk45FKYaMFDiWHGCrkJYvEiSiijEbkGOunBNppAMWIJ2V0Uj4jxTx7bsJBnJgas7/951/ty6++tNaOdvvjW3+2LVt3uGt675wFHi/Okas6W0o5Z+ESW7h0ha3fuMWeeRYYC11Rzp09I2jkrg30CQipsJSOCvER7/tJczHa3BKbaV0fp+FReo7oOLnGqBRqg2s3OSHlm5zSvU8KULmAQ8MeY43IaPg+pmNGlDY8oPgMd69fytMjKDo6raOt3TrbqRaQCY7Otg5rbmq16uoGqU6tQKiyvLxSO5FTZEeP5tmhQzn22efH7OOPD9sH739u77zzsaB4z954/c/26m//YC+//Ia99NJr9uKLv7OXXnzNfvPS6572yitvur388mv2wgu/EUAvaPmCg/Tcc1KjZ591e/755337qaeesscff9wef+wxe+LxJ+yxxx61hx9+2PYf2G/333+/7dmz13bs2KHQYLOtWbPGli1bZgsWLVB8fp/dec9dDtsNt95k1/3y+gsA+9kvrrErr/2Z/eSaK+1HP/uJXX7lj+yKq37s9sOfXmGX/fiH9r0rLrPv/+gH9oOfXG6zSoqPeasbhtWolMr5pKhlgs7By5XKMX8cQzcet2qBWa10b3VTKpXUObRfbagpsQa5r3U1RX4M1ysrSkYQoHEA6lmLyyt3l9LTqJynNUxTY9J+FRh9ujLqFzFcUUHT3Ua1A8pHSw16c2TA6pDSZSClrap3paGnR6b53HR/Nxnp3thcx3IuvTRoic+6d1julZvaQ0N06hOBnrawiUuctJPF3aWkkH5wSWGGwy9QWQL1sGAepWG1MjeuICOBYwwoRWEGCjgxOqgMTK+MQVebU3Idz56RK4ednfRWNtgZrZ9RrHXm3CkbF4gTcv3+9p//aee/+ptg7La3/vyebd+51xYsXm73yUWdu1CZY/EKm79kpS0QiAuXrbQ16zfbU08/b/kFxYJpwr766q+KO087KJQkDlOgITBpl5kU6wuOjlZr17Np1bNppklXa6MrcVNzkxSEJl60PGmztpZ2qUqr3nmT1VbXGSPWVVUqRtKyRtvVWq+qqFZatZWXVVpxcakgK7STJ/IsR3bieK6dOJZjx4/m2BefHxVkn9of/vC+vfb62/byK3+Uor9mTz/9ij3xxAv20MNP2/0PPGG7dz9i27fvVyy8w5Yu3WALF62xBQtX2bz5NHxYodhZ/3+elpntOXOW2r33LbS77rpXdpfNni2vQXbX3XfbnXfeaXfccYeWd2l5p912221288032y233GK3336H77sdu/12u03GMaTfdptUTsfdcMMN9ovrf2HXyn5+/XV21XVX209+fpX9+OqfCrqf+vKn2gZElj+++koH8Ac/ucINKH/40x85gMn2jx3WWSdPMgqcoCkRYDSJk8rV0kNfS3pklJXkeOfjZEq4XF+WFB13KxOQ1ZWMgcPQAyXew6MKGAUx5wJmLS1vFBM2N5RZazONAKSKuIOUgAlIZjaitwbN1ehhQZtUNykcwDh0KCGNxb33Rrvc3KSBLg1ygRSYhgXdkMzHORFU/V0Cy9Np1qbMT8wyphhliAzYZXRQ7tI1aEvY1Q7cdDgGPKmv9jM0g8PLbwtuoKXXOL9DrxG6FtHfkfvxIeT1u3TPYT8dVsMYW4VSQx8OUMshVFjr9NagedtZxTXnz5628+fOCMRTdurMlE0KPia5OY2anRKQsnN//ZtNnj5vdY1t9sabf7GNW3fZffOX2Z33LlScuNjX71uoTCgwseVrNtqjTzxrx0/ITR0ctfPnvxKMXypempJ6jemZ9shlk4tX36B3XmMlxcV24uRJ+/zQIfvg44/srXffsd//Wa7ZH35vv3v9DXv1d6/L3hQwioVkr776hv3mN7+T2rwslXnRnnnmRXtW9tyzL0ltXrRfP/eS/fr5l+yZp39tTz75jD3yyJP20P7H7IBs/4OP2oMPPGT79h4QZA/Zzp0P2bZt+23Tlgds3Ya9tnrtTlu1erstX7HFljA9OpP6zFstt3yFAFsul3yZ3X3PEsG1RHAttjszdtddi+2OOxcJoPl28633yWbbLbcmIDl4sltvu8N+efMtdsONN9n1N9xo1/3iBrvm5wLqZ9fIrrarr5aqXSNVu/oat6uvwa5N0mVXXXW1/fgnP7WfXPlT+/kvrrPrf3mjXXvT9VLCawXfNYIPJbxKliwTEH/q8F32Y2AERJTxxw4h+ziO82YdOfyR5RwHSAbYEUQVQJhvpTQSLzphxYWMfHzc+y9WlNF/Mdfo+U86fRmrBG5tNf0ekwlTy2k0rnMBu04QNjTSd7FSL572fQl0MdiTD7nRQm9p2osmozPTB9FNMHpHYQwlAxZaP3S2aZ3OwfS+B1LFkYLAXS9Bl3R96REgtKQgHqIliNw+ZXBmciKW4VjmnuiRy5d0VqYrFn3cGC0suQ4t9wcV2NOlpk/H0vJ/sJ8uOJnW/gLT+1bqnKQ7Tr9Uh5hoxoiTKDzxrlP6GIxwXcVto+P0zpAKCrbzX55XPPilnZed+fKcTZ05IzU8Jfdw0kYnpmxgaNR6Boatf3jc2rsHLa+4wl54+U1bs3mX3bNgud11H3WLy3waOBqI+1JgLly2znbsecje+MM7lnOyUO+kRu+t0vLzS1ylDh08ah999Jm9//5H9vbb79vv//CWvfLq6/bcCy/b4888a/vlru17+BHb/eABXed+27p9t23dttu27dgnhdorN3mPj826bt1WW7Vmk+DZZKuxNbhym23d2i3at8XXV65cL6hW2+JFiqsWrZKqrbSF+nDM033OnbfcFixYY/MXrLW589d4/0wfvWAOttLuuW+FwFsu2JbaHYLtrtnLBONyu1tAzlY662m7W/vvuGuR3ZoB8pbb7pbK3S1o79G+e339lltvt5t+CZC/FJByLx3IXyTQuc3AiF31M0HosMrtvOoa+8lPBc9VV7kyXn+zzr9J59/wCynkzwXV1Q7Wj6++yq74WQLi5Vf+xCEMGMNI/5GOSQAWjAcPfqhA9RO5D/T0l+IVM8/4CTuZe9hOnDjo6XkoZ3mhfPsSBbpFgjCZobWUfo0CkAF1mE+igvEfi1BSevcLxvpSa1CMyDAbTYIRa6H1DBX69NQQgIyg1dRUnfT1agJM0mlwm/T4b5Wr1NqipVQsaaQLmPTuByT6MtLjXgAJuInxMX31R9wF6xdIVM5S4Zt04h23UwJgYoJStCGB1KdzExeNFvzUO42PUdgw7tegTqqfEruuLv0OMU6HPgAUBMja2rxCuK1V6qpYiMrivh4aGDPgsKy3z62PpbYH++khMGB9updefRz6aQUidRpX7DV5SuonACdOn7HRyVM2ODphfQKws2/Imtu7rbK2yUoq6mUNllNYYe98fMgeeeolW7lByrhoteBb7VPBzVuWTCPOhKn3yn27b+FqW7pqi0B6xB55/Dl77PFf24EDT9kDD0iZ9j8u1+9R27tX6rTvgC/3SKV27d2v4x+0bXsesC2799nmXXttk9zhdZt32koBtwLY1m4VYFtspa69fMUmW6rfXbR0rXfnctPvY4uVtlgfhCVL19nCxat9LNd5Ag83ct78lYJvpYN4Lx+SufqIYIJvBsIESGCcfa+AFGh33bNUUMobuGuJg3mHlnfeLZutdEHopu3b7lgkEOcLuHvsuutvkUt5k9TwNofwlzffajfedLPSbnQDxGuvu97t59fK7ZShlDNgXmjpfddcd51dI3UEwkQVpZqCEDX8kSC8QuoZ9sMMkBeDkXNYzjp46BM7fOQzfT2PWKFAZPi44uJcyxWAOScPW27uUR9slbEdfUg5wUe3j9LSfB/dqqa2LBkjsjGZW4CW6RVVRVbfUGEttGrprHcV7JC1SRHb22Ud2lY81i5r62j0YdG93kiuY6fcwk65mJ1yDbvk/jHRZyxpAYHRJIkWEMw72C13i+LpkVFgnPAChOEhYOv3Cl0qaSmxoyg7qVsa9GLrpuZmKXe97rnG6usYxatRrnajxzulJeXGVGp5JxXfKLY5fOioHfz8kH326Rf28cef2YcffGzvv/eBYp337C9vvWN/+cs79s7b7/q2G+t/edfelr3z9nv23jvv23sc/9779rbsnQ8+tA8++tQ+4npfHLJPvjii5WH74JOD9u6Hn9mf3/vU/vTuJ/aHtz+0V3//jr306p/sxd/+yZ79ze/toV+9ZOvl0s1dssHunrfSZs9fLQA32BzFUfcykDHj4jA1nNbnLV5vy1Zts1Vrd9nK1Tts2XIA2iL12i5T+hqBJWVbs267rd2ww9Zs3GlrpHarBd8qANy0w1Zu3GEr1m3TdTbLtgjIrbrWVlu+SrZSacs32eLlGwRfYouI5xav80l5Fi5Zb4tlC3VP8/TRwOYvVKyn+8Pm64PBFHbTMMroCnYPXcIE5Oz7sEQF70IdBR0Q3iZX9NY7FshYyu5c6Gm3+76FUsMFdtOtc+3GC2C81W6+5TZfoohAGBYwBpAA9zO5pGEoYno7YPzZz7V9rUD8eQIi6gZUgJgNoxsq+dOfJG7qT+SiKu3HOv4nwHiVYHzrz2/a2+/+yT78+D07dPQzxQ1H7ETOYTty9HM7eORTO6xlDvOO5x735TGp5eEjn7sdPfaFH38y76idlJt7IueIzvvCDgnuY8elqkrPl9oWSi3z5dbm6piTgvtk3jGtsy1jKmVmcS04aQWFdCVhgNdCfRikssVFsmIrLimyIkzrRcUlUvBCnZNrObm5uh7z2zGXQZnUu9LKyst1fIkVFBTr+rqWzimvqPTeC8Wlpfof+Xbo0GH76OOP7Z1337M/v/22vfVn2Vt/kav2J/vtKxRfv6y45yV7+inFO48r3nn4CcU5j0hF9tuuXftsh9y1LYrZ1m+QQixfa8uXrbYVK9bIHVtrKzCtr1i+xpbLWF+1cp3cuPVSl/XKzLK1G2zVuk22Zr3cuE3bbK0yPbZ6w3ZbqYy/XKCsWKe0Lfu0f68tX7tDtstWrN9jS7Wcu3ST3Tlvld0u1bhLsdQ9gu5e2T2MEOdTim+weTpmgeBbukpArdkt8HYLwD2Kye63jVv224ZN99vajVI9XR9bK1u9ea8A3G3LBOXS9Tts8dpttmi14jZBu1wAr1ija+leVslYrlRct2LlNlu6cqstXRG2xRYCpCBcpHhvsYz1eQul3nwgdH/zF62XKQ6Ue8pIdg6ilvfJHEa6gs2REkoN75Qa3jF7sd2umPC2uwSdDPhuxg2dtnlut9yh9Tvm2U23zRWM99qNN98tIKWGgpBY8bbb73R1DGUEPmDMVsRpCBUf/vRKuZByS9NG2k+v+pldefXVdhUgXqPjiBEdKoEoxbtcsGFA5+AJwh8LuB8JQE//0Y/sip9IGVHHDKSztu7YbLv3breHHnnAnn7uSXvplV/bb155wV74zfP265eetRdees5e/u2L9tobv7XX33zVXn3tN/ai9j37/NP21DNP2JNPPWqPPn7AHjywT9fZoZhikwLx9bJ1tmX7Btu+c5Pb1u0bbfPWDb6P5ZbtmxLbpn3bNtuOnVtt567ttmv3Ttu1Z5eutVuu057E9mVs717ZPkFxv6/v2r1Httf2avvB/Qfkhj1i+w88bA8oztl3/34dc7/csf320MOP2sOPyD3Tvr37HtTvEP/s8OoBltu275Tt8u2NG7cq1tlsaxXzrFW8s2rlRkG1zpYukQu2aIXNJ86Zs9juvW+R3Xsvle6yOYtsztzFNlfGco62ScPmzl0it2ypVGCZMqLOlc1ZvNzmUvq5eJXN13Xny5VbsFwKIrdugTLygmUbZcC0WQq4SYBt1PGbbf7ybbZg1U6bv3KHzVm+1e5bulmKuMXman2BoFiwYruO2eq2QMcuXLFDMO4WjHsF0P1yMe+XCj4gFXxQH4L79UFQ+vp9iW2UbdpnK2TLNuyxJet3y3bZYn0UlgjCZRlbLoVdLsCXYSu321L9ziL93qJlW2Sb9R82SxV1/7pvthfxP6TcjOs6dz7DSa6TaclHhHjwPrmpgnDOglU6ZpUv5zAVuoBk3533yCWdLdW7GxAX+PKO2cn6LQLv5tvnzthtc9xuUqx44y33CMa7ZAmMQBixInGiK+G1gjFLEdMGmEmcmEAZxvaVPxOI10gxpYwAiV0pKH/yM7mpV17pcAWQGDACIssf/lhu6o+umE6/AjiVNuvGm6+3W27/pb5Os23J8kW2dv0qfTHX2Op1K/U1XaGv4XK9yBW2QRBt2bpRX9X12rdKX8DFcjXm+Xm33yk/XNe55jq+GPqBH19uP7ji+6L/Mv3QD9xY/8Hl37fLLv+e77v8xz+Q/VDpP7TLf3S5/VjS/RN9JX4q2b7y6p/JBdAfDZM/frX+9NVyC6659jq5Hvqq6Yt2DQ9QD/TaX9xoN+hrd+NNckFukltyg9yQ67Eb7fobb7ab/IXcIdNX8Ze3yU252e0mrd96252KQWbL7rU77rxHRlH4HNk82Xylh83Tvrlut99+n912G8fPtdn3CEpKM+csmTa2wyhinztPIC4QgJR2Cuj7ZHPoGLxIGY+hMwTjvGWCUC7fQqnZIoG1cMU2qZuAE4T3yuYsAbKdtkhgLV3/gCDZZ/NX77b5KwSnoFuyVgq64QFfLlq9S9fYaYsF4rLV90ttH5TqHhCAD+ldPqh3qjSBuWrd/VLbB2wlJkBXbpJtftCWb77flgGlbKkgXbpOirxmly3VdZfqY7BU116iD8IS/e7iZQJfIC5YskUfls02TxCyXKj0xfo4LNb/WKAPxpxFcqUXrLf7ZPcsWOcDaIXy4ZYyr+QcLw2WQmqdQqm77lVcCHh3zpMazrVb7pxjt92t9zB7vt2q93HzHXPsl7fd5yroSgiAshukiNf/8k77xU232y9+Sd68VXngNhn542bliV+63ai8EqDerLwReeGu2ffa3ffc53bXbNnd9ygWVb4gXTb73jmKZ+fZnHnz9Z/m6yO70G0utnCBzZk/T/8hMdbn6hiW986dI8XXde+9R9e+R674fdPbd86+22Zd/pPLJZM/squuvcquu/E6/amb7MZbFdz+Uhn9FxB/lYj/qYD4mV193dV2tdJYT9KvtJ9St3KlglHqTH70A/v+FZfZ9wTd9374PS2/p+3vu31X29/5wXftu7Lvaz/HXib73uWXafsHmS/Fj/zr8eOr5ArIBQi7CpfhmjC5EQLwqmuu075rZQqgf64vm4C89hc3+fJq7f/ZNTItr9H2ddfLLbnxVr0c2Q232LWKITj2WgF7vdL4errJpblJX9Nf3jLbbtbLvUUv+tbblQGUGe4AyLsX6CEu0sNbpAe5RF/2JYplFulBLtBy4YwpA4XNVoa6V0DeR2EFmWyBXDDZPaz79iq7Z5FiJ8VZc6Uo88jUy5SBl2+X2u2QCu6y+at22cKVu23Rqr22eI3gWP+gLVi7z+YIinuXbpdCbhekUrXNDwmeBx1UoFzmsO231RsfsnWbH7H1mx+1NRsekpv8gMO5dtPDcoMztvlhW731YVu59SFbvnW/Ldvy4IzJpV0mFV22do/UUWDqI7BE9+Sme1wk6BbqnucLwHkCb4GDKFXWcdhi3Sf75msf++diizfZvYJyttxSSoRny4OgP+Z9+mhh98xbKmXUs72XZn7zp+0ueSKz5ZncpX133HPhvttnz3O7VR/TW/RRveWO2YJ4tt0BSBmw7rxHQGSaDC5atlIfpnV6JvKEZJvkJe2+/0G7Xx7U/ocfs4cfe8IeeeIpe+xXz9gTTz1rv3rmeXvm+Rft+RflHb78ir3y6qv2u9df8xZRb/7xD/aHP79lf/rLn+0t2Z/fedv+8u479u4H79v7H31o77z/nv3xrT/5cW/+8ff2e47/0x/tD2/90c//3eu/s1nAQwsAWgNc/tMrvHLyRzIqJr2FgMD59mXfsW9871v2je9+076pJdsOlgBz0zrbSZrgE1zfvyKxyzJL0r/zAwCVQqKGP7lC0nyF9l8uYx05R8rll8sFuFLghf3sWgBUUC0lDMB+du0NUk0B93P5/L/4pWCTIsqulSqy/+prb1T6TXadtgHxhpvv0IfmTkF3hwC8bfr4GwQh6TfdKghlN+nL+kuBeLNAxG4RjLfeMXcaSOCjXo9SwHsEWQIjEC66qM1WRgPEOQJvjtywe6WG98go8bxXIN67cLWP5kahCwUxuKXzpDTz5PrNkws4X0q0UAAsXLVHcO4RnIJSIM6XQs5ZscvuXb7D5iptiQBdLqiWbtjvyrkCpdt4QIoHjPsF48O2Yeujig+ljnJV1yh9rSBdq+01bgds9RYdv/WArRCMywUhtoKlYFwudVwuGJfrXpYp/nSllC2TWi5ZLRWWy7oIFUQp5T6jlqS5gsoW4srKUHyOW6T4cr7i2vlL1il9ndxeeVzrN+sed9rWnfts+54HbKdi9D0PPmT7DijEePQJe+gxwHjWnnzm1/bE08/bY089Z4/LnmDb0xJ77FfP2aNPPmMPC6RHH/+VPfrEk7JfCSzZ46w/ZU89qzDsNy/bK7973X735h/ttd//wX7/pz8Lmg8Fzyf24Sef26dfHLLPDx2WHbUvDh+1g0eO2uFjOXYsJ9dO5OZ5vWxuHmUd+VZE+UYpfROZ2EZLrZeWl1pFFXNsVFl5RZnl6zjKOvLymSw1z8/L0/JEzgk7fOSQzXJ1QrmkYt+RfRdXEjildJf95IcC6TL7toD7D4H4b9/+D/v373zDgfyWgPy24GP5re9/274p+9b3lXYZgKKOqJ5A/CEg/sC+c5mg/j7gAuPlroL4yZdlYPzBj/Cb5T//lCBXwbB89Z9KEbGrfi7fXT78VT//havgNYLs6usS4K65DuAUBzhgt0rtbnYISWfdodO+GwXczbfPFlx3O3w33HqH3SDX9Sa5JjdT98SX9E7BJ3cI+DBAvNCAUm4qKnkBgIsdurTdnVkC7VyK8WktIpfUqx+WCjy5pnNYZ1q3jM2loEMx47ylihGVUefg8inTLlRmnyd3dK7AmyPDPZ0rFxQI566WW7pOSrYREA/IpRQ8slUCzdVO0K3aoFhx0wO2XrCtlxu6dsM+wZjEjusAVSCu27Lf1m/Tcodsp5R010O2fpcA3i3becA2bNP5Wx+wjdsetE2CdRNLKuoxbW/Ycr9tkHu7Tq7tyrU7Bek2xaK79Dt7bM1GmZZrtWT/eh23fjP3sEvL3bZ7n+L9Rx6X+jxjL/zmFQfjrXfesw8++dQ+P3LEjp1UBi5SZi+vsIqaOqtpaJQ1WE091mh1Tc1WjzW3uNU2Nlmtjqmua7DKqhorr6y0sooKKy4ps8LCYssvKrSiEmoGqqy6ts5qvVRd162v03UarbG52ZpaWq25tc1a2lq13mKNXL+x0Rp07Ua2W5qttr7WamqqvCdNA+dqm/Xa2ioByIBTgMgIcZVWWVlmxcX63aJ8LQuspKTIraiowE6ePGFHgPG7V3xPsH3HvnnZt+w/vv9N+4bs2z/4tn1HgH5Pcd53BOI3fvAd+/fvfsP+VTD+h4MoFVT6t6R0rLtpPYEQNb1c0AFg2i5zEL+vfaGCWBLM/ljGOgHuVdMw/uRnP3e7Ui7pjOE+J6BhgBguKOs/v0Ewsi8D6PVyPbEEPKmf7EbZDYIQu/F2pQnGm++6R3av3Xq3gBNsQIfdqrgEu414JWOJUs4RlHPdRU3c1sVud8stZTsN4jxiQ8VDcwXjvKUCbhkx4lq5boktSNtSHbME0/ry9VKQTYr/BCQFNNgqxWlyGRfIDZ2/Wkop93SB4sIla6Vo6x+WKykgtb1U6es2CyIp27pNewQkpapbbNUauWTrttu69Ttto9K3bZf67HncDjz0rD325Ev2xLO/tadeeM2effkNe+F3f7BX3vyzvfrHv9gbsj+89a69/e5H9sFHn9vHnxyyjz89bB99ctDe//CzjH1hH378hb3z3id+3HsfkPa573vvg099/b0PP9X+j+3Pb38gt+0dLd+1Tz6heu2w5ShTUppeJkWpqVUGb2oQEM3W2tZiHZ3t3iuDRu9DNKhgLJuUDY8MeXraONbrdmny15/0W+zsbPM669ZWrtlmXV0dbjQiYV8PPUAYL7Wn03+zPdO4pKO9zdradC+CsI1tHcsQKA2Cr7GRZp3Mq5EZhrGOSW4qrJqpADJWQadiBp4qZNDvZDS4wgJ9ZPJO2InjRwTjFzbrW5cLxB8IxO/9h/3Ld//N/lX279/7d/uPywSm0r/5/W/Zv33vm/Yv3/53+5dv/bv2KS0D3ze0/IbU8Jvf17bcz+9dIRCldN+7/AqBCZA/TNnlAhF3FAgpyr3SVfCKn1LUi12pfVdpmcD4Y5odXXWNDHVMIEwrYwJiAuN1NyQguirKLQXIa1HEXwpGuaHXKzj/hex61NBVUXa7QLxDYArEmxRX/FIwYrfcfZ9gBDotHb5kCXh3CNTbgdUhFbh33OfpdyuuuWdOAiTrdyl+ma2Y5j7FPfOAkEKbBcu80GauYHNbIqVcslJu2ipBuErxi2w5y5W2cOlKLVdLXdbLJdwosDbbCgG0YsNOW75+ty1bv0eu6l65rzIp4/yVUsdVcinXPSo3UnHjKsWPihv3Pvi03LaX5JK9YI8//Yw99AgNoB+xJ598yn6lOOg5uXYvvfiqvfH6n+ydtz8SYLhkJ+SOnbSjOXl2sjCjRnKzqoGjkaEn2m2A1kbeP3DYuyxF/S8NwtmmbpdjopOu96inUYSWANHR3u6ddhulbj6cRXujzm8zRoinqSKjxQ8P9djQIHOEMKUD7YlbfN0HtpbR9NGbPw7QEorfZk6UVjcfHZ42zD0d2qaFVbsf009fyK4WY3BrRq+nlVcyCr0ga66ztsyI9jTFZKT7RoHFcPw0RmHbh+0XcJzLyPOkNTUyFipWJRAZvj+ZTwNjuji3qlKrZPybYsZHZZqME5afd9zyqObLOSIYD9mxo4LxOz/6rn3zh99yAP/Pt//F7V+/868CUFB+X0ooRfy3733DYfw/gvFf5ab++3d1/He/rfVvSS3lvmoJmN+Si/ot3NHLcG8T1xO77IrEWAc6DAW8QvGhLzNqyBIYsST9Z4pfKcQhbkQR5ZYKROLFq6+7wbcphAmVvPYXuKiC8Xq5qaQ7kLcmMApEhxE1FIQ33Xl3AuBsKaKC+1uw2SjjPQr6ZXdkTGp5+133OYh33jPP7roXw00FzjmeNvu+BT7uzH3zlgjIhb49+76FihMX23wGjVpESSpLqeRSWsysckBJo6pj3uJlAnCZLV2xwlasWm2r16611es22Jr1G2WbFNdts03b99qmHXIx5Q4uXLXd5ikeW0hBylpU8UFbsuaALVklV3WV4r3VD9i2XU/I3Xvfjp0oUAxTYZVym0pLyRAMsFRqZSUlVl5calXllVZXw8hn7cpgSRelDrop0aBCKtE/RKdehqzosZGhPqMv4rkzE/bluVNa0ntjROn9xrR1o1pOjA7Z5DhDiIz7HCKnmCNkdFD7aJ874Neg7W9vd4c3NaRZ4aCPb9plo8NcgyaJSWP7sRGOFYwdtFVu0DmtxlQDDGDNbGPYoCwZVV4Q0pdV1tstcOmB00Pb4hbfT3tifoM0hv3kmpyTDIRNu+QmwSjYBFRjPaOAC6iqEjdGvk9mShN02tfSVO33Q2cGZk1j20fF9/PK/BxmXGOCHIwZ2CrLk8mES5g+vIDOF0ct7+RhwXjIco5/YcePfmazvn25lO4H35CL+u/2b1JF7D8E5r9LKVn+x3eliN8RhIKRmPHfHEYBKPsXrWfD+E3Fhd/6PqWnP7TLpISXyS1FEb9/OfGh4kS5o5fLrpBLiiIm6igYgU/bP/zRTxOIdewPBDBK+qMrr7QraQWRiRuB88qrFUfKbb1GUBIjuilOvIZY8rrrHdargVdgulreJPulVPQWxZa3yW29/Q53UW+8U3DedbfbL2W33kXpG/DdJ4Wb62DNmb/IFgiYxVKuZSvXKLOv88p7KvHXbdhiG7fusG0799iO3ffL9tn2Xfts5677bc/9D9oD1H0+/IRioqQA4sDjz9j+x562/Y88qfTH7cGHH5NJsR5/1H711JP2/K+fs9+8/JK98tvf2suvyF5+1V5+9Q175fU/2kuv/tEe/tVLtlQxGYU8CxRHegmr3FKUceHyB6Wu99uKNQ/Ygw+9YIeOFsjlGrZz58/bf/33V/ZX+kSenbS/fnnazguks1PYKTt76qy2v7TzZ78UQGdtSmk0G2SOj6nTY95jng7GkzKmIjg7NapzxnydBvAxvyHgMCXAhNJ8lPQpOh8POggxbwfHAAQ9a5hPn+OZC5Fuad63MjOyO1MmACTryYDVDTqPTt002qenTvu0paeX8ynm6E3jMNJ2uVn7W6evTVoyZ2STnxdzOXIOA2ozn2jMKcpcjCxj7tBmh63UR7/nWMbeZclYv0wGTIcJzomZvDGfGjFjTCZcSnPRfAYGP2L5ghHLE5AnBeSs//jevwq6fxVE/yaYvqH48Vv2Hbmn38JF1TYw/uu3/9X+XUB+U/HktxRbfuuypMCG+PEb3/u2tr9j373iMi/4oeT0e4odiQ+JG78n+77c1B/Ibf3hj64QhD/JtHq/0lsxXHX11fazazJNjGhehAqy/fNrZNcKsOvkgt5gNwgmKmypK7r51qRO6HYp3F13Uyc0J7HZc7z4+o577pVlllK7ZPteu/NeHTNXLuS8+XbPfLmW86ViC6RiCxba3bLZCxcqQ68UZBukThu8hc3mLTtsx669dv+DD9kjjz5hT/zqaXv62eftmed+bS+8+Bt7/Y0/2p/eetveff9DxUufKY763D759KB9/sURO3z0uOXkMn97mRWWMP5JtZVU1lmxjNmhiqVKRaXlslIveauWejXJbWunQbxUA9eum+Egunqsub3Hqura7f1PjtnG7Qfk2lKNsM3mLN5m9y3aruUum79UseSyPXJv9wr+FyyvsNLGJk7Zf/7X3+y//z9/E4ynky5b56bsq/Nn7Ktz5+z8aQE6dVaAnZOanbFTAtR73SsGG2a4C3r5yxj2gv6PwMcEroDJMoFJCiUDNnqpMD8H+08JSI7xHi50TxOQPl2DQMSAlPMBIQ0QcDABKpPeMjUCwAAOsxTHejaMnBfXSV8r4GSSVo5jm9HmMdbjPEadD7DCgDBAxIAwQANKRsTHWAfCADCMjhOkx/5sGDHWme+xUEo565vfF4zf/Rf7huw/visopYbfwuSiflP27e9/Q7B9U8vEvkPhzg++I1cUIAWm7LvavuxHl0npLhdsAu4nP/LK+5/9/Gq7+tprEqB+cb1df+MNAuqXdsutt9htd9xmd9LP7J7Zdu+cOTZv/nxbuHiRLV22zFbKVVu/gUYGW2zHzp3e+uaBB/fb/v0P2YGHHrbHH39CKiIonnnWnnvuBanJi9P2nOzZF16QsdT2iy/Zr1/6jb3w8sv2gpTmxd++KoVhGITfafmavfC7V+0Fbf9aSoS9/Nrr9vqbv7c3ZDSPo6ncO+++bx99/Il99vlBO3j4iB09dsKOHc+x4ydOen/BEgFVVV2rwL3R6huaZCyTErn2TkHVN2j9gyPWPzxm/SMTNjA64Q3CB0e0PTSsfUxKQ/cqZb6JUTtz5pR9+eU5t/Pnz9nZc1/aqTN/1Tln7ERehW3ctt8r1+ct2eowzl0CjDttrmyewFyyYpcdePh5QV7jMJ47f9b7SE5MJvNHnma25NOTdo5uWhMTNqV7mcRoKC8QRykUkUs5DIB0MAZIQQVkGEACW1g6fWp8yJexngZ2RhnlViq2Y3t4oCujfI3TigUgKCN9QAEyICQNhcuGMQ1kWGwDXBo6fofR6LGYBoJpH2LKh0jHWE8UMJkSApUsL2Gw7pMOWygn0LGNGxoW+wNajiM9G0ZAJI3lrJ/f8FP72XU/ktv3Q/uJ7KfXXG5Xul2h9J/YtTf8THHXz315zS+ukst3jV13I9vXaJu0nyleu8auv/kX9stbbxJoN9sdd91uc+bdZwsWAdgCAbbUlq9YbqvWrLJ169faxs3rbev2LXLldtievbsF2gP26KOP2K+e/pXU5tf22uu/sz//+S0B8KF9cfALO3r8iOWczLHc3FyvlykvV1BcU2O1FCcr4zd4kXNS7OzWpPWmZmtobraW9nYHooMxTqQ0Hb291tmXWEdPr7VJgVq6u6yZxuMd7VIgirNlrS0+yUxLa5u10SudQYt0vo8m1tvn1q31LilXT59iG3q7j4wqA4/YwOCQ9fcPeIEF6XTunZw8ZWOy0cnTNjZFL42zNnHqtI1PTijD05M+yfzjDPnP8BVnBdHZ095D/9zZ83b+y/+Sy/g3Kyiu9TalcxasSyrSl+20BctRxZ123wLBOW+zLVqyzR488IyVVtTZiH4buAYUh/X2KZMyrimzLEu1GPpijKELBzBm8U3moxhVjDciiACRuSF9SjstcVVDFVG9Myl31d1XrZ87LaA5VwoJjAFkAIsaBoyJa9vhGT/mQsEAEuhCGYER4EjD0hACabiaYYCIAR/XCqUESgAL5QO0UEOgwdUETo4PcLmfOAfoAhygRCXTIMY0+jGVPvviuixJK6FLomBECTGuRRo267kXH5d6PG7Pv/CEvfCbp+ylV56Wijxlz2n7mecfkzsm+/WTWj6u7Sfs+Zee9raptFl97oWn7dlf/8qeff4pe/43z+rcFxTr/MZeeVX2W+KeF+3V38mVE1xvvvm6/eGPbwqyP9rb77xlH3xAkfaHcuc+sYOHPrfDhw9KbY5YXt5Jr4+hXqa2tlqw1QowelUIvDqpT32ttbXpQXUrluihhzoje4UJDEzQ9AkEVxyG6aNUb1jGYEYjyphkTmx42HqHBqxbx3Xp+G5mJPJic0YTS0oC6fpEyaCv+7UYFn5Qacx5yPB/yXAUDHhErMW8+2wPCsgBATmkY+jMyxTgo+PjuraURwo0quNHtGRSGiaEZTJXSgApUaSUkCEG6YP5pXc8PicX87/s3Ln/ttKyelu7Ybfi2DW2wJufbbf5S3bYvMU7bO6ibTZvIR1yt0sZn7Oa+hbvosUU5Ey6ynCHDH945vSQ3FJBPyYVG5Zy0etF/2fMx6fh4yG3VCBiE5NDPrKc24RiQMGVBhFj3ae1y6QBH8oYkKbVEkhRRx+NwdUyYsKZCYpYBypcVeADDPaFaqbBuxSMoYQA+M/AiHIBDCoYypjM5Z8cg7oBH6ABDgByPK4r57IP2EI5WeKWko5CAmYAmwYSdSRmzD1x0GYdPf6R4prPrLD4qFVU5VtNXZFVVudbcekJO5l3SIB8Zkdkx0587n0c8+lYXJLn3aryCuh1cVTpR7xHRkGRQCqhNUKe5efnCKzjipfo30j/Ryo6C6ystEjKxryNTJxKX8Y6a26iiLjO15ndx6fg6qR0jKHU26RKrdbZTv9B6nnolMx03/RpZDyV9kw9kKyN42Sd7crYXV631K+MzdKNdQHXk7He/l7rlqvU2Ttjfe4uJvMwDEjxfFgKma9Tz+UdiwVnv7Z1DH0nk0GWRpXppIATSZ9KrkFfSvpKsj0lSAGWfpdjcgWxYT4MPompQNR/9BmTBSRzT1L66KOuTZLZpwTkV1LIv1lpaZ2tXb8rgZHG44sVO8pVXbBkpy1atkvLbbZEinng4WessaXDzn35pZ0+jTJL1XzQKwZKZoBh5vuQ6gkQnx1L9zs+gjvKx6jf4cWSyVp1rMMoNRWowBXwYZEe+2IZkIZSooy4rCgiMDISAzACSRpI1gEqVDDAYAlYoXxYGsKwAJHrYAEk1+c6MR0g6xguKGABVTakETemYQQ0AEPxYl82kGFsAyXGNueHugIiEOYc+9yOH/nUZn3y2Z/tyNEPBeMRuX1FcssqrLGpzIEsLDpqOTlfCMTPBOxBbcu/LdOP8KMVwEXl5Qkr4MJaFgtGOh2XlRUYHY6po2nIzHFOnY1Po1yrNBlpbS3UMSU9+plokp7+bDPUhs/bz1AbBPx6eYyFGROo9ghE4ATa9laKpBustVkmqFkyNRfjuXQz9g3nDAogGUs3ZXRsUJljAONr7UsqiJPxYBhRgJEF+K0e5vgTqIwoMCJ4ZkYD0DlKH6SDsiCNdIxifvYzqsDUuFw4xYG4nGeldMSEp6R6KBbVAl687yrRoQyLe8c5UQrJ2DrK6ONTAum0nneVrVm3y3vFL1TcuFBx40Kp42K5qstW7bFFS7d5+gMHnpSL3ml//dtfpaiTAnJYHwRBx2jdwx0CRr8j6JIh9hm6kQIahgbhGXXpI6ZnL+tnHNURBhqWe5pyN8NdxVC8SGedtACV9XTMmO2mpmFML4Eq3FMgQtFYAlra0lDGOudzbLi9QBzXALCAiG0M8FA4gCSdbQBlnWMx9oe6oYpsp2Hk3LTLmrYAMdxRDBgpSQ0YT1C18fa7r9kHH/7eDh58Ryr3mZSN6cSPWH6BpDP3C8tjTNVCKWLBYUF3xHyW4+IcmaS2SGqYL6nFlE79SaHUsERQ1jE/RpO+LjKvi2lknsak/gZrrKvQH1ZwzChw1PtQASvratPXkTFwMkumhWPGYa8Two0DTn1VgcSH4BDIzLneLiDbm5l/UUC36TpSGSqCqegdogJZRl2ZG/DJqD8bHtHXWrHJqDIbsRJj1DC2TX9qECt3qRjCQx8CBrgaFdAjOg5j3TOzZ0QGnSK2wv1jGA5GX2Mmq0Epy7idE4TEgmeon5tk7E7FZzqXDEpBBiPPnVI8hwt59hTVBoJZ+yfl9p6dOm2nFG8WFVbaxg17bMECetRvkm11ABcv22FLVyh+lFrSd3DvA48q1u20rzIwnjura5wGalS3Xaord1XAM7I5c0S6Cyrj3kdwaYf18RtWnDbKXBg9Oo/47eIwxnooZqgmismxF7qlSclqwEi9IaBgQIQBGaqYdlNJD+jYT1pYgBnbAV6oG2DFOuAESBwDqCzZZh/HBqSsc06chxoCG9BxfJwTMKKOAWTagBFFjDjxYi4qy1nvCsb33nvNPvzgTfvsc6nkkffs+NEP7MSxjwTj51Zacsxqa0R7uaSV8VALFHQKPKDESn36cUl3hRSzNKEfGebGqCzlj/i8i1pvytw01iQYeUBemdulWKCLBy4TmEx+yjCNPlixLHk4Wm9Jhm9k9DYGnsIYvpEXzcvtlVr2SlW5jg8UxcsnowMjEGodG8AGtU46L5xCAkoNlTl9GEUyGIP2Ahww6zrDAtFNX3KMggcm4jw9LldSmdhHCc+ss3QYtZ9BrHwkboFKZp+aYGRvpiaTYnB93QsKgCWzNyWz754TjOdPj9lXAvc/vzxn//3V37R93kqLq2w7Ff/AuGijLVq8xRYLRoDEFize5B139z34qLV3dtqXX52zKYZ/VJzIpDrM5QGQp+WuMvHOObmfX54et6/OTdlfqciXSzul9HHtH58QhDr+tNza03JrgQ3wQv3CAkJGufvqPNcY9+2AEQABj+fBdqL4gMgHT+FFJvOHKqZh5LkEbBEfAly4oHEOFtuoIXkrVAtoYp18iV0KRs+TGTVlyT5cWfIx+RZXNMnbM6oZQEb8GNCGoY5wEXWKUb8IjLEE0Fnvvv1be19AfvrxH+2oIMw7+ZkO+NRycz6RfaaDDllFGYBRFPu5z0qcd1IkM4d//hH9UDKbMfP3+5TiUsySwuO6iXzdPHNrJOOiAmKD/owP6yhrrmf2qFpj8GFG9+5uY+aoZAjHZF7AxHyUb8xHA0+OAUaf+0GQMI7qkID0sVMFZB9xFy8007qC+feZo4+ZmIb1cgcF4YBUCFdsUEqEJbERJZn6wgtIKqoZ/JhZe2NOiVFM6z7MPaZ9DMtIzOUTuGh9XJmN9eRcQEvgZchI4Obak2RolNMzNQrTK+WL8VUFouK6sxP9dm5i0M5PjQjGSfuvL8/af331lYA4Y0UF5bZjq2CUm7powXpbLCVciiouZ1iNHbZ85XbZFnv40aess6fbTp+d8v84MtJhp6Z6pI76rQnmSGRw5WR6NqD/29lJATkpRU6mAWAa8xFmg9JxuLcMvsy4r2l1JA4MIx01/KugBspQyPTxbFPAA6SACaTACABkeBQNmIANBQQ8IAQMLKDkmEjDQlkxtgNE4MACyIAlYAK0OCeOZ8m9hIsbxjW5BqBxHKoZBqgsOZffCmiBEEXEJUUJA0aUkEr+UET2ccysD9591T796A927PD7etEHJalMlqqd+cl8GUx+mi9AC/O+cMvP+VwX+Uz2uRXlHfYxVpkenLFPG7VkGyCTiVULMuOqAiUQ6o9kjJmnutpqBA2gyb1s1sNpYf6NZMIaBhFmDg0GCGZ6MtaTyVeljHpZzH40DGxyXTAmRiWdQYUZfLhPasusxbzQcSkfk74Q+wwBIMP5+0QqnYJS6jlMZhVcjKLNsYJzXOCOCVhGHcdwIYmviLNiSjePt3wc1Xb9PvfQ5iOTxzk+jTXbug7HUlTvqgvwMkYWdxikPF/KhTw/1W/nGXkcV9VNCjk5al/Jtf3bl18Kkil9BEts2+Z9tnDeagG5zpYs2mzLl+8UiLtsxcpdiif32Lr1u+zJXz3vVS+TAoTJYfr6G6XG7QKG+rtOfQAUN45IIR3IYf3+mJQSNSPmxa3Xsx3S/2F6O7mppyZRwaQgBnczDKCwADIgxMJVxVhHNf/25WlXTtSVYS3xaghjACDACrUL6NgXyhmqmAYwjGMBBzACCvfCBBGgBJDsAyCOjWvFORzDelo10+rI+RyTTo/7i2O4Du4qcWLUKaYhJEYMY5t9HDPr6MG/2PFD71qe3NIixYxlRYcE02ErKRB8mSH6sXIpY3VpjpbHrDjvoIxJUY9ZNTBWF+kG9KcFXGNVkW8zwQ1zaDCpDUvm2MDYZrqAZCaqSkHDdGq4n3IPWpn0hpmomImYGY2ZL4N5NGgGlcDItAADAm2IOQNp5pQxtn1yVCDMmM/BwUjfQyiZMs2goAkb6vAl9W6Dg1JXwQmsZESfm59pvwXq6AAwMROvYqwJ5lSkWkAum5TMj9F12c9UaIwqzpJJQ1lPjPksdA+CFsgBkgIa3FrcxC9PJ/ZXYJQCAeN5/c55Zf7zk3Ijlan/Klf1v/76V2Xq04Kx2LZs3CNVXCsQN9riRVRl7LDFS7bbkmXbbdUaAbl2uz32+NPW2d1ppwWZz5/B7L8T2haMp1gy25VAPKff4T6YL/EUngF1e3yUpIhuE906DzVF4RRPywth8OiIAVG8KEGNqgugBMAAEkMRUUxADPcVd5XrMExnZOhQIkAIAxYUMUpXIzZMG/ByXKgYUAANKghAoV4sAZMlvxcgc14Axfn8LtdkO47HAtg4nmtiHBdpHMfvoooBIyBSSBOFNZSexvLooY99/6zCk1K+Ex+5FeV+YiX5ihNlgFkod7VQIBZLEasY8l9qV1GsOJEh+5l6vOSE1VXkWyPwoY6yljr9cZ/EFPiYRwMVLPVh/Znwhrk2SMd8qP/2Gqkd7icwEl8mx7FOejKzUzLDUxzXz6Q2ACnYhoFSBowxNH9M9ZYMu08zKto7ttlAv9wcGRAOTcOodBnrI1KK8dFkGjRsXIoZs1sx+y6x3HnmwDgFjL0CEcWcsTiW6enSlqRfCOOZScVwguCvZxL7SjHdX08N2FdSyr/pN/52WrGclOqMoGU2p/+UMk6Nn9JLK7LNG3YLxPW2bInixcVbbcmSHYofFTMqfly+cputXL3FHnn0Se9hceYsQ08yvVuHgBKEk8SLXYKwV9eXImdAjJLVCd0jME4SL07qGQha5k08JRgZHR0AATJABDgAAzaATCtkQIiFSnJMgIiiAjZlC5HJychk7nBdMcDIhpHtKD3FSEsrabiquJXhWvIbLFFL1vkdQOTcuEYAxjXYx/2EGoarGjBi8VucFzAHjFGCGm5qKCBLQEQVgfHwFx962qyyQsV+OR9LGT+wIoFZAoTaLhCcGDBWlRyzKgYyLjhixblSRcWN5QWHrUZwNsgNTSAstVaB2KZYkGVjTZFuiLixwMGLeQ8DOKDEUEJmoyKddfYFkAEqCol6MkOUp0kdAXJAruygwMNQS1RxGsQ+Xl4CImo1KCgBMQ1jAIlLNjzcITeVUkNiN772lGISF6J6zMnR6TEWQGKxLwAMILMNiDnWp9TOgIgreFqKhIv6pVzUvwrEr84IwrND9t9nR+z/++W4/fe5CVdGIDmLq3runDL5pL6shVLGvbZ08UZbvnSrloJx8fYExiXaZjjGlZvs4Uee8DauZ4FRH5lkmu52/X6HA/klU9SdkeqekgtJLCsQiZFxz32uEFRxTK42czYKZgpwzggwd7MFG0sAQ+2IE79UzJkuuGGZVkbUE+WMWDEpwOkUPE1y6ZJ2m1E4AiiABBRk7AADpQLCgCcbxlDHgIJrROwWBSkYkOBGsh+AgTzawAJW+sMAiOkYM9LS95T9AWA/v8vvYPGbFGyyzjIKbgDy2OFPHNZZqCAgHj/4tkD7VKonH/bYh5Zz+D07/sU7duLge1YqtxQrVKyIFeUotpS72lCZby21pdbeUDFtHY0CSkDWaV8yQ1Xu9OxTAIeFQqKYLNlO5nxMJiuNbY4FPiAMEJPt/6ex++zT47rOfM0PdsZWYASzRDGJWZG2ZXs8WR5btiyLIsWccyYBksgZ3UB3owPQOSEwSJoz58X5HPvc165nAY9gynNerF+lXVVP2P+611o71KEeO/a4EnyxSy+rqVizwxhlCiiLgXFhHMbs7zAGQO6q5aKXovbYaKFDsh13EUCljpbAsg+Udaygs36lVXlvoOoQq9CbqaDe3OtV2rnPucSJ5ze81Xgu7upC+yoq+YcLK+0r72QMvADxzsPPt8/lc6zkSfpBu+u7D0UV72g7rrs7MN4dGOOmBshrsn3t9Xe263d8dwTjyXY+oIj5vPsRjJuBcXt9pivx786vZJnPUjD2BJSHBrd0OMdbgxfzsFqPMm7n4QCscdUDICDLbFeZslLDIWEzZL77e1KisLLkez4dOlCrqAVkqZfKrZKXuwq6r4OxIC11LJfRuaB2HdctKN3H9ZVxXikuqOwHlKVzrNdncC3boHQv97V0vEClxNW2yNzTkkoWlEAcd1/tu4oavvv6k+2Nlx7rqrj74wSabz7b3nntqfb6i4+3l5/51/be68+2j95O7PhWCA6Mn37wetv/yXvt+IFdlwAsmzoeic++w97z/+nw2jivkgMkhQQf5QNime2C8U9ZvVz1ShjHbXid2/AS1A4jELsN7igQLc+K7xan2tkAWLaYp//KakAbwchAVNABaxxGcNWx8eOs9rFxGM9vx/WkeMybpjaoZCp+XEEvXd0KAJI4QLkoLo3LuLIQGFeW4qpux+1ejEvzbmB8OCDe2W6URQ2I1177/cSN3+9ZVb1vrt9xR3v00b9pp6am+nCp3tgflVtbBuNUXNTTUeHFEYyBKrBscC9H2eCNPAQ21+YC73R+O7+jtxlHLSWuxmLBgm18H0CtU8JqCqmkDwh7e7I25CwBKV4s9SpIqBYDAoUaVyHAjLuoIGIFJFMOIJbVHFLAFGBgBw8YQVawg9h+5dwbXEC23zV8ltpXn6kgrfIFo5iRFYjUkMtqnRJWhpUB9ipq+N4bT7U3X34sIEbxdqXA2893e/vVJ9tLT/+qvf3yk+2DN+O6Bshd73JR30z8+EFUMe7nCMa+jE0dj/Id29MTNQe82Sow7km8aek9jqAURwKzlPFPwUghy22dmgBkKeXw5uE/BaPXtYHx7J+CMWr4p2DsafxSxyw7kNy2katZIF5I3KiM/XWMDe9wvAyjY87ZAuO55cBhPCG3ThzF3ZuJanBzvbI8LmS2JVY2JVJSiVcWcu5K4q717VSG+fbS82/GTX2k7bg+seGO+9p1gfCawHj99fe3HTvuD5B3ZXln+8u//I9temq6ffnFud79bS3XBeNWYLy4Od9h/HJ7JW7qOIyxMRg1fyxr+M/vN2SFubB6Bw2gUTyuJ9WzLPe1lHDcJQVegVhme/L4oV6BAaISV6N5KWSB8HVqyMZhrPVSSUsuKBhtgwaQzDWBVGUL3gKuXGRWD4NxGIHnOmAu5S1FLRipHfgkcQBHAQEIRlagegg5/6pPPng5MD7dXnn+Vx1AMeK72d6pvfGdF9obL8ZVfe2ZKOLLUc7X2meJG/fsfDvx4gftaG56LE+Y49LH2g7zQSYD5Mlj8fePJtA9lB947wCkV8MNr4cLkP0NyJXU0a5T7ukYiLHJ7Js4Kr4cyg1uK3d1rD0ShGWj7TluatzSniH1Fl7gjeLDM1L22V4MMGdjZwLimQ5m3NG4c/pvdni6W8a1HClk9nX3bXTsfNxMmVVthGKsAUZxZtQy6ijLWu5rh9V5AA4A4rhzidc2KVbuvyQuOzOZsonp8jkGwAcw1s56IKwFoq38HjPtmSdfbnfc/lC7ocP4QLv+hvujjPdHDR9sN90U9/X6e9rNN93d/uav/0vzeuyvvrwQRdbZwOeMixrAPo87LE79fGOxx6XnVgLX2QA1z1UtILmriYuXfb5BXbz2DmSgY5U9LXOsIARguaMzprIYwVdWQJ48oSlicCVLkVRmpmLbDwTQjIN3JZD982lOGiV57C/QSvGABCBQOladLQrWMuVBpjxzrn3MNhAZgMZVtIzqephUNhWIsqhvvPpcd02BCFTAevB4ALnfVR+/93J7M7Hh00/8Y3vhmV+1F2MvPfer/krxTwPe+2+92D54O+sfv9VB2vvZ+21vaN4fP//AZx+3g7vjVrhg7FAuevRAgMwH9Oo3rwU/dlifPu9sfC8K6QWrH+TD7owq8sMDXspMnpBult0CoSeRzroCeF9Y3ABIceT+/DCXU+DlWvROAR3EPN1O5wf1SnHNDaO2Q2/hXdR2tjjTzfpSKvtiKv1CQFwINAuB5mwgcs5qd8mMVpek0LtEu6AnP9CAEmADpKaAlVGzSc+UZj9byT2WtF+OKkiNWteGuULxAvl6bDVKvFQwLk5GvSSJSmEBwRXmCq7n2EY7fHCyPfavz7bbbnswCnhPFPDBdsMND0Uds7zx4XbTzQ/3Nsfbb7mv/ee/+/s2MzMbGC8GxpUOo7bFgrE3oSRWvLAaIONmbuhXO3e6Lc4OnRx6u2pUfpXldxmmwxiAG4dxfL1UEohAOzVBicRtMo3+Kz1luJEDpFVmSm+r/JdMZVfBVWrLUkXwsAKwQGO2/xSMzq/rgaaU1jHnMGWpnrpU6mhduapnlgVzuaSuW9dmBaclICleuaRiQ5lTMJZaAhKwyjn/qncTH77ywmPt8X/9efvtr/++PRF79sl/7u/5B5+G/Q/jmgLp8P6d3Q7siRsh+6VDeGxfwGQHAuaR/XE9j1Cw4d35ADtywFQEeq4bAzb0zCn4JuPWntBhwBuMs7TNHDtBXfXe0VSSdYB627Efo1wEP5Qfr7/zEYhRxIW4ph3EALQas+zwZV+BaDSC5ZlAOB8YGSAXtR3GZNc2tAcasRCzXn0lCzDmj/Tn9+5sgIvVINh6Yju27Fz7dSaISgJygDFPZ26qd/kHFN3UNvPZqOxmYPEKO6M2VpbW2r49R9s//eK37dZbH+htimDcccPDUcMo5Y5H2o03Bcbr72vf/c5D7X/8t39qM9Oz7cvPo4ymzsi9Bjd4OvHofDuf3+RiQPxiI3Hj5mrbNrZxbi4w5qE0q3318luYPYg8nNbzcCjoCkIu6ZVuqyTNhEmcvFXsqMSG/8r/JFFicPAw4r8UsyAoEKriW36dKzm+zQrI+r0LxiqjngBk3L0cHuLD+fUQYONAVt2ydA31ThnrVf9sF5DuMa7wFQsDDpQFYDV1VBsk6zHjG1HFl5771/bbx/7nJXvpuV/3Nw/rPfNZXNIP4qLqWQMaXdsO8e27Ig5WUB7cE9di/5Bp8kG9ixFYQNNVDogFY0HG9ODpXedSboDu38IIVNv2H48r7B7lcgDx9JgidqBSmdeiaMy76Qu+bllfDhBLUaArYaScS7EhxT8AqSmiBrnWn1wVov48FQCE1Z+ynrhMwqj3/Im5/ko+j3f1U0fKrelhLTGrZA4YB3fXEowSIpuJ21bbJ7sOtp///LF2861xTa+/t+24MTDe+Ehc1cGo5A033Nfu/N4P2//8+a/a9KnT7eL57cC8mOvl+8Td3IwSn889LqydbV9urLbfbW+23xkzmfusn1loS3PxHgLj0gjG7l7nN/RAqu5w4zCCUAKnzD7KVxAyUHJNATh0ih/aGEELyOmTw2/oN2XW2ThktsHp9y7I/PcFTP0nytd/w+p/KCBBU3UHSAVP7XcP57lfXdeyYLS0zaqM67h2wcisU8dyucvEwQAFYikmFxagV739xjPt7defbq+/8mTsqfZm4sOPooqH94vrPguEH0QldXv7cAAnNzjgVXC7ze+hn9+nKTvYkQPxnQ+OJDtf7MSxSHbivcOJHQ/kenviou6O2u4LkAejsAez7wBIYwcD42G9eALcCeo4YYhVrhE19LLV/sJVlu1jR607HmU8lR9mJj/+XH50fUEDhFEHva9pKg/TAXwp24uAzLKP0AgQS3niL0Qp5wIJOxNQ9FNdWozFLbM0Q9nqsuFFc32cobcYe8Ox8YdGkxh1MpXPMGcGMn1WA6N349v2uU7r/K5ypELpF+tBsL612LbOLbeNxJDUcZkrmPhM8kg2dz1l9HbxluW1pYC0ut7mZxfbBx/sbv/lv/wy7ugDcVO/33ZQwht/EDAfaddex119IGr5QPv+vY+2f/7F4/ltZhPbbkZhA1HAWo3HsBG3/FzueTGx4leba+13WxvtqwAJRq7qsmFi8x5G4mMDhIc2UW75epSxYkJ2pdvKbINRLMgG5QMa1RKjDecxUNp/Or+jSj+uaLVdHgioxiEFQcFYD8QrYbTPNWyPAzPuVdX5rLbr/LruOHDjsNbncEydL3Vk1iuhw+q+ypYLW1lWDf4dxg+9Rlwb4gevtY8/fD0HExvufr+rVJfayCeKndgzXVHAz3YZoyUFrQ3Gh6B+3ABZ1Msf4MihWGJDbzD2WnJvNP7kk3eyTPC654O+j+0PlN58fPhwYEycOBEQT56MO3AqrkOWk5N5umbfBBd1IoB7C7L+jOKQgGFwrrk2DY86m0pkWJSRGCZTYkZkLAaos9m3CEb9L/OkX8pyIfvmAhA7A8SUW0qFMpTKSA/j+2z3cX5g5F6JeUAZ0GoOTfuVV9bIkNnTBj/naR5Q+5uX8znn4qL5XOtbUZNzS2096ihpxFXtbZySRXr35GGhE/liwFhcSAVfXs29zrR33tnV/u7vfhEYxYz3tRtuiiIGxmsC4jXXPhh3dUjiPPzgX/fYcvrUXHdxDZFay/dbjfpvRBm3o8YX8t0/X4+Lur4aMFfbVqBfMx9q7mlY2Hp+h6FzQj5rPo8HhM9UGVLuZhmoCkzHKR4lBCXYqsw4xIzC2jZbHIhKxaqi2+aR+Bzc5IISLMqMw2TbueNA26dsAUP5qNa4+1vn8GZsu1bBWErMnIcH13GuffVAcKzqvDKme7wSxlJd1rkaNeFI4uDrk4/eaVft+kh2R7o1O/qQqLcDngZYaddhVLLCbNdHg7R++J7yJuXZmRuB0Qcly8Nck25yMPQfEQseizIGsr17TWseX9m9AuSewAjCArG/cjzgHo/ygW/KS1Zn8kPEpqfjs2f75Mm4vbGJCZDmuAo+AvFsVAeIZ1Nh+nJkHcyuil8H49nAON/mU4Y5DlxA1pCrAqxgdL8+TjIVzLIGRM+ePjWAmwrmPLCe9EfJFo5sKp/X8C0xLPdZ7NibWOI+gnE7innh3EpPuJhvZu60e1D7xTyY5tubb+5sf/u3YIwKmgXupqhiYPx2QLz6mgcSLz6YePKR9uMf/qf25BMv5UFF2dYHGPOgWYvyb0SFt+KybuVzbi1G8c4m5jNbwWx+r5lAlpjRmE1d30AwDoIxlwYDA2y88d5SHDi4oOAajtsu5QReqeEApBAgqu9hyWMIDAwYKrnKbt2D6fPzhmbp4WOwsqkhByCrnCV4lHfMsoBiylBCymRInn3Kievd03cT6ztPWSN+XBNk4GMAUq9LHR1zvQFExzTNDB0ECkYKWE021bbJAHhJ3CJ2FTdeZTyiIU8ff2DU8csBjWQC780OpuBTalYmSGpWp9b33n41cGon0UgrBT08DUzg6qb9A+SmB/bvavv2ftTf8/9pAAejMZC7cj/b+/Z81A4ZUiUuHLmnJ2VhTwEtT72YdWCeyvJUADyZH4JN5cfqk9qO3NOFVJK5/LhzlrHL4xUHQKneGesBbjlu63JAXIz7Np/KMpv9bCFlCuYa90htQQZKA5WpWx8nOYK1u6IxA5K5yFzaPvluPsvpmcQaPm8qgFmsKan9kkp64VBBTSnmpVmL67i1daadM/bQwOI8FNzLdCHLUcbpKOMrr7zffvrof28335L4cMdDHcbrbvxhuzbxImW87tr72223/qD99Mf/rT379OtxkSnbelQOjEOzi7bRi7nvBQ32y4HhTB4Kc/nOM/m+0/leYMx3G+LCfLb8Jt3ym9gnJgaeoU+Ao2qDsokHJbGGoVUFXXe38xtbysjWPrAPiR/9WUH8x1lQZtv9DLQGJKPUypYygse6sgX0uHqa0NiExf6HYSLkEwlB4olI5onhxfO5ns9QMMpBTKWuDZMXJ6aMHaFmgefwwU97+GWfSY95aITo0IHAR5iM4TWoPrHykUOAxITYMd5h1NCY351xSXfFPTWx8d7dH7YPEwa++/bL7So+K3/1vWy8/soz7Z03X+ww2r8vBVGt/9zLLzzZnn/m8fbKi091OD81xUbKfLZrILxkufxmT4DPQj/ilXePz6K0bGeuz/jNXNlyHzyByvU4JflzYnjyWLJ6SnV/358wE3dmLi5JbCY/8lR3C2NmBggcZ/JHUkYup9nR2BmVJU/k5bXFuIyBMZVjJhWHzWV9gWV9fmS2zQpgOTuCkUJSS9MXShYtqEh69WRpRPxmKoyKrDueYVz15F5QYfKnq1BfXkys9rnGf9lSSZAoxXrcw8DZh3txm/NAWVyOOm2dy/dZbs8992a7/6G/bjff9oPEi3FRd/wgMeMP2403/6TdECCvvvq+wPjD9hc//fv2/HPvRFkTmyZmNPsAAMwi8MX5lfb73Pcr4w43454uL7UVE1JFGRdnA/5C7r84JGiAcPZMKqpz8/C6EMX22VV40Pi+FGVQtFO9Qju+lXgUbLVfJVfW9QYIZWDFmAOkjvl9wOO6pVT2F2QUGpTOs7/UTl1xXl2fWb8E4+nAGLhOqVfZnjeCRqZdJj3/meNsPvdhMykzdcrULYkRU/dAdyJ1T57iYISDwBzVuSVCIUTiFZ04fqgdP3qoL70ioE8hc8KrCxJL9lnI9wXU3QnJdkaEUv8jRrsMyt/9Qc+jGLD/9tsvihmH7jiUD2g6rXJJuaf8WlAJMF996ekOpOMgqqwQuVUOiAw8ZBxgJBiEoCXNpZrW6xoV1FaA61w/sutUIOxaVY7VevfBp45247ZORoG4jWwqKnTaDxygaoqNs0sSN6koGyttNfHS0oo5SwPjfGCMzSVWMh9OB3LMLsEYEE9HFSgjtaResraA9MeqNCpLn3ltTWVWGfNHB0iT6PZeLCpsKran/JcXE69t60YmK3m69wc1YdSqTC+VzsPDg2P73MWo/kp76unX2t33PtrfQnyDLOqOKGRgvOmWn7QdWWpvvP32n7S//tkvoqIf5iGx2ra3z0V18/DpMC60L86ttq/i8n2+vdY7oOtqt2Y6ySjkalzW9SVqtZjPkt/J90ulXYtrqC+tzwwI34H6+L7lwoLGUuaWAa3KgQNcgBqOawYZYHW8lIw5xz24pK7huuOAFmxAG1fFK4/b53oe1GAU2kzmAa+u2AfKmfwvpwIeU8Z+01nW/omUr/MAefhw1DEwHgmM03nA8og8/IUgJ7yLIzaEJAGxv4fjQH8PR38ZTmDcE04+AaNJ3Xa92z6Lx7h7txfhBMZ3AqMuOpVe5YaCUlzIPaV4gAGTMgxcAAFEgVXQ8pft97QCi+0eP0ZdK4hlyjrXuh+0glrbBRsQS2ntH89+AdU+ywnqmR+sW36IgnHyZAA1t05cKZNSAWpFJdveaFvnNtvG1noq+lJgNEMcZTzd5gLrmajClSCOwziTeEjCyEtZVrikIxi7gqRCgFH2UcJDJ/X503ka5889WzDGlTMTwHbKbMueBjzNGmvLUx3GjY35th5XciXX4S6v5DNuXxhg/O3Tr7bv3fXjdv2NiRd3PNxhlMC54aYfdRh3RCnvuOMv2t/93S/bW299kth3s104f6GtB7rlVFTNJed19s7DYCOKu57va+7UjeWVbrrdbfZZ7vTYiQsb24jSUXqjNigjmKrC+76DB/DHClaAKgcQ284DGFPGsXJJnV/mGK+BlUuqnOsz2+Ad33Ytn2Mcxg65ZT4TuCT9jkbdjsXFLPguPcQDm32zswl78lC9EtQqB8IDUUdQCjt4YCZTM7uhN1AdPTK8iYodPrQvSronEMZVjRt7MO7q7niaICwYPx0lNMH43nuvtKuoXjVAgg2cXMtSLkbhwMmAB4SC0TH7qmwpHIhACMaCGoTMfga2UjvngasC7VLFuh5oy5VRvoNYMCbO7HFkXIbupsZO5YcCo+WMuCYKCcatwLh9fqvDSBlnE5OBcfbsXFtIBZ3PEmzAm4s7WkBa2u6Z21xrORV5VfIhf36fOWCkjCqeJoFBFblKEgLHAuNEn5FgMW7bSs43WLm3/cmkGk0/avRfX9c+GkXKNbjYa1Hw859/0WYD4+NPvty+c8cPEiPe167TpgjEQHg9uyGua4fx0faf/tO/tHff+awtr2y184FxbW0pSj64cB4EKxIm+c4rvetb3OCVKOiqLnegNBFW4rh4EkvmAUolp4yl+ABR6cdhU/HLbfX97fNbFKzOBSPFs1RG2XLflWPOUfZi1LuSNcqxul+VY/37pAyAWanx+HETNvt/AAdEUJY6Mu3TwGRgVPbrVNPS+QcTMx5KaDWRenoyD3wzEXodHPVjICwQ9+/7LEtNe97R+FngS7woRxN1ZLt2AfGt9uGHr7f333+1XdXTqlE+xl2VoKkhHUDjhloWQAUcIEE2DqPjYAOZ7QLRcaZsmf3KFoQMZFTS0vXHVdEf5w9npbwC6P5U47/nT61pHRkAC8iTgZN7uRTYNrbW2maAXNswgfCZuLKDizpPFVfO9rjR68koYHdJR25uAQnExVTUNW13MfGiP3Uhf+Bi/kgVUa+VIV6U3r8M4xl/dj7XUkA3S0Bv+wPjYhRz8WRiRcO4UjFXUpkpzlJUcnOtXfzyqw7jY0+80G69/aF29XX3RBUfStwYNYyJHa+7Pip5/cPt9u/8JDD+Kn/u3g7juXPn89BYTCUbVVCJrXy3hZl83rnpuKZR8sB4bm29w7i2mJiwzw0rKZYHivNAB6oRlKVCtSwYLW0XjB0G5+WcIZYc3FP7qVo9YG0z5ygPWOcAC4iO2R4HrvaV4hbkjtXxtXgnm1F0vbEAWC4n6OxjOmOAD5SljP5P5ZVl1hlXFYiUcfDGBte0YAThoYNUcABx394IT2A0XSkYqeHgnn7Qwfw4seMHEqcBscMIQq4nKEH4wrOPtxefe6InbShk9TQveCwLTC4qsIAHwAKvoOSaWtqnLLApbl2rYBsH0R8ENmpYxwrGiiuqjCSOJ1iHwRM0T3+xHJuPO3h69mQH8oTmhwTb4kMx2Mra8iheNEV/3JgrYOTadnc00FzpqhaMXLjV1TOXnq7zWVbF6VN8zOfJGxcVjMZXGqDcgRQX5bPpZdM7osdVFS9yVc1n2ju06w0UaMS5Hh6ffwXG5favjz2XePH+9u1r744aPtxuvvUnPV6kjmC89toH2y23/LDD+NGH+wPzRtvc3ArgZkcPVPlcq7muybvmpnwWbnPusSR2XO2quGKW9DygPNg03fTOCvleV8JVVjAy399xVlCOr7NSLuX9l5bDbzaAZ1nA2WbOK2UFpG3g2cd1Fsta+jx1rYJxI+EA6EoBLYUVekAxmW3b/kcwWqpTpaSsP/CjjGDkqnJ3q7nq+LGUG70olRWUgDywf1BFseOhQ3u6GgJRIse8w2B87714o+aUAmP1mwMc8J5/5jfdxI7iSIkbYBZEBaD1WoKOwoGw9oHTPtDZV/exVK7cTwY4yythLAW2Ph4zWq+yPROWJ5vKViBqdlCZNXEAizL22JHKxfWiiAtn57M925XxtHgx+89EOc8uB0rXCAiUyTsnmHUw92xqruOtTO6ld02HcaSMBWOf5mNW8uZYYkUjMgJDgFxM5TZg2Dw6kjcXtiU0VGCf30MlllhzmL0ulW5ztV384os8NBbbv/zq6bbj5u+3b159Z2/wv/X2n7Zbbnu0x4vc1Ouue6jdeuuP2n/9r4/ljz/SY8b+WoF8r97sohLLLuchNT+dOEzb6Fwq7dkoUYDc9JoC79rIb2Mayf575vtQxj4bngqeOJnCGbvolW/aCYdO5I4PvXZAsb5CQbmsQ8bUuQUK08QxtDcO+zSLlDLKtjrXeZpJap9rDuYeQzLoMoxmGRiyuMN9ck/wB0Rqx3OSKZ3lTvseVDbXWM611R3751j+H4kZMeGx1Mtj6l/qmxe6ShDad1y9HU26TRkBySqJA84CEoySOIcP7+0AArFiTyr5/vuvXYaRWlXnVfHjay8/07OqABRD2gYmkKpsqWEpIIVjICyXFUgFKAApL6V1HfsKMiCOK+CVMFbcWGCWncxxbUGnuaddGau9UfNDXI2AqHljsFH8p0E6AFJEIF6yxIlgXIg6yrZupKKZVW3DvC5Zek+hnjyUkesqbuyzm4shA2N3b0YwDhVNAiGVvc9sN9GHUokPjYRYyucyROnC5mL74txKgBSHqTRxHeel3sUtUZpUGDBS8XOJ+05OLbRf/PMTcUnv7u/TMEqjYJTAuWHHD9sNAfK223/cfv7z38ZNmowibqXSrafyeXAMySXJmz6j3WxUJ27qUmLmlTNRicWlIYETV1Xn9D5AmHH/oi7VcA8+IJpmw8h+6+tRXjb0U7V+ubw2xg5GltXeaDm0Y1IyCSBKKcY01w638/IAZdca4NSkQfEGMIc2yuGhULMMGNjs/tVTSPdE7b8zgUsHEbmE3iac/8ADuz+0c1/ZcaGNpeYkS+W9zZiqgW6Y+T6uavZRRNsnJ+P6nhiABOfJSfuO9X0UkjIWkIcCIwCpaimshI548d13X467+lq7itKxaqagkKABEPBAWUmeSvQADiTlhoKPuY5jlQWtfc5zHWbdPucqoyz792Asq7K9fI511zYxoadehyLx2NBNLa6s9SgAhRzeqOQ971G3MQhBeWZxoUMIRraSSuD1aVv5c9nmVty3/Mkr+ePB0cHOH+dPHIdxPg+Ectc0Y1BF7mnBKD40i1xP4ORJbGTGuVRy2VQx48JcXCgz5c0e6zAaXeJ+3On1ra12bGK6/f0//qZde8OdHUYx4y23/aS7qhI4N97043bjjT9q3/nuT9sv/vGZVIZU3LVzefKv5HN6cJxK5V3ok0+Z/3UlFXE1D6HVqODq2QHG7T6IORV7az0PiVTu2La2xS1jL8VkAwQqvikXTb1YQJaBCWgdBi59bGjoH2AsCAtUx3WXG2Cc7RDWBFYD3NzTAc5BJYfZBhyzPg7kAOPl+5vA2qvHq04AbPxV490NH/2XwNR2LCnH67FP+QHE45fOByAb4LY9AKiM7f5K8hNHO4wVN+7fl9jxYOptQNSDrOJPzSRm5QciKLsyUjoQlRtaUFlWTAlQUFo6BhRQUDnbrlGqWYA63z7nUFnng9n+UlVWbi64gMgFBWcBOA5kWVfTADv0xpFmPpYfaOgD2i1PQDDqhUPZKJyXf2rKkEFlYOSyngmMsqmaN7RFKl/nlBWMeuHUn6cLHtemYJSU0BPFG3Z7k0as4kVAclFrftU+fWPiQ8cKxOlTB1JBjl6CUdPGkgb79fV2+NjJ9vN/eKxdu+OuuKmm1ngo8eKP2o03/6gncMB4UxTyu3c82n75y+dTIaImgXExkM3OJP7L78Hd2+KaRYlMvuwtVJtLXNTAFmi311bb+U2KN0xEvJ0H0WbitK3eJCEmG5SKKn71+XYHsiAoYErBdInTU6dAA55jpZrAsn+8DIAK+CrnmqA36ZV1BjjHCu4C9utgZHpKUTvwgbDqiHUw+i914JCQkwuwBKRzCl7nWg4KGQGolzKNAByHkUqKHynj3j3hYM+uKGTER7NKr6tDMolSfvKJd/y/0Zs3egIHkAVhKSSImPVK8ICKKVPAVexonzLOqeuUujLrdR/nFIxAZKDr7qcM6UgV6xj4bAP0jyzlNG3oLTEZKE+JDfMj9x9wBCNl7G/fBVP+vN6UIWkTo449fgyAp/OHnPIUjetWPW/EjeMxo30Fo3fY907hUTsusqaNPwUjdRQ3ngVsQJyPkosl+8RZFDRqODcTlztAgtFcrj1WE//0hFNgPDrAeMNN9/QX3dxw08MdxB0BsGC8MeuU8Ve/eim/g4fIheaVdd7opZFaLGXyZa4yGLdWo2bdhqYNqgjG85sBMRWbmyq22uyxWTyE/IYqukoPDlZqWICACohlYCsYC7SC0bHxMsx+BmhL8AH/91+e7/cbB87xgrGUuT4jGJkmmorv/W/gKygtAedYfxnsyMBIIUFa6vmnYPTbArDUsda9VU1m9cD+zwZlDIw98TPK6AJzf/j5IxhBUiCChQG0XFOgKVOQAhNcpaagKnUEo+YRwFbPHuVde1wJq/z4PmAXkAWi4/ZbL1AZdxaw9vG9jxwNrFQyPr0fzA99OpW+1LHg0p1t+vSpxF+T7dR0ftwA2ePHqOJ0XLnJ/LiTgVnm1WvoZFTrXEvxomaPihn7nyhVH5dTD5fFuJ/lpmpj7JNiBcKlBS7sRJZRvBxfiGtrzh4wLqbMspH+sTM9Zgyoyi/O9OFfEjir6xtRxlPtH/7p8bil97XrdtzfdtwcAMdgtJTI+e53H22PPfZqKllA2f4yD4ylPIm9Ju9oKulsjxkrbt2MC7y9GrdwLSAG+AtRYG8zLhg3JWgC41bU8cI5bzaWrNGTRlynLXAAFFwFouFS1Um8AAPFODQFk2MF5LiCdlUbnVcwsgKxgCu1tV2q6TPaX1CvKJcygAQX+AouS9sgpZ617X8tgKs8U7eqU4n4s4CsOLGAtDxx/Mio8T/x4sE93U3VLFLZWOsSOtoawdjd1IKCWoENeKCStAFTKV9BBFSQWgLU8YLJeeJCWVjnVwcCMBZswHJP55ZK2naPgnNccR2zr2CsTKr1Y4H2cK556LCnjhS0ztgBMD/0bCAUNwKyv98xPxo7BbhT+VFjUzP5U7isUcipKOKJVNoTftjEBJOegFQ21+oQZuk6J+3vf0Rgyx+4ubnYYyo9Vdak+gOlbOpy3FKm8X9l5I6ung1gcZvBoIkDqOuJJbfX4z5uRDlWA7j4MWUNROYqb26vt7WNzXb0xHT7xS+fbLd958GAGBf11riocVM7hLGbbv5Jb/Tnpj7xxOupSOfa+Qu/S0VczefXje9EKqppITVfDDGj939sxg2miucD/MXNzcSKW3FDBze1x4xc1HOr7eL5fI5Uai/qsSx3seABn9Ebk8cPd5Ac97IfxwdodFofXo5T86t638i4S+s6BXadp1wpouMAc/xKGAvSOrfDmOWlrHCs3NVxGEvxeFRiQZDZryxIx8s51vuhHtPJZHjwF4ySOFcCOSR3hj6rR45QwohQjHtqKYGz0+D9xIw9gVOuKBtfB2J1fwNEwWo/2CzHywNReftLGS2d7zjwwGUJxIIPnOCz7R7W7XdPZh3E3NJSxsrCWhrJQfoFxNyH7qbmydxHbOQP4KaCaVC6POFGyRuqOBV11LQxn0opXpzIDzvB1cg1NIWwcYVkru0+/hgjRWQaAbk9Gm0hm+qVApo2ZFQ1/pt39WziSspoXlJASuKsBrhhsqrESgFRoz8YxYy9qSYVTszoDcdHjk/1bKp3adxw04Pt5tsC4K2JE28Z2hrBeP31j3Q39fHHX0tl2mobmxd7AudslF/jNmXcjOs7fIZU6nxvPXDWR+2MFwLjl+fPRYXOty+jRBcTqwGxT6KVmNHbtYYudDKZKn9c02wbcrWQ37a/VzO2HvAAvb0eFVQm24ZMMa+e+zzHvriwFdCWo4jc2nzfPDCGcZRxZWVns+zrOV85+/qr+GKWhmqxlay7vuMb+Vz9TczKjY4PWW/dFVMfYmD0/k0GsgKNuynmA5gybACVOzsO4wBduaSsXFX765jzeGhdHLLkteksQA314lFfuar6p8qmUserKrECHEABp8BzjMIVTMACYr0bgDoCklJSQWWtV3wIOmZbWedb2naPcktLLa9URnalKoKQG8sMi5mPS6iRViKnEjiAWfb0zJNyOTFSNUlI3mgqYNxTyghKMeNsnqIn86NzUws+mdPqACBuFHdqY3QPJkWuQ7eGY8Oh9ATRSG2kRmVUuapU0WzneuBQpfWcs7E8WJ/0aSkKuhRlMC2ihn9d6QLP0DyTz5e4T8z4D794PK7p4KbeeIsO4gOMN9/60w7jddc/3GH8TdzUuVmvM9/sCRyN/t2VzoPC/cHITZVNXfFmZU0by8vtwsZG+/LC+faHrz5vf/jdxfZFgAQjN5VCgcsr74YhWQAIkDHvkJznZcT9Nx7y3EZiynMBOe7uuY3VAJmHVMosnM73PDsf9V1vvwvwjg2v9YunkKWeP+PXdR/vvHROf7tyHh6uo1OC8uPn1GdSzqDsXsaDNmXm8xueAWZMdrXcS+tDpnk6wJwaAQpEisgtHcoNMHpLtsHk3FQKejmTqgwgByXU7GG0yJClBXW/frw0XfH27o2nFyh1QFBvtTtqZ+wxo1EYOohbcjGBAhIQgAd4VA5crJSx3E/AWIKw4sxSzHE1ZPY55h7lfoLK/cZhLCCZY10BA2LBaJ+kDkDnUsE7jDoE6Ic6ehLpJdOn2oi69CYCcK6vtPWt9b7U6A/E6VSEGUmdGFeVGyvOlLzpcWZ+zLn8mJJA3EZqyw32RNWuqbFYNtXYOG6gbmG6eA0zmQ+qyLzaDpBD04ZBvlFEs8CtiKeiCgERjH1qyRwTM/ocYty5hTPt4OGJ9vf/+FhgvLddc/33e6P/0B1ORlXy5seXYHzs16/mN1jNb6CN0djIVOo8MHrPl1xTNpWbSlX+DYxRxt9/caF99cW5dkEGM+5h7zQu+RJAVHgADC9xjYvrN83SNggsCyYQaiYBJvAKEtcoSO0DYwHpfMfrPvbNx4NRrqC0Xmbb/QvGgnUcxisBGxJaiduzH6A6/ReoBV5/e/UIRvtZAQfGUkMwFphAtCyo1cMhtnS/qGrUkCqKGcXwevUcOLCrx4sdRmrmxRvjMIKBWll33LFyN8FIBYEHsHIrlQXolUCCTJmCrOAtNxVY7lUqaHvcwHoljMo7Zr+xZ77YSe2T+eJ+APHi8IbiIfECRm2F582uvb3R2+7AKF4E48k8FadmE8DnyXvaUyyggbhABuWljGy29cI52/9E/VijkoFMo7+xirp4AXJ4k1XivtGyz+maz7iQGHZIoATIwOgNwl8PowdBKoXKFBgPHALjb+Ka3jeCcZj/Rle4DuRNP2k3JGbUUfzx37yWCrUW1c53jQtqCJXhUN4rCUb311HceyNXUnm1M26ueCXcRvt8eztAxkVNjKhpozf89xfADrZydiGAJLad51LGG9hc72AZ/eEYWw7gjgOFOv7u8wtdCQHaX7keSLiTl+HOg3MEuG33cT37B8UdYBygW+znus8qF9uok5V8xlzL9gCwe+Q3zDkDhANk0xJ3Xj8fiLxm3v4zKb+Yz3k29wbQAODgxjLnlapaH9RwcEOrKaNAZCCltu7rWMWMOpZTxj5lTO/XerCvHzr0aWJHHcjfaldRuYLryhgPUAUrt7TcUdv2c2tL9ZynDKAByx0tGMHD1QQSRSsgLR1jpYLlgo4b6CpWtD0Oo2YNw1t6O+MIRu6jvqlMhQbk9rm19sVXF/toDQ39FTuCccLryD1pU+nOBMBSQgbIauKwzk3tMAZETRvVzthhjPKAkYta0xyycRi9oZk6VrxoBnKN/uZO7VPpS/bkXDD6/Eb6c1PB+A//lJjxOw/GTb2v7biZMkrexFWNi3rzLY/2dsa77vqr9uRv30hl2Og9cFYSC27EvZQV7fHs18C4fjYuqKaNwChupGZixN60kQfQ1sZyj/Mubm0ElsVU9FTgecq41BM+F7ZMerXcYVg2w1wgWjjNjfTAWWpfXbzQ/tdXX+b6UepAOj+TeDjLjZXlKOtazhWPrsQFzgNhM58h17Pfvc7MUs78RmcNOVvr5pqOuedwHpUd7u+6BaPPuJClqUu4oQCcnDjW7dRJHhQXUvfJAUZwTp0CI2WkbBQ11wn4zLrjruN6pY7UUhc4ignYxbj/4AXp0Gc19T7giRHVVYoIRO6qqWlMOWMWjKvAA0QwVRLGPmCCzzpXtZI2toFY285h1plzKpYEIwUEDxBL2YBXCRvH/qghP8ctx2G0XfuuVExfSrsNdeIKcB97oN4rsizi0OF7M5XLK7WN1hAvVsP/oIxxK/IDrm2vxYWN6ySekn6PFZBg7K7rCEbZNrPHGS8nOaJZo2BklUkFpQb/3q4YFa0XquoaB9KeaT0zGaU1JQfLespzUyWfzuSpvbC42PYdPN7+4Z+faLfd8UhU8YE/hjFx4y23Ptpuibt69z1/3Z5+6p1UiHOByfCpVN7AqL2wd9XLb8JNHkAUO0ahllbaudUAaObyVGwJE9lJILJz26vtD19eaL///GKOr3XgGBA+PxcVDZDWVxe5q8MxAM1O5b8IuM4RiwINVAADinuZva7fMwZWICpnG3BLC1SWYi72fe7jIcAKRNcHtrLuC/bhHuYj8sA0PcpUB3DihCznZRjnwO4BEdBACDbwOoc5tuQhs3S2QzuA7bzplB1iSIpYMFJXQ88KRj1xjNo4YlqawAdEnhwwD5qi1IyLRz5rxjV2ZQRguZjiR53Dq1kCYOBzrCCrZAzwHHesgC7IKB8YJXC4o2ADD6jASDELRvu6ysXGYSxIy8ZB7JnVwF19/TRqg1Gw3LszgWYEI7cTTBtxu4YBxXPD0Kn8oAyUZ2XjEiNtBsh1rplYKVZAXlLGgO4eTA8cnaiNCjBFY7mpZjbv7/rQxph4sfe+yfrwRmPxGiDypyWmXJyPGi6k7BiMPZsaWLnZpt1YiBu5e9/h9j9/8Zs+nlE2FYy9T+qNoyTOLT/tynj3PX/Tnn3mvbayfLFtbn6eWHE1lu+wrOsZRZwaZVKjbEsBKu5dH0IVGC17Rc9v0ZsY8r3BeP7cevtDvIo/fPl5V09gAA8IV8IINksAnT6VuOukpI74eFBByypTIFkv2KpMXavK1j1tg92ygKzywPcAmJsWg3KlEz8GIKAVjJMTeshwU2U7QTVAZ3067jCz7RxWMK5wm7O0XfCCDYRgBKVtri0XFZTjMGr0l6zhnpYygvHAgZ3NpGwdxkrgAM7yped/26fXACm4AKmMZbmWQAJZKSIQLYHqeMEGxnJ5Kz4EleNVzjYAC8YrFfBKU165Pnpjchh97Yv1iZ8mE5MFEo28VGVwU2UkB1dVD5wz+UHBCMJq+D8j8N/IE1ef1Ji+qdUnVdJGrDgOpDarIS7g5miG4LZGHVPZF6J8/TUDxjFq1A+EYKSCsqhGTZg20RuRF+POeivz2flYQLwym2oCLTDO5gn/0a697b/9j1+127/7cB/pL2a8vk+9MTT465dqPOPdd/+sPfvsAOPG5sV8Xkknih51zoOCizyAeKZtBdLtuIZcVKZL3FDph3Y8vVB0DztnGNf5rfZFYknAKMOAUzDaD4qCg0oBY3oyChQoAekcx0Bk3bIgKqVlQAOSpeu6vnspo2y5yY7XZxlXY0YdzwaaxcAIHrBRvgJuHMRxGJUpCC0do66UEYzWmePlng4x6B/3U+XCDt3i4o4e2tv27d3Vh0+pr1xVUA4N/x90F7W7qeI/IzOAaGk8o1EbpYQgrIwq1QMQsMBIGUsVgVkx4jiwEjusgJSksWSlimAsRQSb/ZXwsV4GRmVq+JRJq45E+ns3oyil3vTcVMo4JG/EjRRyemg3jD8PRMY91fBPFZfjlq2mwi0FvPW4s+LLGq1R7moBucICJVe4t0PF9TRqxJg/rqokyUJiyNNTJkry1uXh7clgNAeNvqEbUan+AldNHzEg9sHFK3FdVySLZH9T6UYwTp8+3d5+b2f7u//8i3br7Q8OI/13JHa84eHYaGIqQ6iufajdeedftmeefbfDuB439cyZs4mhU0n7Q+J4jxm9gBWI58wisDE0+INRH1Xz4PSsJVc933Uzv8NWHlRiMjFdAWQJkIoZrQOHiwmoAgcYYLQs4JSr64DKMWXtY0C2DVzu7f/9u6/yIDjX4QM1c9z1XIOVi1owDsp4GcaCrlzQceAKOkAy+1m5pI5TWHEjEK07ThENnaKCHs6ArOFUQBxgPNB74Ozds7MPKNbgXwOW1Vvd4Qyf6gkcqlduKDUsMLmuAOSuVsxIKakfA6l9zDrgwAfIAvDKdccBDdRxGBnQwFewW14JI8UELRgpIzcVjNUD58SJQ82M3125AgU3lVspAwpGjfmSNlfCuBIYl2LiRp3JwSc+ZJRwPG68BGNiAsNxjGWkjKan0LQxDH4FpDk7B4Wcmz7SoaOIl2GkFsMQq6Uz3iocWNdnU/njTm+msm/EJdOpO271yemZ9uob77af/e3Pe6P/dYHx+hsf6hCW/XswmgNIosl8oCt5QOmFcyGqfzEPoAv6osb1/DoYjfcDo2yqfRIkVGgcxgLRNnjEfaVU48AByPr/XxiZawHx//1//ndc5C9684vrMmA6vxS27uk6BepKPq/ETMHGCqZxA1m5oFfCWO7s18ErqwrAoT/rYoey1NISjNYp44H9n3Y3lRoC0QOcQpohzvw3n3767pDAoXCAsQRfJWislwtb0I0neoBsv/MKMtApU+ACkCoWqKzcXYBRQjaumAUqQMdhVK6UsXeJC4ym0BMYHwXqxOGuVsakUcYBRpnJ/MhRTL1pwFc9cLip1hcTN83HbZvKvrlABsJqX7QOxoKzAwnGrowytycTj+Up3gfcLvb5W0xIpY0RkBTS27i8N5IaXnJTtUOKKVNu6eww5cbmmlnFox5bcee2UjEDjYTT5Kmp9sJLb7S/+Nl/G2DccV9ixUrgjKy7qY+0O+/6q/b0M++kcp3vozbOJN7scW6UW79Zbyj+fDuxXmLjr4UxlXJlcQRjvnfPqCaGXEql1pxQwIAKLJQQhOBgjhUsjjP7bCtXClrXUbZiPOuliiBV7vdffN7+9+9/1xWyrgO8MvtclxWQDKir2T4b+Oa0N45gKvgsy+W0vbpinqCFDqBy9gOuXNpxCGcpcMppKhEfbvIcYpI2Q3PG5fGNVFLMePiQ/qkRl7ipYKx5dvbt+7i3M3JXrwISaADCLQXZOIg10p9KgrCUkZKCUTnXACI1cx3lHAdkxYaWQHQP4Cs/rnxVplSxwCtQy2zLyoLRUvLmcL4gKHVT46aCEYCDmzokQnqPmsAFRtZH+PuTPDnzJ2jamIh6zuTp1t1ajb35oUsZq71RplXvHjB6n4YEji5xuozpgfPV55t9KZsqgXM6qnjy+PCKvIWo6JDNHCVxUoYtB8aaA2fdm4w3okjGEPa4db1NnDzVnn725fbjn/6nSzDuuOkHvQfOjRr8Y5o3brzxh+2uu37WnnrqnXy+7Sjrdj73Yj5zvkPUuDqKf3l+mKrRvKnc1HPriZN7zKhCD71eeszYn/hRaDF1lHE9lbuUrUBkgBiHiIGmjgMFHHVewWipmQKIHchUdLHe/HT+syhpAU19XcM9lrNvPevOvwRjXOiNfC7rK7mP8wrGgoqBqdTQermsttdyDepou9RTGTFkAVrnzOSzAlRTiGaMrfyOBWM1d7CCUdx49Ei8v9RRJoGjOQyMMqmfffZeT+T02eFYKR2zbh/QuK3WC8RyMW2DVXzJjaWaBWq5t/YBqNxQoAIUkNYLvIKy1pXljsqYOte+ikOVsb9gPNkzUwfypQ+k4ntSTXUYDT8a+qVG/QLA4HIutNOBjosKSO2NEjozga6P2IjNSswEXErqnBrXqEK7Xm/2CJzaGHvmlnuqf2pU0Qj0Pg4w65o5jNAwTeNUPu/puNVzU5o3dBA/lcqiHXLoEMBNNWLDHKvetkxp16K0G/mT1wPLseMT7Yknn28/+NHfjHrg3NNH+hvPSBX73Kk36ywOxr/qHcVnZ9fy+dejiFG1AMbl9PnO5fuA8WJAFzOeSxzYR22sRtH7SP9UdI3xiVXBKP5e7ko5HzdxAIi6aZKQvBHLARQooBqP5wrCch1tX4ZxyJ7qNADypZSXcHENZW2DiqvpWme5uq6bfSCs/WylP0B0OohHEog8DHpHgqyDqGAsIC1BdnJSo72eODPxdvLQykPZccvlXK+2XcM6QIdzJXqGXjbDlJ3qg2aPoe2R61rNHpXAMe0GD45Vc9wwlGpvz6pqa+wxoyQOqExEBTAwUTuK6Pi4egIIHLaB+tzTj/U5cwCpHEirbdI2sMR6YOOq2gfSAhJgBbgyylO/cRjt5wZTVmW96ba7qgFRAsWQFskbLmofbxiYTHMInqEXy9C9DYzcU31SuaNLcb+MZ+xtjXE5pvJjdpcuJumhT+dWV6fV/DkafvPEH6lFH5KT+1BI8aLpDLl22ufWV1J21IxwNvef1eQSl1Ybo6UkindA9rccB0YurcyrPq0LUdPFxcCY62xummlgsx09NtH+5V+fbPc/+Gjiw3va1dfdHQAfDJgyqWaH827GKOXND7fv3amj+Cv5XVbyHWNz4qFUVk03kjZry10Vz8f93TalRzftjAOM3d1bjrrkQeWB4/sZ+aBfaH9x6whGalUw2gYdCAo86x2irFM7kFEuZTdyn9XFQWUvbG0N6kqZAtNyKn2Hq3+OuJ35HB1S1w0My5QvIIIOoK5/BqgjA05XWCFHh28AsMy+6gAg5jsZGKndogdzvKTZHHefpdQL95j30AZ2jnc4sz0zc7J7Tn04nTqTfcAcQLycWa3kjRniTEglXjxIdLI8nDpOLY9kKamzZ8+H7SpAacqo2cSByApEClcQMAAxMAG3YKxy9lt3jAoCqcqDsBRYGeByWSu+BGGBW2CWqwpGZXwG06X3d1fE7TO2UGLG0CYdui/PeTrEi9zUavjX6drIjWH0Rn70AHYmgElwONY7ZQfS/k6N/JmrqRQbOpancnY3bXXoML2S83p3uPzRc/ljvQLO+zW0zfXGcooS19g78PvogVxvJRUapN550XvB5PP00ROBErimwfdSGTPcSQb0+V23t9oXX3zVJiZn2n//+S/bHXeZtPjedu0N916GsY/0H16UuuPG+9t3vvuD9sRvX8n32Mj3Wm6nT3PLPLmHrmPn1o3OiHoHwD6eMd+PbaXyixm7uqjYFCG/h5jId9XcoZvads7XH3VYcjv1irnc1lfuKuuqlZh1dVF8qNlDs4g4UecAn0fcme8Ztax2vPV8rrWRbeT6mzHHzua6lqvdFQ20+W8Ws9SdDWAg6uAEoDMBssd0XMx8fv8x2OEwjRkAADlPSURBVDyMz0TJhB+AOp160P/z7HPM+VN6Y+WYuqTMjAe3a+i/GpvPbzELvMBYTRpA9DsN/V65qEP3uCFxM8ydWg3/YNzv3RtZejeH47t2Gbnx6qCMDHzlQloHKUDFj2CihkAAEKhKOUFHBe2v43VNoFE8ZUGoPNCVZ+X+Wo6rqHsxLikoAWmdsvZ9YMwXriRLZUprhAWzzt2kcsrVfu7n+CRVtaz13mCbP+l03JDeXzIQLgRM4FXnZ/urY/Nc/jxLMZbhQcOoBjCmQgZynZX7UJ8oy9Z6IIurCEYmmcOMgTRRUx+hEJdnM6p1juJsb7ff/f5/JWacbT/72//Rbr5Nn9R7AqTXwT3QbrwlEN7yw+6y7rjpwUB5b7v9uw+2J596Na7uuXb27GoqWAA5m88cKABx3gBiSRRNFfku3VUFV1SqT9XIHaMwqdy6komDuiuW38H330rZrcDrd7Bdv0lXVO5moGGgHpRQbLnVLm6fy3kbHcylBS6mTKhM7VoH8Kz7xtbAFwVeDniA3NYFL0uq1CGloAFRGWb/XD7naZ+XguUYUCnkabFePruYv5qo5AAqDPGfqx+VD7DPTILGsnbrM9JP9P3OKXMeVexjWwNk98hSd2pMJE/NRFYFI3Wsqf6BaRoO+7v7Gtuze2f74P23hpH+FK2ynWCpWFDyBowUCVSgLGUDkP11rmOWgKu+rPZRNPCyUkD3KACZbQ8B9wBkKaJtgAPUtv1kXcdbo9f9KOxPwdjhGgHZXc/RD1lwdkXNj28p0+ocCaA5McHJqG5As35aE8gIOh2WLWukgY7M1YmZQqioXDrj85xX16nxetoh+8DiPBCG9r4zAcG5I9UNjGsqe2Ky9fXNdvHzr9qhI5PtJ3/xdwHQRFTmTAVjlHEEo5em7gic191wV/vOHQ+0p595Nde4kMq3nQq7kQq/GTd6PdAkNlzT7S0uaSo1ZQQipexqGRC4ohSOu7gc5eEVcFl14vawGB44fwwjq0wmRbTO9eTKckMvbG13217XBslNFTMGrNg6tcxn4QpSJkBSt3lxWu6/mmPAtM96B9Dn8jlHYIJQ+R4bB9j1kZpSQxNXr5rCMb9twej/r7oCNGZbHRg3+wracRCr/njFH7e0RmcIlUA3vPDm8ih/4lH7QAg+U3HYdh6InXtVVXhQAob7WE0ZgAEKAxGY7KdqYAOf81m5kY6D1bUcr+uWS8oKQgAy17UfvJQPfHrZ+FyuwU31SnJNGd4M5OnDxSjA+g+TH69+3PFtP9yVP6YfGYBG9Jvg2FNQeeeKAUA0pTPxiaN9WUABr6yAtJ9qGm0wuG96kCTQD8TOP3k87nTOn4/LA0hzleosLp6kiuakkVSpEfDLMpdRFH1KTbN47vznbc++I+2RH/6sXXv9HQEu8eJN9wfIoRcOV/XGxIo7br4/x+5s373zofbMs6/1NsaNDe/ZiMJuno+7pw9oVCrqZM4bg4pXApgBuT12zOcGmGyqYVU9OaJyx2VeTYUGY4+J8+Cg/gVjDV/qihoQxYdUUiwppgThuY3h3gyQzPpqYFzhGgdeSsbVLLCoHQCBCD77rTPAghF4tc2sb8Rt3pQUCpCr+Yzi/lJFzVLqTMF0ZX0ZfyhX3an6Mw6h493UmSyZOlnAWRIMSghE+2zbD859ez/pMDoORsoKyA6jCg8YisjAZ58MJsDG4bQErHUAAUY55UFVqgcy57puKR8VVQbI9tsuRXUtZUANPskbx+yjiLqYnZ4ZZnqeTmUW13EvAFZw1Y9oSfH8sGX141oqC8DjeRoxZR3rw6MCS0F04sjBNnns8CVVBJh1EAIQlECzDUZDiQpGQDvXNaYSzBsJP5/PNZsYo2AUMwKSIppxjfVEkYQLYFTe7Qtt16f72n0P/qR965rb23VRxhtvAeIDAfLB7qLeePMj7aZbrN/V7rznB+2559/I+efbxuaFuLzn2/ntiwFSlzWqqA/qcpQ5lT2fezkut65xl0bJp9Iv5rv1rmSp4BI/PVv4J2D0vYfzeAOnexMFGI3UAKOYkBIOcaNRGYPLej6QUsbFuKuLcWklV7iVQAQeEAuwgtGSjcNY6mh/wbgV13YAMrDGRaWGEnhALKgKsnpAlzpWHSpFrGNVr9Sd7k3FQMiTAhMYC8SaJ8c64MZhBCdXtdxX+53blZFiqfCWoKtYDiilmFxPEIKqVE0ZUFkvVRsHC3TKFLjuwVxHPGrpHtVsoTwDY8WJrgVo29PaZgKj9+z1qRHyI9WPW3AVkOCz7Udjdcz++jHto4rU0TmuJQOreWTiaH6gEYzA5IaqdIAch7Hc2XEY2dfCmD8NjKbVN72+DuOsDzZORTm3Ocz9KXvYYTQSYWOrnT93se38ZG+79/4ftW9efWt3U2++9aHupl63w9uoHurJGzDeePM97Z7v/6g9+9zrucZGKuJmYNqMKm7HBheRKooVl1LpvRiVOlYiB1zdJR3FyhrCtZ/1UR+BUnOHBNW4KvqurBI3sqblprKhI/gQJ1pSyS/OX8iD53xbD6RgrD6fgAMWwChbGcgKzlqOwwhE+wtI+wYTew4wVlxY8FkOGfbLoIJOHSkgC1rrVacueVNZ9lfYKxeTtAEUsw7GihFBN+6y2s/ss12xY38lHKDG4QEK5QJP7bcNDMAVoFRUWeUobCVdlHFN7qoyBSPgxZP6v4Ledage6IHuXtZdB4AF95Fse1mqtxhrMJVCFjD7Qf1QBRbICriaVIoVlGwcRmbbNfwZOgdMR7kmj0YtRzCCrVxQAIKs3FRgFozUQZlxGEF9/LCB0TqN5x6xYVr9k4FgpoOo3VEWdZiuXnpfCl3sE3AoyIUv2kc79wSyH7ZvfPuWqGFgvO3hAcYbRjBSxlsfDJDfj4I+GhjfyG8zjPRfWoy7m7hxdXnIZHrlm3lpQFiq6D2NOgCYVsOIjaGj+JDZ3N7K54ht5RgInWu+GWV8T+4rA6MsbDVpSN5oBpFBBeHivPKJUQPjlxcudiA38nBYyr7qhF0xH2U7d85Le6LmWQce2MpKMQHnmG2KWqpqm7le9Sm+EkgAclsds7QNxqoTBeQ4iLyoYxQuyxMxisa9rJjRNhuyqYc6iOWSUkJL8DkG2oJVGdazqUAACuDAaF+5pqBjwKnspnXHK8EDGO2C4ryCyLWASAVdH8juYVt7JhgBWllSKuu6VJJRSMsOZqwndfRLDYzei9d99fxQfjg/zlF++ghIZr2260f1A5f5gespWD+8JpDpwDV14libngywIxeVCgANdGJI+8pFLRhVSJVVcqNgBPPRgzrCH2qmLwSjtz/JpA6TUiVGyn7NGrKx2gGXcq6miHEYP/jos3bXPQ+3P//WzZdgFDNee0NiRzDeMsB48233tQcf+Vl7/oU3EnMtp0KuBci1xGSp9GeiElEnb5nikv4pGAs0MEqs6F1yfjuxZoA0t43PKEElo+zhVAbC6vliHZzc1aE5Iw+Z3BuM4kUgApJaL+cB0dsUR2pGCbe3N9vFi+fbhQvnLsEIrnEYO2jZbwlAMaaYs8y2ckbe6MkkZizwgFkGwvFwp6veCMiqI1WfgDgOI6OAQARguZsMdLKmuz/7uIM2DqNzClj7P/v0o25XgQpsYABWuaoMlAUmlxJo4AFWua4UkJqBhQEIVMBzLiUEpn11Xt1TGSBSRNvuMZ5QAiLIXdd9j0rkGDp10vwhw/ymFPBIfPLDfPN8OT+aff1H80Plx7zk+0dNPf2uNCC6FuOmgmt+Ju5JQANdJSkqKVPqaAlOS0oJSCpqWcp47JChYUcuwTgo42SPF2VSzUVj+sPeF1Rs1mHkhqlE2/2txe998En73l0PtT/7xo19ev8bA971N97/NTB+v/3gx3/TXnz5rajESiqel94kDl00/0xcudNxPwOKWeG8Y4OZlMrM4kZxDCAOoIkRZVMlcDbzIJJcotw+4zCa/nJGmQEQiAC0Ln7kroJRrKgpA4ziR3GjxM56lHEloFJgEFJFgFmvuK/c0HJFx2Fk1ikiAMWcZbaV3fIgubDZobxyKFxBqG5wR9UVdQd8BaMlONUrEHYQQceyr8CyrLiQUTwgApILSgUrTnQcsGLJgnHXzveHwcXgAM44hPY5RikZkKgVSMDDrAOIOU7pmHVWbi/olAVeQel8+y0p55UwKgNCXd4kdAYYbedplC/SO+KOfqTDedoc4n/ny1FIIB4VTKec9PM4dNTUutH6Bak/QmaMaRccEhKjCtch06MkMcUfwZfzAyf1ZOLCuYA2qESe0pVNzTEqK2YE45zPk4cJGHXYPq+Cp2Jol9QWWTAupSJ7g9TW9oUO4x2B8T8Exquv/17bcbPkjeyprOoAo6SOCY5/8uh/bK++/m4qWtzTxIpra5up8Kv5XjK8+T7TkjaJj/M5h6k3ZjuQALX0Xc0d003SJJ9nNQ+izfXEiSpzyviO4yB+HYxiR9vrcY8LxlJH26BcWVwO8IFvBCPXs5I31gFYrueVMJbZ/vdg1HvK+NSvG5fKZa3/n6kXpYZlBWOHL2a9vC/1r9xSMBaIrLKmllWmXNKCsuJI+z795MPBTQUdZWSlZlxMIAGlIKvEjSVXtJoznAdey4otgQU25QHnfPucUxlcx5lznOs8x+u64zBS5WryOB7QPFnGYeyBskA4655CR2J+FIG2zFe152isrdndJIE8GYceN9nOH9LVTSyRSqn3jJeGdvD02AiE5gWlcibqtX/S+LXDxmImNjxxJIoZNzSVfCHHTqfsdCCdTYxrxmxd4WYm8zQ9uj8QTLffXdxsX+WpLUM5vBJN17NUssAoiSObCsYPP9odN/WRKONN7errvjdq2giMO0bNG4FR08att9/f/upn/6W9+c6H7ezSeiqikRubiceW2+xM4uHJyTZ7crKDOEy5Md+tz4UaMwdqhzIqvRLodAFjehzV5MC+Wz1wxk0WtmCsZE71vqkEztk8EMSOvQdOoFwaLbmpFBBcUwb4GiUxAqz3osmyYByHsECsslcCaf4gsxwAsSAsKxjLyl0tKCuUAR0AC8JxUM25VC6q+lggUkh1EGjUT8JROW7qJ7s+6LZn985+XHll1N/eHQ4IgAEZAO2rjCcowOM44CgnwMAILoomdmR1nYIRgAWiawPPedxP6me/stQS9AU+UJ2vXHWHs+SymkVcdzhfuJ5I/HBPmw7k6InDxlPKfiw/SE3lWL0mdPY2n031wewzUGebklmC6HQgpnxmzJaIYY6xqcAOxOP58SdyH2XqmHKmu3e+dap4MmUP7/ukJ27+8MVW+8OX53qG0js6hlm1B2U825M464mbvmy7Pt3fvn//j9s3EjNefe33AuIwd2pv2uhtjRI697Xb73iw/e3f/by98/6uVLb1tr5xLm7fer7jmXzOU3Gbj7aZCc0qcSEDHffUu/0vWSpsvW5NIkeThqaWpYC5qML6reb0pR26x5X7PiRzEmd2JYwC6WOa76DLGyBLFYEIyIISjHoG6ZRNCcFzwvw0xhAGJlDWOpcUfKAs97RixXErIJ1rqYM/+MDGQFhAgo/ZV50ClKGWFbpcCWLlGLrleNVBdQ2A6lupZNVBdU45LuuHH8QTjFFCdbVUU/mrQAQygAELjKACT4FiCRTlKoNayR49dfRtdW5lPwFYqlfAuabyrgtEZV0b6Mz1qLLPUS6t/YBkFJFKUsgj+ZIFoy8zDuO4+SHqyaP8lTAyighIA5L7bG/ZdzLgnsoPWuABzr4e96W8JUiHLm9xc/zYKa/cAFTUYgSj/ZM+a5bTsYl81n2ffthd1a8ubLTffx5XMpVhOt9FqnwxyqzD9JLMZ2KrL7/8Q9u770h76JG/bN++5vZ2zXV3/hsYew+cKKO+q//5v/5jey8wnjkbN3B1M2Av5boz+f75w2WH4zJTxeF1cJI4pgA53VZG7qp3G/ap82M6xvc5RXu3vjy48t3OBkYJKsmqasoZ2hvz8OBaB0bqaKkzeMHIPS0oy13VzriamHGxP3wWOkhgpI7UDlzW7R+HcTyD+nUwUlPnWZ4dg7FALJUch7FmdrCfUv4fYRwBVooIvMqUVvxY9dBx2+ooVdz58Xs9TixlBHHPpoIJYEADA6gKRAaoUi3HlCn31bI6mYMJYMrbX66vco5V/Ok40EBq3TncUhByj0uNK5MqVmRUcXBZA2K+gI7ip06JG4cXWPpCesEbquIlIzrj+rL2GV51/LjGWE0jw8RVM9NxWWN9gPDcqahj4qmAdSoKSOXEptRKpnM695jM+ZZAHNzUqd7xm3ExATmoYipr4sFhX5TwRJQ5n+FY/qjJfI6JuKhH8tmmsl+Dv65wOpKDFfALYrkojATO1tZ2YPx923fgaPvBj/86MeL32rXX39k7ig9Tb4gdH2o3dLsvruyP2t//46/bRx/vjvsd129tK5V3JQ+YuTyIJnP9o3kIHB/FihI48QgAFlv0cEkl5KKOw6hvqg7jl2DMZ6WEssb9BTnrK4GwlJCrq/lCf9Rh+g0uaoFIDc/MijnFyPq5braNqP9CYswCq9zSckHLbQVhNWdI9NhWzjFL5yrPKKLrMB3/C0AGPAAKT7ikVND2OKA9h5D/GIzlplraZo71vqm8otS9cVWsBz4g1T+QARKsltQRiJI73FZlLHs2FUhcUiBwQUsVAQQ+kALEPua4/WDiSgIMzAUsOJ996td96XoVf5aalnoq69rMNR1X3rVdl2tancYpJEUcxjFq9M9Taio/kKk3ZFcDpW0dAgw2NkRlX84xzYEX4wwTxuYHO7q3L2vuSlZz2BjsaQT2ZCCZ6iCa2W2YfvF04KXMDJAg7a9X87q00RSIA7gnU5ETiy2LrU7lvHzGfObheyTmzYMChFzUaYmogDkzITub75M/9viRA4ntAkZgXNWHc2OrbZ/7vH2292D78U//Ngp4V4fREKprrr+3J3Cuu0FmVZvjPe2ue3/Ufv34c+2zPYfa3EKUdetC25DEybVWU5Elp+YS92peGd5aPD2C0fYw0zmVNnu4Uf7DsLGo/0jpgTiMQBl1Gg+Q3NQhoaMz/dAv1bw4NTWjRI2mDSDOTUe1JsXegSvqeH7rXDu3tRXvZOh9A8ACrmAzxAmQlFDvGs0eMq2UEmyOA3K8fbGAPH16SMyMKx/YwAQwYI0n98ocLxW0HIeSzaQ8j4oyApC6AZOn5bcS9oCyYAQg4Cgjq31M7AjMDiMAwFIwUiiKBbwCpJQQTLUs5VIOUAWw6xSIVR5gzDrQAEn9HHc/+5n7ALNgpIbVnOJetvug4kDnfYwg0z3u5ClZU2DGZThuluZhWjzvNbBun+kOrFuemIhCTSaOjJlvFYjTM/mhR/1fQQSs4fVuqTzZNufOjEmIdfJe4KIaHOyV1hIbKutUX3rfPUAHiHNND4FR08zhKOKpKKxMqu5wkjnTHi75U7mpJ08cyZ88xEeUcUkWcmWjfbRzd/vBj/66Xb/jzrip32vfvjZQRh2vH/XAueGmhwLp3R3GJ595uR06MpHzEm9e/LJ3p9tYH40X5AIHHO5oHy1imFcUHIh9WFc+k6FekjXrUWxjN7nujEteQEpygZCrShVlU+cChn6pkjcUEYg1dhGMlHHh9Gy+a5RvKuAGzu2NzXZ+e7t/X/CBcHNzvZt1cIIKlMqAUNujzgA9xowaljIWjJalmNPTGuyH0TuljNaBJfFnOQ5gV7z/A4yW0ynTkzxZryYKS4pY3eNsA6+gKxWkjtZBCMAyQPamjfEMKhionrgPKEADSVmpogrmiW/dOcqL9UDpPNuAVQntL/VzHIzUznHrrMrU/cFXWVTXsCy1PBqgzHlz7Cgf3Q+RmJAFupoTx+hpL6M8lPNse6fBAUC4Rsr18jFvsZoJkF0VAyNXGHTel1FmVjVLcIKsTwY8Uk1KWNvgNMofkLYB7PP6/OLkg/m+1BAEXucNyp5hNS4uT1aJHm6hvpoLC2IoCYqz7Z13P24PPPwXUcPvtquvvaPD2OfBCYQ7vHPj5kcC4z3t7sD4zPOvtROT021j81z74suv2nbUB9g6Y5t2XyP/MN2G3jiaM7ireeiMBj1Xm6dR/ivLUaqoCrPvkjomvhyHkTIOMMoYD3PZSOaIGfX6AWMByU1lOiD0USTaUrcGtQNhLaupA2CgBKdjlLFgBbBjZUAsF5WaGpt4amrolwxCsSClBBioLMdhtOS2KlP7lCsYlR+3SuBU3EcluadM/DiuiiC0j7sK0oJRIsfSdp+QCoyVQQVcqRwwypWU6DGnKmDBIrvpqS/eo6SUjqKB0LngKmDB5lrU0lI5sAHMklXcCFgqWQkcFXk8kWN7356P2n7KnPOP53McP5aYzDw4l0zGdU8/DsZDOW9/VHK/64Ax5fXmOZHlJNc3QDJd7io2pWpUkLtaNg5jAWh/Qes4dWQA9t17B4ZPhiTYvvwOxw/t6RUfjOajORMAxIoysTKv5lUxx8rJKMiJE6lMJ2fa62+81+69/8eB8PYxGO8fJW4C4y2Bccc97fv3/6RPXAXGldWNdu78xbYZV3c1MBqUa7IpvW/AaHa47Sj42pJmCd37dIaPNzBS+NU8WArG/sLREYxDEmdoiwUjd5VSclP7/DUx7YxDDFlA6tkj0TN0jRv2a7cEYx4aFy92xQMaV5Rd2Qnc+njHAAbWMmXG48XupsbLMJCcioGs4kSgXQlWV7zAp4yy1bxh/zi49lsHqG1qSAWHnMXQnMZAB8JSxErwfB2M1nsCB2ggARv3EmylgiAtN9VxfUotwVJxHLDGYbTuuGVXg5Qr1asEkWNgq+OuQyUdc/9ycZ2nHJiVZbY//XiYdU43OfDUWMcOf+Iy+yRLSlkPB2DXP5glUCeijF5BXg8U8HF/y6W0H4wFX5+cOJW14LRNEVVa+yhpubGgtM/13HvvZ/nBR9/j6MHd7VRiRplUimT4FDB7R4Y8VSnjtETL5ERAPJEYN27QxFR79bV3et/Ub11zW/v2Nd/NUhLHDHGaNAa7LjA+8PCj7aVX3mpHj+cJn5hxZc3A3FRsvWBSmanYmnhv2QTGUbaVKOBiHiomVPaukCyX830r7r2kjCM3VRKnZ5JT0SujKoFDJanu0D814EbZxY5AvBJGVo3+m6vrcVPPtS+/+LzDCMKCDIQFInW0XtBRQftsj4NpPxeV9TJ5YFSyZtwAOQ4V95Pbat2xcRgrTrRuf2Vandtnlcg6deSqVtaeAROEBaJlxYzlvnJNC0TQ9nZGgEnkUL5K6NR+cFAsoIDENoDtAwwlK/cTPOXe2gdAZcBpn+1a1jEAlxvnHA8En8O93NO5rl2wD/cYYAYOkE4mDgNegaRy299d2g7poMDWAdfnz0kZc+nU9swp2UwAD2oOxooNLQFmH8Ub+pIOFbbU8XTc3HEglZO8qQeCde6gGE0SZ25KE0NASJw2NzNkYnub5kzcoylu1lTc5lPt1KnT7Y033++jNsD4rau/07559ff6m6iuvf6Bdt31Rvjrp3p3e/CRv2ivvPFuO3YiajB3pi1q8xOzddPMELB6JlWjf2w0O53pIr3zwxuzNgKoONgcsGAULy6mLPdUU83sqLsgNaw+u6CsSY7FibKpQ7zIRR2yqWUUEYxcVCP/xYyfXzzfR/QDiqtZWVHr5YKCr0AEm3jRdgFpqYzzlLG9urbUljzw8uCrxn1wMusFpJ41emuBzrb9oARg9byx7hwZV0D3+W/GYKSGIJTIYaWWBWLFiawUcxxO1tsZAQgCHbgLyDLwAYKBhboxagnKWgcW95XqlevLnGMbhHUd5UuBnQNGyqWs+5tTx2eph4H9rgtEUO788M3AOCR5ADCAF/c0IE3E9eywJf4bABVrxl8PELaVLSUDyKkJ7uHRVLJjWR7uQNpv37wJiucGRRwAO5alrm0yrdy5uGvcPO9fzH73dV1lJX7sm477e8o0jbMT3S3cWJrrcePJPAgkTsBp0iogap/kpp6Oqzc3J/4xf+uZ9vY7H7XvPxg3dQTjN77NVb2nXXPdfe3a64zwv79dfd2d7f4oo943UzNUYaUtRxHBqFG9d7MLiEtzEjAeAlH9QFjvjzQxFhA314zmPxMlpTza9Wb7HD/VtAFIvYvGkzilkGZ6k0llgNTeqJ1RU0bFirKq3UWljGuBdtPbkbf6fDfgqrbCaqoAJCsltHSMgc45paC2C+CCdGlJu+HgeoKo2hstbYOsYsLq7kb5yp0dhxHEvR0yy96tMvtkTatdEYDAZAXjeMKGS0oNKSH4SjmV6TBK3Kj0IOCGgrKUkVGoUrMC0DqoSuEcB2O5qMoVpI6VOWbpmPu6FiUFI3PMAwCMzOcplXQuEMdhPHF0TxRJYzsYzSrnbVd7sw0yI0hkYU3lYXIr3emGGQOo2HAe6A6nggGMe3n8ktnvOJs+eaiDqEyZMl5uY/Zwc6Tap5zy1r2BaoB0gNwMcJurqSSp2EcP5MEQl7Xe1ajNkvIUjLOzeYovnEkl8j7I5d6I/8BDjwbA73QY//xbXNW7A+NIHW94IGr53fb9B37c3vvo03Z2Kaq0GbdvS9/UtXY28Zss7XziJ+2LJsVaHr14B4jUsVTRKwgoo9nuTBm5mAcOGH2+Mt3fwChuLAMeAGu6f8OnuKjc1vmZfK+pPGCm4z5K3ogZJXWikKbd2Ix7KiYE2uwYjAUW0IAlZrS070rltG7fOKiup53xdB521A6QgKrGf+sFHSsgrSvrWO2jmOCtdsquqiMQK04cT+BwWYEGPCCOx4cF4rj72mNGFR2A2gafefJfe+UvVaNKlWUtt9X+UinLyp6W+tU6SIHGnaR+9o1fD4gA43pyH6mW8q5fKn0ljO5Zburez97vAALg5AlNIAN49k0e13VOFtOkyN4PKRvr/Y+f9rLOKdhAWW+MsmRgKlhBzSicc5gp+/u0/TOXAbV98sRwX/uX4/a5lnProeEdjRTx0N5dbeLIvg6jmJGbKhab15912hOXMqpgUZUo3PsffNIefPgv2tWB8ZvjMF4fZdTOuOPBbN/R7n/op+2jT/bENdto6xvbbT2qsxYo+hSDGu4pWiqnCbC8rJUalgFyWJdNDWwxb2Pur7vrCStZY3GyfqsBNTDqTA9MCR3x4uUxjJozJHb0tkmlD4CA1LRRyiiOXF2Mclp2Bbs8l804hIzKSdzIooJRmaEdcbCKEwvEyyAP6jcrFAhc5aZSxVLGgpHyAY8y2ldurf32Oaacc1zLfoMQquEfjBU3VrwIMqpYzRvjTRysVLPixw6jiv/k479sv/3NP/d1oJQrWTFcuY7KgwtE1BB8VZY7CRqAMhlS7iEgHatrKes81xEritHEekADLWAppPs5B6AVX+4G9863O4zgAh4ADwU64Nk3kco/DqN9QGXA6HCNQCsYTbXvvRfAKjUbhxHErsnqPOXGl8r4PLYpIUD7Z8vncN6JKLPeN1RRG6OmBBnMuWnws4k2MzXAOBs3dX4+rlcq7CVlvOb2SzByUw2h8gIcjf7fvuZ77YHEjLs+2xcY1/LkX2vLmjSiOObV8WIWDf1ixqFxf3iNeb1ZuWJHiZyu1ImTz8iyRkGp42pcVu2PfXLjKCEYQWgomdErmjR0Fpe8Ge+bOtjQ+6a6wYkZqeJyn7VuSNb0GbwDWcFYEJYVjNYBqM8qqx46fwrGPvVmACr3tFxUoIGqEjWVyKkkjnOUAWC5sZa2GaUEI5e03FQgUrtyO8fNPuZ4laGGIKSYrLupFAiITzz2Tx2AUkZq6Fi5jJQReBSR8o0rmDKOAUb2E2hgpHi2x2EEO1iVFSuCkXFBwQh4n6tiRvtcb2+up3ngs10mQH6/HU4lPxbQgLh/tzl7wP/JJRhB6PhxL6QcwWjddPunAg47HegKxoW4nrZByCgoA19BVUCDrxSRqoKvoLTNdbXNdT6w76MOao9Ho4ySN9xV7YxseHNVXKnAqAfOfEDUzmgC4vmoo3bG+x/86f8Bxjvbgz/4y7bzs/1t/sxSKtl8mzG7d0A0w5uubUtnokwBsg9uDmBfD6MmnHgJbBzGuK29Z06udSWMTNMGII1j1LRRGdXKnFLDUsR1sw6MYDSQurudgWccpCthpIhcWWWr5w2rZowCuWxwUweX0uzyet8ww6jKPWXd3YxnUqoIzHJpSzWBdzL/GRjHDYyaNqq98co4seAzsKGaNWrpOBCrr6rlVa+8+GR74bnHu4v69MhNff3VURwZ0EoRy2UECRDBWsfquH1cTeBQPuuABB3FBCtzfrm6lJF6glIZIFa8CkTlqSJ11bYIxj2faLN7vx0MfGzvp+/1fYAE3ST1UvlHSwbCowHVEqzKgHImsPW3Co9ALMUc4LlsBSOzDlIgzp8+1uPDda9xS/wFUEswOj6o8s7c43iAFbPN9CYN6gTIzVXvIExslf29s7kBzbMq05lUMkmchfbW2x/2eBCMlcD51jX3dDf1mgB57Y772ze+dXuA/UmUcW9gXEylmm2nvL9CxVYpc3336BMrR/nEjN01Hb1BmfnMXjVwNlB6aetCPi/z7sl/z03tg5FzH93hwDjuspo31Tw4NXlxZVRXEk9SyjPeLhxwQFhup89MLQHI+lT7gXOIAYeG/fGy9rMOdUC8Uhn1vDHaf2srsena0CUOaIAzyXVNSgy6aZ0wAqCJjPXeAWd3SR3Pw/KPgAzANUOc7KoYkkKCrdQQfBTTkD7bB/ZTyMSIcU2pIRAvwfjcs79pzwfGF4AXeylwvhwXsbumOfbi8090AIH31BP/0qF7+40BKvvfe3to2rDO3nx1aP4AFUUDHTipHviAaZsyFqxAdLyu40EARnBX7FnlqOy+T9/v4O3f80GHcveud2NR4qwXjFOTgyt6GjRcSO5sQDwRkLpyjoBURiw3lzLABCQXdeKY7KyOCVHWnEMNTxzV7CFj683JQ+wJPu/t31zTMC5JovGfuuSPPXkwIA6xKhDPbSw2A4ovbuYJnz+cQq7nqW0EPVB0Jj92OJ877tdsKvb0tI7Tc+2Ntz74GhjvijreO7J72v/1Zze179/3g/Zp3NTluKlnoqinA4bZtnXRmkslWwyEmiy8VkCbYn8dXcAT3w5AiheHxFN/i1bKeFuSF8JeTt6Amvqd7lBqu5RVrc7igLSU0NG8UU0c9okdZVbB2mPJlO3vscgx8Ayx32UYKSE3e/Hr4snA14FdHRSTep7JdQrqclsttTdubCSW3ZQoWor7CUZd6BI/clvzPUA7KKHmDvGjeW+GTuGnxfK5phnGh149g1vbx8lm2WcmB3TKTk4e6wPcDx3a1w4GSuNr+0wUWXJL9+7RaWVwT3ftBOP7MWMcP2pXPRk1fOqpX0cVH2tPPZnl04EzwL3w3G/bi3ErXwPcO68Fjuc6sK+8JMOqSUPPnKF73Dtv6sM6ypBm/3tvDQkcSgcyAAGpetCUG+sYxattCug8UFbcWgoLYmW7QgbMg3tNETnYIT1r9u/qIPb5ckB3dG9g29emJgKkTuEnDg5AxR3W/HHy+P7hGHezN2EYvT+RyhL3LEtNHiAaev+Yy9Ubk0spZWEHN1UTh+YAr4HT5mi/ZA8Dre8LaJBury8ERjN4n4m7GAXKvcRu2ivPBBijUY4ZqHxcv0lPW30v59rrb77XHnj4p+3a6yVuJHHGYLyG3d3+7M9vbg899JO2f/+h3gVO5/D5VPbTceO8s1LThF41G6sa5Qe3tLumUcJuAa83/nczXjOWct6yJYHTB1lzcVOJmVkQKCIINW0A0nQcusVxWXUC6K+Xo1qgEAuf4tIC2sMgAGS/6fnXdThf17NG/Kg9MbBmaWa3JdfNuin6Ta0PoDOBpx9PeUpX86OatHg+x70npUDsmWkqnuuYPQF49p+OSw3us/mMoF7Ocepqn5473N8ej+p3O3oIANh0/9OJUb2tTB9VAHpxktcETAXWiZPH27H8f0eOHmxH8n8e8Uo4dsRUHGYPj3v66a72yScft48/AqLucDvbLjA+/sSv2uOP/6r95rFftl//+p/6+rNPPx4Qo06vvtDeeSsu5Ufvtvffe7O98/ZrAfON9tYbr7S3AuS7Ofb2Gy9HCU3X8WJ785UX2s4P3o7bGNd019BAXz1sZEzLHQXUuFKCsSuemDBmPzBBCXYqCtYqz7VVyY2EMKRqvAdN3YMdCqBiVvsnj8XVPLovQF7udVNd3qqTd/Wqsa0pw9Ann9+1fH49e8R92hK1I+oQMN4FTvuicyo7bFnNNh4GKrsYjSLV24w1LeiKNh/lYqcmzb95qB0/rr1rNjbfXn3t7fbQI48mPgRj1PGaoUtcwXh1YPzWt25rP/nxX8ZFOtwunDvftjY2AlBculQosw9wL/WbBb4HgyaZzdW4nEtGUAwPIA8X7aHaUfv3yu+xsWagcR4eAQGEFBGIQ9JmaG8EpDjStmlJmONiSZN32Tbb3qkT+b1TkYdED2XMNXP++XMb7eLF7T5XDXdSXFeJlmqGYD3xks/BveRqjidkrjTqV7Fjua/AHBSODcAu6DW0CEbqOsxWPiisjC34xKOuAdS54dzsnwNnfosZgAb+6cA4me96LN/1SL7r0djxieOxKOVoG6T79u5pn3YYd7aPPvIK8YRe+/a0nTsD4xO//df25FOPtaefebw9FVV8Nor40kvPtlcC2OsBDIAfB0ajkwHZRyq//1b78F1T9psyQzIn8WCgfPu1l9rO96NiOw0wpnzv9IpcigjCKyEDV5WpymsfheTuclVLYUsZgVtASvyAA1gUyzUcGy8zDodl9T+d6Y39QyM+ABnIqreNcuD22dynd7Mb9dhRznmuWYBbKs/ch1lXxmcTN4pPucxTiUvnZxJz9njV24t1NE/sFIWczB9oMPCpU1NtYvJke+HFV9t9D/64XX3dbXFRb+1JHF3iuKdXa2u87p727ez/wcM/yW+3O3Bow1vKNVOJuH1xowx9WguIOiqAbmWRUkbdziY+jEvdPYNuVHTIqAJ4GPXPBb0cI1YG1bLcVcfBaBIvc/6Mw2jbfEAzJ3kemlYkd87mvvkssY2Nlba9bYqR4fXtBWOBaJv1BvfEvBIsle2spoYy+4BaKmpsqIHaZ3vne7EpdxiYYkvAAhxsYtIBRPuAeOrUyW7AHUC2j2LGbQVrbDrfZyq/wakcO3FyMiAea4eOHmmHj+WheiIqGTuSdXb0+NG2b/++tnvPZ233bi+88WrxuK379gbGjwdlfObZxIsvPp0//en20suJ2eJyMkC+GchA6MUcfRkYdwk4A+jOD82No73Rm6deiYsat/Lt19vHKfvx+0NMCJ5K4gARXNxZSy4otQNNKagl8LiolU2tcqWgpZAg/lMw1n0HhaSiQ0dz9wCNss4rIKladWOzzzGAVaZXeWafpbLu6fqsrqtsgVhmP/jFpuJSiSRZXoklMaueOlRWY7upQCZScY8cMRzseDt85GgelC+0u7//SCC8uf3ZN24OkNTxe+3bgVC3uOtuuDfKeEt7IGU+fO/DQCGmE7uJzeJiBUavEB/62upgEPgD4eKZwDc/tJP2jHJ3T4eHEtMJwUBjc+MAzrWoI9BAZlnuah0DIAMmU8bcQYC033W4tbrSgdHrFLzb0Fw1pr0o6ApGyZeant8xoIGxEjDVNMHsG4eUii4tysYa4ZH7BThZako3DuXp/F61Xtug8/uzyUnNKDK4J3uf4clAJ1M902GcDYyzHcbj2X84MB4MjMw6OA9bjwFy/8EDHch9+/a1zz4D5e6+vnPnznbVrx/7566Mzz3/ZHv+hac6kMz2s8/+tr3w/FPdXX0rsLG345p+HPgASBF3BcqPA+jrrzzf3nj5+fbWq2LGV9uuD82FM/RVpWyUUBwosVOJGckdUHFBS/2ARjGVrSQOiAtG5V1TWdCp7OWmlpKB40+BWHCMw3ilgcxSmcE1FVtqtogLlvvYtrTtGnWdgtlx96n7lZqCTjJJIgmMQxPLgQCqF9AAizar/fv3tD15eh4+fKgdOHio/fbJZ9uddz/Y/vybN7b/8Oc39czplTB+85s3tXvveiAPsXdyPao0xGaUy6x1p0/poKDJRYKGGgbCuXzm01Hn2eO599AcQzmrc3xNkjVkUCVfBtiAWHPHgtF+MFJH5p7j7myp5ZUwetWc16j1DglxK8vFBByzfqUy2l8gDgmXIW4bh7HOp4xUb35+AHAcQsBRvOnpxHpRumFZNhXoJvL7H+527Fg8lUAIzKNH9WON0nNX8/vOxF0F48krYDwAwJEiAvFQHq5s34H9bf+BA+3AgYNt7969l6zD+NhvfnkJxnEgLZ8PiC/HZaWOb0T1Xnn5uQ7me4FQvChOBCR7NeVeffHZ9tpLz8VdfTGx4zANI4UDlTZGRu2ABkaQAa/K2A/aISl0+QU8yoEPiKAch5ESAoap+KCjruWeXqlUpXTKF8SWgGEAAwbASunsB1rtd27tB14tXctxxzwMqLMHQn2Ofr+4p8cOfdKzupRRIqknlAKlWQy0U+3d52kZmPPnHTx4OP/Pc+2uex4KhDd2Zfzmt78TF9VA43vatTqMB8ZvfGNHu+fO+9r7b70bUFIpxTqJz/r0krp4BUawixXFiPOzietOH/kjGGVSa3zm0EXvcjc9M+WByfUYyCgfEAtGsSPIxI/jKloxo/Psc5ydCbA6xlNH70AsF3PcylVl4AQb6BhVvBJG1yigvdVqiPsGGwewIGSleqy2wQfEQ4fiyQTAP4Ixy1OSONzZuLXTAbKU8UhAPRQAAWkJSDAeOHSwq+Jeqrh/AHJfINyzx4NXzBgYxYxixYLxxZcCzivPdTf1NRnTQCdOBCOVfOnFZ9obgY0SAvCt7Oei2gZiwfjRe8NoDS6p5hDd7bxYtXrggK2AA6i2yuqYXhAClrnOeBKHqehgBJ/KzgBYIJYigQQ8wCq4lHXcfmUKLvsonJgJWJTN9ZQHKSDBppz9rFTYZylX1X6f1Wf20FDGPsdlaHVSACMwJwyGzn7fQ/JHu5S0OBBP5I89fHjcTb0l6nhL+9bVwzCqq6+9O/Hive2awPhnf7aj3Xvn/fnd348ipSKLcVL5+7yux4dkFcjAxiUdh5GbykUdYDzdy1XHcEuTUFG5iv8oXbmopYCWYKwhVeMwArHeX+IzXTovx4eRD38aRlZwOV4Qlqt6pZta17CkntPTA3DgA2LBxv49GCcmJjp4BSJX1b7jUclBGXPvqO44jCcSXx6dCMTlqgZEQFJEMAJx9949iRn3dDXcE+OmclcvwVgJHLEjGN948+X2zrtRvyjSR3FHdXKljs8/F3ULgK9HHTV1vJGlbOp7sqxvvdbeeu2lnlF9J4B+mDgPRMAqZQQiA519QK0kDTC5sAUjCMWKpZKWFFHFr8qvgpf7WSDWPlBQolI92yAq5Sw4QMisO6Y86AAKIq6xpWsA1FI592fjCgh86gloAI9D6PP1PrIH8rAIjNo5wXjcrAQGPneYd7cjAVE2dSJ/+OTkRKA8mv/lxXbPfT8IgLdGHW+9BOO3A+PV1wbG6+5uf/YfbhhgfP/DQMCljAoEGhAYuFwwmiwLfGCcn6WKHj4DjFxYxkU1p48RGn2URo85h9cZUDlL24ACXcFVLijVsw1G5QDsoTAOJEi99RmI2ug0R4wDOG6XlC6qWD1iLK+EsfZVLDmT7yD7OR4TgnIcxlLIcRirDAjZeLnJADmR/2XadTuM85fc1H8DI88mNg7jZ3t2t08D32efDvEiED/55JPLbqokDih/++Svu3v65lsBAIzvvnEpg8o9pYwyrG+LHwMcVxWIH6Tczg/eae++8coIxsszwxVQlA50IKSEDIwArJhQ2QKPqjDrAFXOtgrOhsp9ucnEdgEJFuCVGo6DCB7ubilrqaSl48pWzOc+lZW1zcbvVQC7J6DFZIYfyVqKHQFd13UtI0d0NBAvgpGbKn48sGd4wLgeGI8eAeOxPIlPtEOHj3RlvCfK+K2rvx7Gq6+9K8o4wPj+O++losugXo7XpiaGWJjiD6BJ2MQ1XRA3Gn0ydFTQxsiV9T1qjKUO7AXjMCmzuFdTyOXEjXUGPjFjQVj7fQ7nlULKrE6DOlCKGTWalzIy0PUEzGgbjOWiAk6DO9i+Lm4sKHvfUdAGGnFixYvUsWAs15UVbOPubAHrvKF7YhSwzuV5xE2dBuLsTJuIAl8J4/7E/PsDIRCZeHF3wo9PPv207QqAQCwY2dDOOLLfPP4vXR1lUbmpL0f9tDeyZ595osMoiSNmlKQBYQcy2xI6lPG1xI0dyKgrkArEr7NyU0EGEPAWxOCsfWBkjl3pnhZIvSKPQHHMUjkQ1DHrlQDiRgLNueXG1nXGr1vXqvV6EFDIih+VtU1Rq52Swirn87qfZBUY9fCZDIjVA4jbquMCoM1CMPRdNIXDoXYsLo4EzuWYccimihkNMO4N/9fcE7uz/fmfx0296/78B2+m0uvap8fNkEiRwDGY2uf1GRd6jBgARzDaBqQ2RsruQUJJzYoHSDAyUH1dFrWAA+AA7RBXiinrM1SzR3/lQaDsQGbbG8WY3i2ldGBi1gFYCgnMOm7/OKT2A7F3aRstzX+j8wSgxqG7ErICrcqMJ3isy8LKxipnn2sMzRoUcXoAcepkjxmP8Wbi1RyIGu4DYOJEsWIBSR0/1awxBuOuXbvapwH0Ku2KABQ3cldtc1UlcZ4JgL99Im7sb3/dDZTaHUFIEcWKXFUq+cE7b3QIX3k+ipe4Ubc4alZKaGkbnABjgLQPkLUNOHCqxGBRiR2vco7Zr6IXZCAZN8coTWVnC6Da5xqu6x4FErMOCuUpHdDYuCtbyqtiUxAq6lgpKgWquNL9gOi7uaeeOEMCJw+SUT9Znd0PmlIy15w4nmvpx3hYX8aDscNt77797YmvyabqEvfNq++MSt7dvh0wv/nNm9v99z6c3/31XPdwKnvc0qiUOA5IPpvvOJPPpj+tbOqZ+ePdTZ2bGYaDyfYyIPoekj59NvSAAiYJoQKukjdAKxgBWMmayp46XhlWZRwHYnd3R8o4FcXVrQxA1WG7RlCArBSSUUMGwmrykOQB8gDgcJ2C8UQeTFxNAAEJhGC0TS1Bph0ScAVhubTWQWp29yrTIY1LOhtVnEooMJnf5MRUXNqoIhgZdaSMQKSGDIgHZcez3M1VDXzlpn788ceDMooPX3/jpZ60qXbGWhdHFoxPPflYjxepoIZ+IErgvBS1fEVSJ1CC8NUXAl+2X835Ejf6sxoRYilJU0Ay6zXyw5LbCshSSrBQMIAWkNR0PClS8NQ26Kw733XAUK5mqVRlcQtGFbWgcq6y1u2rbCsrIKmk/RQEhPa5b92/HhAFf6mwHkHiRf1odWyvju7DaJPPco8jzeTMvdE/MGna2L1nb/vNE0+3O+56oP3ZCMY//9ZtfeTGN74ddexA3jE0+j/04/bOG291GCejquJGcZz3hJiE2YNlOp8bfBUzzs4MfXF1GRwGXQ8PE9+vZqz7OhiBVUCyUr56EdC4O+v4uLvKlJ0dZVK9UezkyWHip/G3PdWgXvCNAwlEIzC80EaPHW2RyhTMloPrerJ7F8eO6dA9wGhZSgmuoeeN0SB/DKNlnUMRAQle2zK0XwfjRJaTI3eVq9qVUVPGSBnFjjKr2hWBKIkDxg8/jOjs3Nn+P7d8ppxfNLL0AAAAAElFTkSuQmCC;" vertex="1" parent="1">
          <mxGeometry x="440" y="300" width="112.38" height="100" as="geometry" />
        </mxCell>
        <mxCell id="xMvSz2WPHTkyer5Rlssf-10" value="" style="shape=partialRectangle;whiteSpace=wrap;html=1;left=0;right=0;fillColor=none;strokeWidth=17;" vertex="1" parent="1">
          <mxGeometry x="438.57" y="325" width="113.81" height="50" as="geometry" />
        </mxCell>
        <mxCell id="xMvSz2WPHTkyer5Rlssf-11" value="上" style="text;html=1;align=center;verticalAlign=middle;resizable=0;points=[];autosize=1;strokeColor=none;fillColor=none;" vertex="1" parent="1">
          <mxGeometry x="510" y="300" width="30" height="20" as="geometry" />
        </mxCell>
        <mxCell id="xMvSz2WPHTkyer5Rlssf-12" value="中" style="text;html=1;align=center;verticalAlign=middle;resizable=0;points=[];autosize=1;strokeColor=none;fillColor=none;" vertex="1" parent="1">
          <mxGeometry x="510" y="340" width="30" height="20" as="geometry" />
        </mxCell>
        <mxCell id="xMvSz2WPHTkyer5Rlssf-13" value="下" style="text;html=1;align=center;verticalAlign=middle;resizable=0;points=[];autosize=1;strokeColor=none;fillColor=none;" vertex="1" parent="1">
          <mxGeometry x="510" y="380" width="30" height="20" as="geometry" />
        </mxCell>
      </root>
    </mxGraphModel>
  </diagram>
</mxfile>
